%TF.GenerationSoftware,KiCad,Pcbnew,9.0.7*%
%TF.CreationDate,2026-03-17T11:15:21-06:00*%
%TF.ProjectId,Toxic_Detection_v4.0,546f7869-635f-4446-9574-656374696f6e,4.2*%
%TF.SameCoordinates,Original*%
%TF.FileFunction,Paste,Top*%
%TF.FilePolarity,Positive*%
%FSLAX46Y46*%
G04 Gerber Fmt 4.6, Leading zero omitted, Abs format (unit mm)*
G04 Created by KiCad (PCBNEW 9.0.7) date 2026-03-17 11:15:21*
%MOMM*%
%LPD*%
G01*
G04 APERTURE LIST*
G04 Aperture macros list*
%AMRoundRect*
0 Rectangle with rounded corners*
0 $1 Rounding radius*
0 $2 $3 $4 $5 $6 $7 $8 $9 X,Y pos of 4 corners*
0 Add a 4 corners polygon primitive as box body*
4,1,4,$2,$3,$4,$5,$6,$7,$8,$9,$2,$3,0*
0 Add four circle primitives for the rounded corners*
1,1,$1+$1,$2,$3*
1,1,$1+$1,$4,$5*
1,1,$1+$1,$6,$7*
1,1,$1+$1,$8,$9*
0 Add four rect primitives between the rounded corners*
20,1,$1+$1,$2,$3,$4,$5,0*
20,1,$1+$1,$4,$5,$6,$7,0*
20,1,$1+$1,$6,$7,$8,$9,0*
20,1,$1+$1,$8,$9,$2,$3,0*%
G04 Aperture macros list end*
%ADD10C,0.100000*%
%ADD11C,0.150000*%
%ADD12C,0.300000*%
%ADD13C,0.400000*%
%ADD14RoundRect,0.250000X-0.337500X-0.475000X0.337500X-0.475000X0.337500X0.475000X-0.337500X0.475000X0*%
%ADD15RoundRect,0.250000X-0.450000X0.350000X-0.450000X-0.350000X0.450000X-0.350000X0.450000X0.350000X0*%
%ADD16R,1.475000X0.450000*%
%ADD17R,1.000000X0.700000*%
%ADD18R,0.600000X0.700000*%
%ADD19RoundRect,0.250000X0.350000X0.450000X-0.350000X0.450000X-0.350000X-0.450000X0.350000X-0.450000X0*%
%ADD20RoundRect,0.250000X-0.350000X-0.450000X0.350000X-0.450000X0.350000X0.450000X-0.350000X0.450000X0*%
%ADD21RoundRect,0.250000X0.337500X0.475000X-0.337500X0.475000X-0.337500X-0.475000X0.337500X-0.475000X0*%
%ADD22RoundRect,0.250000X-0.475000X0.337500X-0.475000X-0.337500X0.475000X-0.337500X0.475000X0.337500X0*%
%ADD23R,1.450000X1.000000*%
%ADD24RoundRect,0.250000X0.450000X-0.350000X0.450000X0.350000X-0.450000X0.350000X-0.450000X-0.350000X0*%
%ADD25RoundRect,0.075000X0.075000X-0.662500X0.075000X0.662500X-0.075000X0.662500X-0.075000X-0.662500X0*%
%ADD26RoundRect,0.075000X0.662500X-0.075000X0.662500X0.075000X-0.662500X0.075000X-0.662500X-0.075000X0*%
%ADD27RoundRect,0.250000X0.475000X-0.337500X0.475000X0.337500X-0.475000X0.337500X-0.475000X-0.337500X0*%
%ADD28R,0.900000X1.500000*%
%ADD29R,1.500000X0.900000*%
%ADD30R,0.900000X0.900000*%
%ADD31R,1.250000X0.600000*%
%ADD32RoundRect,0.250000X0.350000X-0.275000X0.350000X0.275000X-0.350000X0.275000X-0.350000X-0.275000X0*%
%ADD33R,2.500000X1.500000*%
%ADD34R,7.000000X7.000000*%
%ADD35R,1.200000X0.600000*%
%ADD36RoundRect,0.150000X0.425000X-0.150000X0.425000X0.150000X-0.425000X0.150000X-0.425000X-0.150000X0*%
%ADD37RoundRect,0.075000X0.500000X-0.075000X0.500000X0.075000X-0.500000X0.075000X-0.500000X-0.075000X0*%
%ADD38O,2.100000X1.000000*%
%ADD39O,1.800000X1.000000*%
%ADD40R,1.525000X0.650000*%
%ADD41R,1.750000X1.000000*%
%ADD42R,0.740000X2.790000*%
%ADD43R,1.200000X0.700000*%
%ADD44R,1.200000X1.000000*%
%ADD45R,0.800000X1.000000*%
%ADD46R,2.800000X1.000000*%
%ADD47R,1.900000X1.300000*%
%ADD48R,4.300000X1.500000*%
%ADD49R,1.500000X4.300000*%
%ADD50R,1.499998X4.300000*%
%ADD51RoundRect,0.250001X-1.074999X0.462499X-1.074999X-0.462499X1.074999X-0.462499X1.074999X0.462499X0*%
%ADD52R,1.000000X1.450000*%
%ADD53R,0.650000X1.525000*%
%ADD54RoundRect,0.225000X-0.225000X-0.375000X0.225000X-0.375000X0.225000X0.375000X-0.225000X0.375000X0*%
%ADD55R,0.600000X1.200000*%
%TA.AperFunction,Profile*%
%ADD56C,0.050000*%
%TD*%
G04 APERTURE END LIST*
D10*
D11*
X177002200Y-166007200D02*
X285002200Y-166007200D01*
X285002200Y-198007200D01*
X177002200Y-198007200D01*
X177002200Y-166007200D01*
D10*
D11*
X10000000Y-10000000D02*
X287002200Y-10000000D01*
X287002200Y-200007200D01*
X10000000Y-200007200D01*
X10000000Y-10000000D01*
D10*
D11*
X12000000Y-12000000D02*
X285002200Y-12000000D01*
X285002200Y-198007200D01*
X12000000Y-198007200D01*
X12000000Y-12000000D01*
D10*
D11*
X60000000Y-12000000D02*
X60000000Y-10000000D01*
D10*
D11*
X110000000Y-12000000D02*
X110000000Y-10000000D01*
D10*
D11*
X160000000Y-12000000D02*
X160000000Y-10000000D01*
D10*
D11*
X210000000Y-12000000D02*
X210000000Y-10000000D01*
D10*
D11*
X260000000Y-12000000D02*
X260000000Y-10000000D01*
D10*
D11*
X36089160Y-11593604D02*
X35346303Y-11593604D01*
X35717731Y-11593604D02*
X35717731Y-10293604D01*
X35717731Y-10293604D02*
X35593922Y-10479319D01*
X35593922Y-10479319D02*
X35470112Y-10603128D01*
X35470112Y-10603128D02*
X35346303Y-10665033D01*
D10*
D11*
X85346303Y-10417414D02*
X85408207Y-10355509D01*
X85408207Y-10355509D02*
X85532017Y-10293604D01*
X85532017Y-10293604D02*
X85841541Y-10293604D01*
X85841541Y-10293604D02*
X85965350Y-10355509D01*
X85965350Y-10355509D02*
X86027255Y-10417414D01*
X86027255Y-10417414D02*
X86089160Y-10541223D01*
X86089160Y-10541223D02*
X86089160Y-10665033D01*
X86089160Y-10665033D02*
X86027255Y-10850747D01*
X86027255Y-10850747D02*
X85284398Y-11593604D01*
X85284398Y-11593604D02*
X86089160Y-11593604D01*
D10*
D11*
X135284398Y-10293604D02*
X136089160Y-10293604D01*
X136089160Y-10293604D02*
X135655826Y-10788842D01*
X135655826Y-10788842D02*
X135841541Y-10788842D01*
X135841541Y-10788842D02*
X135965350Y-10850747D01*
X135965350Y-10850747D02*
X136027255Y-10912652D01*
X136027255Y-10912652D02*
X136089160Y-11036461D01*
X136089160Y-11036461D02*
X136089160Y-11345985D01*
X136089160Y-11345985D02*
X136027255Y-11469795D01*
X136027255Y-11469795D02*
X135965350Y-11531700D01*
X135965350Y-11531700D02*
X135841541Y-11593604D01*
X135841541Y-11593604D02*
X135470112Y-11593604D01*
X135470112Y-11593604D02*
X135346303Y-11531700D01*
X135346303Y-11531700D02*
X135284398Y-11469795D01*
D10*
D11*
X185965350Y-10726938D02*
X185965350Y-11593604D01*
X185655826Y-10231700D02*
X185346303Y-11160271D01*
X185346303Y-11160271D02*
X186151064Y-11160271D01*
D10*
D11*
X236027255Y-10293604D02*
X235408207Y-10293604D01*
X235408207Y-10293604D02*
X235346303Y-10912652D01*
X235346303Y-10912652D02*
X235408207Y-10850747D01*
X235408207Y-10850747D02*
X235532017Y-10788842D01*
X235532017Y-10788842D02*
X235841541Y-10788842D01*
X235841541Y-10788842D02*
X235965350Y-10850747D01*
X235965350Y-10850747D02*
X236027255Y-10912652D01*
X236027255Y-10912652D02*
X236089160Y-11036461D01*
X236089160Y-11036461D02*
X236089160Y-11345985D01*
X236089160Y-11345985D02*
X236027255Y-11469795D01*
X236027255Y-11469795D02*
X235965350Y-11531700D01*
X235965350Y-11531700D02*
X235841541Y-11593604D01*
X235841541Y-11593604D02*
X235532017Y-11593604D01*
X235532017Y-11593604D02*
X235408207Y-11531700D01*
X235408207Y-11531700D02*
X235346303Y-11469795D01*
D10*
D11*
X285965350Y-10293604D02*
X285717731Y-10293604D01*
X285717731Y-10293604D02*
X285593922Y-10355509D01*
X285593922Y-10355509D02*
X285532017Y-10417414D01*
X285532017Y-10417414D02*
X285408207Y-10603128D01*
X285408207Y-10603128D02*
X285346303Y-10850747D01*
X285346303Y-10850747D02*
X285346303Y-11345985D01*
X285346303Y-11345985D02*
X285408207Y-11469795D01*
X285408207Y-11469795D02*
X285470112Y-11531700D01*
X285470112Y-11531700D02*
X285593922Y-11593604D01*
X285593922Y-11593604D02*
X285841541Y-11593604D01*
X285841541Y-11593604D02*
X285965350Y-11531700D01*
X285965350Y-11531700D02*
X286027255Y-11469795D01*
X286027255Y-11469795D02*
X286089160Y-11345985D01*
X286089160Y-11345985D02*
X286089160Y-11036461D01*
X286089160Y-11036461D02*
X286027255Y-10912652D01*
X286027255Y-10912652D02*
X285965350Y-10850747D01*
X285965350Y-10850747D02*
X285841541Y-10788842D01*
X285841541Y-10788842D02*
X285593922Y-10788842D01*
X285593922Y-10788842D02*
X285470112Y-10850747D01*
X285470112Y-10850747D02*
X285408207Y-10912652D01*
X285408207Y-10912652D02*
X285346303Y-11036461D01*
D10*
D11*
X60000000Y-198007200D02*
X60000000Y-200007200D01*
D10*
D11*
X110000000Y-198007200D02*
X110000000Y-200007200D01*
D10*
D11*
X160000000Y-198007200D02*
X160000000Y-200007200D01*
D10*
D11*
X210000000Y-198007200D02*
X210000000Y-200007200D01*
D10*
D11*
X260000000Y-198007200D02*
X260000000Y-200007200D01*
D10*
D11*
X36089160Y-199600804D02*
X35346303Y-199600804D01*
X35717731Y-199600804D02*
X35717731Y-198300804D01*
X35717731Y-198300804D02*
X35593922Y-198486519D01*
X35593922Y-198486519D02*
X35470112Y-198610328D01*
X35470112Y-198610328D02*
X35346303Y-198672233D01*
D10*
D11*
X85346303Y-198424614D02*
X85408207Y-198362709D01*
X85408207Y-198362709D02*
X85532017Y-198300804D01*
X85532017Y-198300804D02*
X85841541Y-198300804D01*
X85841541Y-198300804D02*
X85965350Y-198362709D01*
X85965350Y-198362709D02*
X86027255Y-198424614D01*
X86027255Y-198424614D02*
X86089160Y-198548423D01*
X86089160Y-198548423D02*
X86089160Y-198672233D01*
X86089160Y-198672233D02*
X86027255Y-198857947D01*
X86027255Y-198857947D02*
X85284398Y-199600804D01*
X85284398Y-199600804D02*
X86089160Y-199600804D01*
D10*
D11*
X135284398Y-198300804D02*
X136089160Y-198300804D01*
X136089160Y-198300804D02*
X135655826Y-198796042D01*
X135655826Y-198796042D02*
X135841541Y-198796042D01*
X135841541Y-198796042D02*
X135965350Y-198857947D01*
X135965350Y-198857947D02*
X136027255Y-198919852D01*
X136027255Y-198919852D02*
X136089160Y-199043661D01*
X136089160Y-199043661D02*
X136089160Y-199353185D01*
X136089160Y-199353185D02*
X136027255Y-199476995D01*
X136027255Y-199476995D02*
X135965350Y-199538900D01*
X135965350Y-199538900D02*
X135841541Y-199600804D01*
X135841541Y-199600804D02*
X135470112Y-199600804D01*
X135470112Y-199600804D02*
X135346303Y-199538900D01*
X135346303Y-199538900D02*
X135284398Y-199476995D01*
D10*
D11*
X185965350Y-198734138D02*
X185965350Y-199600804D01*
X185655826Y-198238900D02*
X185346303Y-199167471D01*
X185346303Y-199167471D02*
X186151064Y-199167471D01*
D10*
D11*
X236027255Y-198300804D02*
X235408207Y-198300804D01*
X235408207Y-198300804D02*
X235346303Y-198919852D01*
X235346303Y-198919852D02*
X235408207Y-198857947D01*
X235408207Y-198857947D02*
X235532017Y-198796042D01*
X235532017Y-198796042D02*
X235841541Y-198796042D01*
X235841541Y-198796042D02*
X235965350Y-198857947D01*
X235965350Y-198857947D02*
X236027255Y-198919852D01*
X236027255Y-198919852D02*
X236089160Y-199043661D01*
X236089160Y-199043661D02*
X236089160Y-199353185D01*
X236089160Y-199353185D02*
X236027255Y-199476995D01*
X236027255Y-199476995D02*
X235965350Y-199538900D01*
X235965350Y-199538900D02*
X235841541Y-199600804D01*
X235841541Y-199600804D02*
X235532017Y-199600804D01*
X235532017Y-199600804D02*
X235408207Y-199538900D01*
X235408207Y-199538900D02*
X235346303Y-199476995D01*
D10*
D11*
X285965350Y-198300804D02*
X285717731Y-198300804D01*
X285717731Y-198300804D02*
X285593922Y-198362709D01*
X285593922Y-198362709D02*
X285532017Y-198424614D01*
X285532017Y-198424614D02*
X285408207Y-198610328D01*
X285408207Y-198610328D02*
X285346303Y-198857947D01*
X285346303Y-198857947D02*
X285346303Y-199353185D01*
X285346303Y-199353185D02*
X285408207Y-199476995D01*
X285408207Y-199476995D02*
X285470112Y-199538900D01*
X285470112Y-199538900D02*
X285593922Y-199600804D01*
X285593922Y-199600804D02*
X285841541Y-199600804D01*
X285841541Y-199600804D02*
X285965350Y-199538900D01*
X285965350Y-199538900D02*
X286027255Y-199476995D01*
X286027255Y-199476995D02*
X286089160Y-199353185D01*
X286089160Y-199353185D02*
X286089160Y-199043661D01*
X286089160Y-199043661D02*
X286027255Y-198919852D01*
X286027255Y-198919852D02*
X285965350Y-198857947D01*
X285965350Y-198857947D02*
X285841541Y-198796042D01*
X285841541Y-198796042D02*
X285593922Y-198796042D01*
X285593922Y-198796042D02*
X285470112Y-198857947D01*
X285470112Y-198857947D02*
X285408207Y-198919852D01*
X285408207Y-198919852D02*
X285346303Y-199043661D01*
D10*
D11*
X10000000Y-60000000D02*
X12000000Y-60000000D01*
D10*
D11*
X10000000Y-110000000D02*
X12000000Y-110000000D01*
D10*
D11*
X10000000Y-160000000D02*
X12000000Y-160000000D01*
D10*
D11*
X10690476Y-35222176D02*
X11309523Y-35222176D01*
X10566666Y-35593604D02*
X10999999Y-34293604D01*
X10999999Y-34293604D02*
X11433333Y-35593604D01*
D10*
D11*
X11092857Y-84912652D02*
X11278571Y-84974557D01*
X11278571Y-84974557D02*
X11340476Y-85036461D01*
X11340476Y-85036461D02*
X11402380Y-85160271D01*
X11402380Y-85160271D02*
X11402380Y-85345985D01*
X11402380Y-85345985D02*
X11340476Y-85469795D01*
X11340476Y-85469795D02*
X11278571Y-85531700D01*
X11278571Y-85531700D02*
X11154761Y-85593604D01*
X11154761Y-85593604D02*
X10659523Y-85593604D01*
X10659523Y-85593604D02*
X10659523Y-84293604D01*
X10659523Y-84293604D02*
X11092857Y-84293604D01*
X11092857Y-84293604D02*
X11216666Y-84355509D01*
X11216666Y-84355509D02*
X11278571Y-84417414D01*
X11278571Y-84417414D02*
X11340476Y-84541223D01*
X11340476Y-84541223D02*
X11340476Y-84665033D01*
X11340476Y-84665033D02*
X11278571Y-84788842D01*
X11278571Y-84788842D02*
X11216666Y-84850747D01*
X11216666Y-84850747D02*
X11092857Y-84912652D01*
X11092857Y-84912652D02*
X10659523Y-84912652D01*
D10*
D11*
X11402380Y-135469795D02*
X11340476Y-135531700D01*
X11340476Y-135531700D02*
X11154761Y-135593604D01*
X11154761Y-135593604D02*
X11030952Y-135593604D01*
X11030952Y-135593604D02*
X10845238Y-135531700D01*
X10845238Y-135531700D02*
X10721428Y-135407890D01*
X10721428Y-135407890D02*
X10659523Y-135284080D01*
X10659523Y-135284080D02*
X10597619Y-135036461D01*
X10597619Y-135036461D02*
X10597619Y-134850747D01*
X10597619Y-134850747D02*
X10659523Y-134603128D01*
X10659523Y-134603128D02*
X10721428Y-134479319D01*
X10721428Y-134479319D02*
X10845238Y-134355509D01*
X10845238Y-134355509D02*
X11030952Y-134293604D01*
X11030952Y-134293604D02*
X11154761Y-134293604D01*
X11154761Y-134293604D02*
X11340476Y-134355509D01*
X11340476Y-134355509D02*
X11402380Y-134417414D01*
D10*
D11*
X10659523Y-185593604D02*
X10659523Y-184293604D01*
X10659523Y-184293604D02*
X10969047Y-184293604D01*
X10969047Y-184293604D02*
X11154761Y-184355509D01*
X11154761Y-184355509D02*
X11278571Y-184479319D01*
X11278571Y-184479319D02*
X11340476Y-184603128D01*
X11340476Y-184603128D02*
X11402380Y-184850747D01*
X11402380Y-184850747D02*
X11402380Y-185036461D01*
X11402380Y-185036461D02*
X11340476Y-185284080D01*
X11340476Y-185284080D02*
X11278571Y-185407890D01*
X11278571Y-185407890D02*
X11154761Y-185531700D01*
X11154761Y-185531700D02*
X10969047Y-185593604D01*
X10969047Y-185593604D02*
X10659523Y-185593604D01*
D10*
D11*
X287002200Y-60000000D02*
X285002200Y-60000000D01*
D10*
D11*
X287002200Y-110000000D02*
X285002200Y-110000000D01*
D10*
D11*
X287002200Y-160000000D02*
X285002200Y-160000000D01*
D10*
D11*
X285692676Y-35222176D02*
X286311723Y-35222176D01*
X285568866Y-35593604D02*
X286002199Y-34293604D01*
X286002199Y-34293604D02*
X286435533Y-35593604D01*
D10*
D11*
X286095057Y-84912652D02*
X286280771Y-84974557D01*
X286280771Y-84974557D02*
X286342676Y-85036461D01*
X286342676Y-85036461D02*
X286404580Y-85160271D01*
X286404580Y-85160271D02*
X286404580Y-85345985D01*
X286404580Y-85345985D02*
X286342676Y-85469795D01*
X286342676Y-85469795D02*
X286280771Y-85531700D01*
X286280771Y-85531700D02*
X286156961Y-85593604D01*
X286156961Y-85593604D02*
X285661723Y-85593604D01*
X285661723Y-85593604D02*
X285661723Y-84293604D01*
X285661723Y-84293604D02*
X286095057Y-84293604D01*
X286095057Y-84293604D02*
X286218866Y-84355509D01*
X286218866Y-84355509D02*
X286280771Y-84417414D01*
X286280771Y-84417414D02*
X286342676Y-84541223D01*
X286342676Y-84541223D02*
X286342676Y-84665033D01*
X286342676Y-84665033D02*
X286280771Y-84788842D01*
X286280771Y-84788842D02*
X286218866Y-84850747D01*
X286218866Y-84850747D02*
X286095057Y-84912652D01*
X286095057Y-84912652D02*
X285661723Y-84912652D01*
D10*
D11*
X286404580Y-135469795D02*
X286342676Y-135531700D01*
X286342676Y-135531700D02*
X286156961Y-135593604D01*
X286156961Y-135593604D02*
X286033152Y-135593604D01*
X286033152Y-135593604D02*
X285847438Y-135531700D01*
X285847438Y-135531700D02*
X285723628Y-135407890D01*
X285723628Y-135407890D02*
X285661723Y-135284080D01*
X285661723Y-135284080D02*
X285599819Y-135036461D01*
X285599819Y-135036461D02*
X285599819Y-134850747D01*
X285599819Y-134850747D02*
X285661723Y-134603128D01*
X285661723Y-134603128D02*
X285723628Y-134479319D01*
X285723628Y-134479319D02*
X285847438Y-134355509D01*
X285847438Y-134355509D02*
X286033152Y-134293604D01*
X286033152Y-134293604D02*
X286156961Y-134293604D01*
X286156961Y-134293604D02*
X286342676Y-134355509D01*
X286342676Y-134355509D02*
X286404580Y-134417414D01*
D10*
D11*
X285661723Y-185593604D02*
X285661723Y-184293604D01*
X285661723Y-184293604D02*
X285971247Y-184293604D01*
X285971247Y-184293604D02*
X286156961Y-184355509D01*
X286156961Y-184355509D02*
X286280771Y-184479319D01*
X286280771Y-184479319D02*
X286342676Y-184603128D01*
X286342676Y-184603128D02*
X286404580Y-184850747D01*
X286404580Y-184850747D02*
X286404580Y-185036461D01*
X286404580Y-185036461D02*
X286342676Y-185284080D01*
X286342676Y-185284080D02*
X286280771Y-185407890D01*
X286280771Y-185407890D02*
X286156961Y-185531700D01*
X286156961Y-185531700D02*
X285971247Y-185593604D01*
X285971247Y-185593604D02*
X285661723Y-185593604D01*
D10*
D11*
X200458026Y-193793328D02*
X200458026Y-192293328D01*
X200458026Y-192293328D02*
X200815169Y-192293328D01*
X200815169Y-192293328D02*
X201029455Y-192364757D01*
X201029455Y-192364757D02*
X201172312Y-192507614D01*
X201172312Y-192507614D02*
X201243741Y-192650471D01*
X201243741Y-192650471D02*
X201315169Y-192936185D01*
X201315169Y-192936185D02*
X201315169Y-193150471D01*
X201315169Y-193150471D02*
X201243741Y-193436185D01*
X201243741Y-193436185D02*
X201172312Y-193579042D01*
X201172312Y-193579042D02*
X201029455Y-193721900D01*
X201029455Y-193721900D02*
X200815169Y-193793328D01*
X200815169Y-193793328D02*
X200458026Y-193793328D01*
X202600884Y-193793328D02*
X202600884Y-193007614D01*
X202600884Y-193007614D02*
X202529455Y-192864757D01*
X202529455Y-192864757D02*
X202386598Y-192793328D01*
X202386598Y-192793328D02*
X202100884Y-192793328D01*
X202100884Y-192793328D02*
X201958026Y-192864757D01*
X202600884Y-193721900D02*
X202458026Y-193793328D01*
X202458026Y-193793328D02*
X202100884Y-193793328D01*
X202100884Y-193793328D02*
X201958026Y-193721900D01*
X201958026Y-193721900D02*
X201886598Y-193579042D01*
X201886598Y-193579042D02*
X201886598Y-193436185D01*
X201886598Y-193436185D02*
X201958026Y-193293328D01*
X201958026Y-193293328D02*
X202100884Y-193221900D01*
X202100884Y-193221900D02*
X202458026Y-193221900D01*
X202458026Y-193221900D02*
X202600884Y-193150471D01*
X203100884Y-192793328D02*
X203672312Y-192793328D01*
X203315169Y-192293328D02*
X203315169Y-193579042D01*
X203315169Y-193579042D02*
X203386598Y-193721900D01*
X203386598Y-193721900D02*
X203529455Y-193793328D01*
X203529455Y-193793328D02*
X203672312Y-193793328D01*
X204743741Y-193721900D02*
X204600884Y-193793328D01*
X204600884Y-193793328D02*
X204315170Y-193793328D01*
X204315170Y-193793328D02*
X204172312Y-193721900D01*
X204172312Y-193721900D02*
X204100884Y-193579042D01*
X204100884Y-193579042D02*
X204100884Y-193007614D01*
X204100884Y-193007614D02*
X204172312Y-192864757D01*
X204172312Y-192864757D02*
X204315170Y-192793328D01*
X204315170Y-192793328D02*
X204600884Y-192793328D01*
X204600884Y-192793328D02*
X204743741Y-192864757D01*
X204743741Y-192864757D02*
X204815170Y-193007614D01*
X204815170Y-193007614D02*
X204815170Y-193150471D01*
X204815170Y-193150471D02*
X204100884Y-193293328D01*
X205458026Y-193650471D02*
X205529455Y-193721900D01*
X205529455Y-193721900D02*
X205458026Y-193793328D01*
X205458026Y-193793328D02*
X205386598Y-193721900D01*
X205386598Y-193721900D02*
X205458026Y-193650471D01*
X205458026Y-193650471D02*
X205458026Y-193793328D01*
X205458026Y-192864757D02*
X205529455Y-192936185D01*
X205529455Y-192936185D02*
X205458026Y-193007614D01*
X205458026Y-193007614D02*
X205386598Y-192936185D01*
X205386598Y-192936185D02*
X205458026Y-192864757D01*
X205458026Y-192864757D02*
X205458026Y-193007614D01*
X207243741Y-192436185D02*
X207315169Y-192364757D01*
X207315169Y-192364757D02*
X207458027Y-192293328D01*
X207458027Y-192293328D02*
X207815169Y-192293328D01*
X207815169Y-192293328D02*
X207958027Y-192364757D01*
X207958027Y-192364757D02*
X208029455Y-192436185D01*
X208029455Y-192436185D02*
X208100884Y-192579042D01*
X208100884Y-192579042D02*
X208100884Y-192721900D01*
X208100884Y-192721900D02*
X208029455Y-192936185D01*
X208029455Y-192936185D02*
X207172312Y-193793328D01*
X207172312Y-193793328D02*
X208100884Y-193793328D01*
X209029455Y-192293328D02*
X209172312Y-192293328D01*
X209172312Y-192293328D02*
X209315169Y-192364757D01*
X209315169Y-192364757D02*
X209386598Y-192436185D01*
X209386598Y-192436185D02*
X209458026Y-192579042D01*
X209458026Y-192579042D02*
X209529455Y-192864757D01*
X209529455Y-192864757D02*
X209529455Y-193221900D01*
X209529455Y-193221900D02*
X209458026Y-193507614D01*
X209458026Y-193507614D02*
X209386598Y-193650471D01*
X209386598Y-193650471D02*
X209315169Y-193721900D01*
X209315169Y-193721900D02*
X209172312Y-193793328D01*
X209172312Y-193793328D02*
X209029455Y-193793328D01*
X209029455Y-193793328D02*
X208886598Y-193721900D01*
X208886598Y-193721900D02*
X208815169Y-193650471D01*
X208815169Y-193650471D02*
X208743740Y-193507614D01*
X208743740Y-193507614D02*
X208672312Y-193221900D01*
X208672312Y-193221900D02*
X208672312Y-192864757D01*
X208672312Y-192864757D02*
X208743740Y-192579042D01*
X208743740Y-192579042D02*
X208815169Y-192436185D01*
X208815169Y-192436185D02*
X208886598Y-192364757D01*
X208886598Y-192364757D02*
X209029455Y-192293328D01*
X210100883Y-192436185D02*
X210172311Y-192364757D01*
X210172311Y-192364757D02*
X210315169Y-192293328D01*
X210315169Y-192293328D02*
X210672311Y-192293328D01*
X210672311Y-192293328D02*
X210815169Y-192364757D01*
X210815169Y-192364757D02*
X210886597Y-192436185D01*
X210886597Y-192436185D02*
X210958026Y-192579042D01*
X210958026Y-192579042D02*
X210958026Y-192721900D01*
X210958026Y-192721900D02*
X210886597Y-192936185D01*
X210886597Y-192936185D02*
X210029454Y-193793328D01*
X210029454Y-193793328D02*
X210958026Y-193793328D01*
X212243740Y-192293328D02*
X211958025Y-192293328D01*
X211958025Y-192293328D02*
X211815168Y-192364757D01*
X211815168Y-192364757D02*
X211743740Y-192436185D01*
X211743740Y-192436185D02*
X211600882Y-192650471D01*
X211600882Y-192650471D02*
X211529454Y-192936185D01*
X211529454Y-192936185D02*
X211529454Y-193507614D01*
X211529454Y-193507614D02*
X211600882Y-193650471D01*
X211600882Y-193650471D02*
X211672311Y-193721900D01*
X211672311Y-193721900D02*
X211815168Y-193793328D01*
X211815168Y-193793328D02*
X212100882Y-193793328D01*
X212100882Y-193793328D02*
X212243740Y-193721900D01*
X212243740Y-193721900D02*
X212315168Y-193650471D01*
X212315168Y-193650471D02*
X212386597Y-193507614D01*
X212386597Y-193507614D02*
X212386597Y-193150471D01*
X212386597Y-193150471D02*
X212315168Y-193007614D01*
X212315168Y-193007614D02*
X212243740Y-192936185D01*
X212243740Y-192936185D02*
X212100882Y-192864757D01*
X212100882Y-192864757D02*
X211815168Y-192864757D01*
X211815168Y-192864757D02*
X211672311Y-192936185D01*
X211672311Y-192936185D02*
X211600882Y-193007614D01*
X211600882Y-193007614D02*
X211529454Y-193150471D01*
X213029453Y-193221900D02*
X214172311Y-193221900D01*
X215172311Y-192293328D02*
X215315168Y-192293328D01*
X215315168Y-192293328D02*
X215458025Y-192364757D01*
X215458025Y-192364757D02*
X215529454Y-192436185D01*
X215529454Y-192436185D02*
X215600882Y-192579042D01*
X215600882Y-192579042D02*
X215672311Y-192864757D01*
X215672311Y-192864757D02*
X215672311Y-193221900D01*
X215672311Y-193221900D02*
X215600882Y-193507614D01*
X215600882Y-193507614D02*
X215529454Y-193650471D01*
X215529454Y-193650471D02*
X215458025Y-193721900D01*
X215458025Y-193721900D02*
X215315168Y-193793328D01*
X215315168Y-193793328D02*
X215172311Y-193793328D01*
X215172311Y-193793328D02*
X215029454Y-193721900D01*
X215029454Y-193721900D02*
X214958025Y-193650471D01*
X214958025Y-193650471D02*
X214886596Y-193507614D01*
X214886596Y-193507614D02*
X214815168Y-193221900D01*
X214815168Y-193221900D02*
X214815168Y-192864757D01*
X214815168Y-192864757D02*
X214886596Y-192579042D01*
X214886596Y-192579042D02*
X214958025Y-192436185D01*
X214958025Y-192436185D02*
X215029454Y-192364757D01*
X215029454Y-192364757D02*
X215172311Y-192293328D01*
X216243739Y-192436185D02*
X216315167Y-192364757D01*
X216315167Y-192364757D02*
X216458025Y-192293328D01*
X216458025Y-192293328D02*
X216815167Y-192293328D01*
X216815167Y-192293328D02*
X216958025Y-192364757D01*
X216958025Y-192364757D02*
X217029453Y-192436185D01*
X217029453Y-192436185D02*
X217100882Y-192579042D01*
X217100882Y-192579042D02*
X217100882Y-192721900D01*
X217100882Y-192721900D02*
X217029453Y-192936185D01*
X217029453Y-192936185D02*
X216172310Y-193793328D01*
X216172310Y-193793328D02*
X217100882Y-193793328D01*
X217743738Y-193221900D02*
X218886596Y-193221900D01*
X220386596Y-193793328D02*
X219529453Y-193793328D01*
X219958024Y-193793328D02*
X219958024Y-192293328D01*
X219958024Y-192293328D02*
X219815167Y-192507614D01*
X219815167Y-192507614D02*
X219672310Y-192650471D01*
X219672310Y-192650471D02*
X219529453Y-192721900D01*
X220886595Y-192293328D02*
X221815167Y-192293328D01*
X221815167Y-192293328D02*
X221315167Y-192864757D01*
X221315167Y-192864757D02*
X221529452Y-192864757D01*
X221529452Y-192864757D02*
X221672310Y-192936185D01*
X221672310Y-192936185D02*
X221743738Y-193007614D01*
X221743738Y-193007614D02*
X221815167Y-193150471D01*
X221815167Y-193150471D02*
X221815167Y-193507614D01*
X221815167Y-193507614D02*
X221743738Y-193650471D01*
X221743738Y-193650471D02*
X221672310Y-193721900D01*
X221672310Y-193721900D02*
X221529452Y-193793328D01*
X221529452Y-193793328D02*
X221100881Y-193793328D01*
X221100881Y-193793328D02*
X220958024Y-193721900D01*
X220958024Y-193721900D02*
X220886595Y-193650471D01*
D10*
D11*
X177002200Y-194507200D02*
X285002200Y-194507200D01*
D10*
D11*
X178458026Y-196593328D02*
X178458026Y-195093328D01*
X179315169Y-196593328D02*
X178672312Y-195736185D01*
X179315169Y-195093328D02*
X178458026Y-195950471D01*
X179958026Y-196593328D02*
X179958026Y-195593328D01*
X179958026Y-195093328D02*
X179886598Y-195164757D01*
X179886598Y-195164757D02*
X179958026Y-195236185D01*
X179958026Y-195236185D02*
X180029455Y-195164757D01*
X180029455Y-195164757D02*
X179958026Y-195093328D01*
X179958026Y-195093328D02*
X179958026Y-195236185D01*
X181529455Y-196450471D02*
X181458027Y-196521900D01*
X181458027Y-196521900D02*
X181243741Y-196593328D01*
X181243741Y-196593328D02*
X181100884Y-196593328D01*
X181100884Y-196593328D02*
X180886598Y-196521900D01*
X180886598Y-196521900D02*
X180743741Y-196379042D01*
X180743741Y-196379042D02*
X180672312Y-196236185D01*
X180672312Y-196236185D02*
X180600884Y-195950471D01*
X180600884Y-195950471D02*
X180600884Y-195736185D01*
X180600884Y-195736185D02*
X180672312Y-195450471D01*
X180672312Y-195450471D02*
X180743741Y-195307614D01*
X180743741Y-195307614D02*
X180886598Y-195164757D01*
X180886598Y-195164757D02*
X181100884Y-195093328D01*
X181100884Y-195093328D02*
X181243741Y-195093328D01*
X181243741Y-195093328D02*
X181458027Y-195164757D01*
X181458027Y-195164757D02*
X181529455Y-195236185D01*
X182815170Y-196593328D02*
X182815170Y-195807614D01*
X182815170Y-195807614D02*
X182743741Y-195664757D01*
X182743741Y-195664757D02*
X182600884Y-195593328D01*
X182600884Y-195593328D02*
X182315170Y-195593328D01*
X182315170Y-195593328D02*
X182172312Y-195664757D01*
X182815170Y-196521900D02*
X182672312Y-196593328D01*
X182672312Y-196593328D02*
X182315170Y-196593328D01*
X182315170Y-196593328D02*
X182172312Y-196521900D01*
X182172312Y-196521900D02*
X182100884Y-196379042D01*
X182100884Y-196379042D02*
X182100884Y-196236185D01*
X182100884Y-196236185D02*
X182172312Y-196093328D01*
X182172312Y-196093328D02*
X182315170Y-196021900D01*
X182315170Y-196021900D02*
X182672312Y-196021900D01*
X182672312Y-196021900D02*
X182815170Y-195950471D01*
X184172313Y-196593328D02*
X184172313Y-195093328D01*
X184172313Y-196521900D02*
X184029455Y-196593328D01*
X184029455Y-196593328D02*
X183743741Y-196593328D01*
X183743741Y-196593328D02*
X183600884Y-196521900D01*
X183600884Y-196521900D02*
X183529455Y-196450471D01*
X183529455Y-196450471D02*
X183458027Y-196307614D01*
X183458027Y-196307614D02*
X183458027Y-195879042D01*
X183458027Y-195879042D02*
X183529455Y-195736185D01*
X183529455Y-195736185D02*
X183600884Y-195664757D01*
X183600884Y-195664757D02*
X183743741Y-195593328D01*
X183743741Y-195593328D02*
X184029455Y-195593328D01*
X184029455Y-195593328D02*
X184172313Y-195664757D01*
X186029455Y-195807614D02*
X186529455Y-195807614D01*
X186743741Y-196593328D02*
X186029455Y-196593328D01*
X186029455Y-196593328D02*
X186029455Y-195093328D01*
X186029455Y-195093328D02*
X186743741Y-195093328D01*
X187386598Y-196450471D02*
X187458027Y-196521900D01*
X187458027Y-196521900D02*
X187386598Y-196593328D01*
X187386598Y-196593328D02*
X187315170Y-196521900D01*
X187315170Y-196521900D02*
X187386598Y-196450471D01*
X187386598Y-196450471D02*
X187386598Y-196593328D01*
X188100884Y-196593328D02*
X188100884Y-195093328D01*
X188100884Y-195093328D02*
X188458027Y-195093328D01*
X188458027Y-195093328D02*
X188672313Y-195164757D01*
X188672313Y-195164757D02*
X188815170Y-195307614D01*
X188815170Y-195307614D02*
X188886599Y-195450471D01*
X188886599Y-195450471D02*
X188958027Y-195736185D01*
X188958027Y-195736185D02*
X188958027Y-195950471D01*
X188958027Y-195950471D02*
X188886599Y-196236185D01*
X188886599Y-196236185D02*
X188815170Y-196379042D01*
X188815170Y-196379042D02*
X188672313Y-196521900D01*
X188672313Y-196521900D02*
X188458027Y-196593328D01*
X188458027Y-196593328D02*
X188100884Y-196593328D01*
X189600884Y-196450471D02*
X189672313Y-196521900D01*
X189672313Y-196521900D02*
X189600884Y-196593328D01*
X189600884Y-196593328D02*
X189529456Y-196521900D01*
X189529456Y-196521900D02*
X189600884Y-196450471D01*
X189600884Y-196450471D02*
X189600884Y-196593328D01*
X190243742Y-196164757D02*
X190958028Y-196164757D01*
X190100885Y-196593328D02*
X190600885Y-195093328D01*
X190600885Y-195093328D02*
X191100885Y-196593328D01*
X191600884Y-196450471D02*
X191672313Y-196521900D01*
X191672313Y-196521900D02*
X191600884Y-196593328D01*
X191600884Y-196593328D02*
X191529456Y-196521900D01*
X191529456Y-196521900D02*
X191600884Y-196450471D01*
X191600884Y-196450471D02*
X191600884Y-196593328D01*
X193529456Y-196593328D02*
X193815170Y-196593328D01*
X193815170Y-196593328D02*
X193958027Y-196521900D01*
X193958027Y-196521900D02*
X194029456Y-196450471D01*
X194029456Y-196450471D02*
X194172313Y-196236185D01*
X194172313Y-196236185D02*
X194243742Y-195950471D01*
X194243742Y-195950471D02*
X194243742Y-195379042D01*
X194243742Y-195379042D02*
X194172313Y-195236185D01*
X194172313Y-195236185D02*
X194100885Y-195164757D01*
X194100885Y-195164757D02*
X193958027Y-195093328D01*
X193958027Y-195093328D02*
X193672313Y-195093328D01*
X193672313Y-195093328D02*
X193529456Y-195164757D01*
X193529456Y-195164757D02*
X193458027Y-195236185D01*
X193458027Y-195236185D02*
X193386599Y-195379042D01*
X193386599Y-195379042D02*
X193386599Y-195736185D01*
X193386599Y-195736185D02*
X193458027Y-195879042D01*
X193458027Y-195879042D02*
X193529456Y-195950471D01*
X193529456Y-195950471D02*
X193672313Y-196021900D01*
X193672313Y-196021900D02*
X193958027Y-196021900D01*
X193958027Y-196021900D02*
X194100885Y-195950471D01*
X194100885Y-195950471D02*
X194172313Y-195879042D01*
X194172313Y-195879042D02*
X194243742Y-195736185D01*
X194886598Y-196450471D02*
X194958027Y-196521900D01*
X194958027Y-196521900D02*
X194886598Y-196593328D01*
X194886598Y-196593328D02*
X194815170Y-196521900D01*
X194815170Y-196521900D02*
X194886598Y-196450471D01*
X194886598Y-196450471D02*
X194886598Y-196593328D01*
X195886599Y-195093328D02*
X196029456Y-195093328D01*
X196029456Y-195093328D02*
X196172313Y-195164757D01*
X196172313Y-195164757D02*
X196243742Y-195236185D01*
X196243742Y-195236185D02*
X196315170Y-195379042D01*
X196315170Y-195379042D02*
X196386599Y-195664757D01*
X196386599Y-195664757D02*
X196386599Y-196021900D01*
X196386599Y-196021900D02*
X196315170Y-196307614D01*
X196315170Y-196307614D02*
X196243742Y-196450471D01*
X196243742Y-196450471D02*
X196172313Y-196521900D01*
X196172313Y-196521900D02*
X196029456Y-196593328D01*
X196029456Y-196593328D02*
X195886599Y-196593328D01*
X195886599Y-196593328D02*
X195743742Y-196521900D01*
X195743742Y-196521900D02*
X195672313Y-196450471D01*
X195672313Y-196450471D02*
X195600884Y-196307614D01*
X195600884Y-196307614D02*
X195529456Y-196021900D01*
X195529456Y-196021900D02*
X195529456Y-195664757D01*
X195529456Y-195664757D02*
X195600884Y-195379042D01*
X195600884Y-195379042D02*
X195672313Y-195236185D01*
X195672313Y-195236185D02*
X195743742Y-195164757D01*
X195743742Y-195164757D02*
X195886599Y-195093328D01*
X197029455Y-196450471D02*
X197100884Y-196521900D01*
X197100884Y-196521900D02*
X197029455Y-196593328D01*
X197029455Y-196593328D02*
X196958027Y-196521900D01*
X196958027Y-196521900D02*
X197029455Y-196450471D01*
X197029455Y-196450471D02*
X197029455Y-196593328D01*
X197600884Y-195093328D02*
X198600884Y-195093328D01*
X198600884Y-195093328D02*
X197958027Y-196593328D01*
D10*
D11*
X177002200Y-191507200D02*
X285002200Y-191507200D01*
D10*
D12*
X264413853Y-193785528D02*
X263913853Y-193071242D01*
X263556710Y-193785528D02*
X263556710Y-192285528D01*
X263556710Y-192285528D02*
X264128139Y-192285528D01*
X264128139Y-192285528D02*
X264270996Y-192356957D01*
X264270996Y-192356957D02*
X264342425Y-192428385D01*
X264342425Y-192428385D02*
X264413853Y-192571242D01*
X264413853Y-192571242D02*
X264413853Y-192785528D01*
X264413853Y-192785528D02*
X264342425Y-192928385D01*
X264342425Y-192928385D02*
X264270996Y-192999814D01*
X264270996Y-192999814D02*
X264128139Y-193071242D01*
X264128139Y-193071242D02*
X263556710Y-193071242D01*
X265628139Y-193714100D02*
X265485282Y-193785528D01*
X265485282Y-193785528D02*
X265199568Y-193785528D01*
X265199568Y-193785528D02*
X265056710Y-193714100D01*
X265056710Y-193714100D02*
X264985282Y-193571242D01*
X264985282Y-193571242D02*
X264985282Y-192999814D01*
X264985282Y-192999814D02*
X265056710Y-192856957D01*
X265056710Y-192856957D02*
X265199568Y-192785528D01*
X265199568Y-192785528D02*
X265485282Y-192785528D01*
X265485282Y-192785528D02*
X265628139Y-192856957D01*
X265628139Y-192856957D02*
X265699568Y-192999814D01*
X265699568Y-192999814D02*
X265699568Y-193142671D01*
X265699568Y-193142671D02*
X264985282Y-193285528D01*
X266199567Y-192785528D02*
X266556710Y-193785528D01*
X266556710Y-193785528D02*
X266913853Y-192785528D01*
X267485281Y-193642671D02*
X267556710Y-193714100D01*
X267556710Y-193714100D02*
X267485281Y-193785528D01*
X267485281Y-193785528D02*
X267413853Y-193714100D01*
X267413853Y-193714100D02*
X267485281Y-193642671D01*
X267485281Y-193642671D02*
X267485281Y-193785528D01*
X267485281Y-192856957D02*
X267556710Y-192928385D01*
X267556710Y-192928385D02*
X267485281Y-192999814D01*
X267485281Y-192999814D02*
X267413853Y-192928385D01*
X267413853Y-192928385D02*
X267485281Y-192856957D01*
X267485281Y-192856957D02*
X267485281Y-192999814D01*
X269985282Y-192785528D02*
X269985282Y-193785528D01*
X269628139Y-192214100D02*
X269270996Y-193285528D01*
X269270996Y-193285528D02*
X270199567Y-193285528D01*
X270770995Y-193642671D02*
X270842424Y-193714100D01*
X270842424Y-193714100D02*
X270770995Y-193785528D01*
X270770995Y-193785528D02*
X270699567Y-193714100D01*
X270699567Y-193714100D02*
X270770995Y-193642671D01*
X270770995Y-193642671D02*
X270770995Y-193785528D01*
X271413853Y-192428385D02*
X271485281Y-192356957D01*
X271485281Y-192356957D02*
X271628139Y-192285528D01*
X271628139Y-192285528D02*
X271985281Y-192285528D01*
X271985281Y-192285528D02*
X272128139Y-192356957D01*
X272128139Y-192356957D02*
X272199567Y-192428385D01*
X272199567Y-192428385D02*
X272270996Y-192571242D01*
X272270996Y-192571242D02*
X272270996Y-192714100D01*
X272270996Y-192714100D02*
X272199567Y-192928385D01*
X272199567Y-192928385D02*
X271342424Y-193785528D01*
X271342424Y-193785528D02*
X272270996Y-193785528D01*
D10*
D11*
X178386598Y-193721900D02*
X178600884Y-193793328D01*
X178600884Y-193793328D02*
X178958026Y-193793328D01*
X178958026Y-193793328D02*
X179100884Y-193721900D01*
X179100884Y-193721900D02*
X179172312Y-193650471D01*
X179172312Y-193650471D02*
X179243741Y-193507614D01*
X179243741Y-193507614D02*
X179243741Y-193364757D01*
X179243741Y-193364757D02*
X179172312Y-193221900D01*
X179172312Y-193221900D02*
X179100884Y-193150471D01*
X179100884Y-193150471D02*
X178958026Y-193079042D01*
X178958026Y-193079042D02*
X178672312Y-193007614D01*
X178672312Y-193007614D02*
X178529455Y-192936185D01*
X178529455Y-192936185D02*
X178458026Y-192864757D01*
X178458026Y-192864757D02*
X178386598Y-192721900D01*
X178386598Y-192721900D02*
X178386598Y-192579042D01*
X178386598Y-192579042D02*
X178458026Y-192436185D01*
X178458026Y-192436185D02*
X178529455Y-192364757D01*
X178529455Y-192364757D02*
X178672312Y-192293328D01*
X178672312Y-192293328D02*
X179029455Y-192293328D01*
X179029455Y-192293328D02*
X179243741Y-192364757D01*
X179886597Y-193793328D02*
X179886597Y-192793328D01*
X179886597Y-192293328D02*
X179815169Y-192364757D01*
X179815169Y-192364757D02*
X179886597Y-192436185D01*
X179886597Y-192436185D02*
X179958026Y-192364757D01*
X179958026Y-192364757D02*
X179886597Y-192293328D01*
X179886597Y-192293328D02*
X179886597Y-192436185D01*
X180458026Y-192793328D02*
X181243741Y-192793328D01*
X181243741Y-192793328D02*
X180458026Y-193793328D01*
X180458026Y-193793328D02*
X181243741Y-193793328D01*
X182386598Y-193721900D02*
X182243741Y-193793328D01*
X182243741Y-193793328D02*
X181958027Y-193793328D01*
X181958027Y-193793328D02*
X181815169Y-193721900D01*
X181815169Y-193721900D02*
X181743741Y-193579042D01*
X181743741Y-193579042D02*
X181743741Y-193007614D01*
X181743741Y-193007614D02*
X181815169Y-192864757D01*
X181815169Y-192864757D02*
X181958027Y-192793328D01*
X181958027Y-192793328D02*
X182243741Y-192793328D01*
X182243741Y-192793328D02*
X182386598Y-192864757D01*
X182386598Y-192864757D02*
X182458027Y-193007614D01*
X182458027Y-193007614D02*
X182458027Y-193150471D01*
X182458027Y-193150471D02*
X181743741Y-193293328D01*
X183100883Y-193650471D02*
X183172312Y-193721900D01*
X183172312Y-193721900D02*
X183100883Y-193793328D01*
X183100883Y-193793328D02*
X183029455Y-193721900D01*
X183029455Y-193721900D02*
X183100883Y-193650471D01*
X183100883Y-193650471D02*
X183100883Y-193793328D01*
X183100883Y-192864757D02*
X183172312Y-192936185D01*
X183172312Y-192936185D02*
X183100883Y-193007614D01*
X183100883Y-193007614D02*
X183029455Y-192936185D01*
X183029455Y-192936185D02*
X183100883Y-192864757D01*
X183100883Y-192864757D02*
X183100883Y-193007614D01*
X184886598Y-193364757D02*
X185600884Y-193364757D01*
X184743741Y-193793328D02*
X185243741Y-192293328D01*
X185243741Y-192293328D02*
X185743741Y-193793328D01*
X186886598Y-192793328D02*
X186886598Y-193793328D01*
X186529455Y-192221900D02*
X186172312Y-193293328D01*
X186172312Y-193293328D02*
X187100883Y-193293328D01*
D10*
D11*
X263458026Y-196593328D02*
X263458026Y-195093328D01*
X264815170Y-196593328D02*
X264815170Y-195093328D01*
X264815170Y-196521900D02*
X264672312Y-196593328D01*
X264672312Y-196593328D02*
X264386598Y-196593328D01*
X264386598Y-196593328D02*
X264243741Y-196521900D01*
X264243741Y-196521900D02*
X264172312Y-196450471D01*
X264172312Y-196450471D02*
X264100884Y-196307614D01*
X264100884Y-196307614D02*
X264100884Y-195879042D01*
X264100884Y-195879042D02*
X264172312Y-195736185D01*
X264172312Y-195736185D02*
X264243741Y-195664757D01*
X264243741Y-195664757D02*
X264386598Y-195593328D01*
X264386598Y-195593328D02*
X264672312Y-195593328D01*
X264672312Y-195593328D02*
X264815170Y-195664757D01*
X265529455Y-196450471D02*
X265600884Y-196521900D01*
X265600884Y-196521900D02*
X265529455Y-196593328D01*
X265529455Y-196593328D02*
X265458027Y-196521900D01*
X265458027Y-196521900D02*
X265529455Y-196450471D01*
X265529455Y-196450471D02*
X265529455Y-196593328D01*
X265529455Y-195664757D02*
X265600884Y-195736185D01*
X265600884Y-195736185D02*
X265529455Y-195807614D01*
X265529455Y-195807614D02*
X265458027Y-195736185D01*
X265458027Y-195736185D02*
X265529455Y-195664757D01*
X265529455Y-195664757D02*
X265529455Y-195807614D01*
X267243741Y-195093328D02*
X268243741Y-195093328D01*
X268243741Y-195093328D02*
X267600884Y-196593328D01*
X269886598Y-195021900D02*
X268600884Y-196950471D01*
X271172313Y-196593328D02*
X270315170Y-196593328D01*
X270743741Y-196593328D02*
X270743741Y-195093328D01*
X270743741Y-195093328D02*
X270600884Y-195307614D01*
X270600884Y-195307614D02*
X270458027Y-195450471D01*
X270458027Y-195450471D02*
X270315170Y-195521900D01*
X271672312Y-195093328D02*
X272600884Y-195093328D01*
X272600884Y-195093328D02*
X272100884Y-195664757D01*
X272100884Y-195664757D02*
X272315169Y-195664757D01*
X272315169Y-195664757D02*
X272458027Y-195736185D01*
X272458027Y-195736185D02*
X272529455Y-195807614D01*
X272529455Y-195807614D02*
X272600884Y-195950471D01*
X272600884Y-195950471D02*
X272600884Y-196307614D01*
X272600884Y-196307614D02*
X272529455Y-196450471D01*
X272529455Y-196450471D02*
X272458027Y-196521900D01*
X272458027Y-196521900D02*
X272315169Y-196593328D01*
X272315169Y-196593328D02*
X271886598Y-196593328D01*
X271886598Y-196593328D02*
X271743741Y-196521900D01*
X271743741Y-196521900D02*
X271672312Y-196450471D01*
D10*
D11*
X177002200Y-187507200D02*
X285002200Y-187507200D01*
D10*
D13*
X178693928Y-188211638D02*
X179836785Y-188211638D01*
X179015357Y-190211638D02*
X179265357Y-188211638D01*
X180253452Y-190211638D02*
X180420119Y-188878304D01*
X180503452Y-188211638D02*
X180396309Y-188306876D01*
X180396309Y-188306876D02*
X180479643Y-188402114D01*
X180479643Y-188402114D02*
X180586786Y-188306876D01*
X180586786Y-188306876D02*
X180503452Y-188211638D01*
X180503452Y-188211638D02*
X180479643Y-188402114D01*
X181086786Y-188878304D02*
X181848690Y-188878304D01*
X181455833Y-188211638D02*
X181241548Y-189925923D01*
X181241548Y-189925923D02*
X181312976Y-190116400D01*
X181312976Y-190116400D02*
X181491548Y-190211638D01*
X181491548Y-190211638D02*
X181682024Y-190211638D01*
X182634405Y-190211638D02*
X182455833Y-190116400D01*
X182455833Y-190116400D02*
X182384405Y-189925923D01*
X182384405Y-189925923D02*
X182598690Y-188211638D01*
X184170119Y-190116400D02*
X183967738Y-190211638D01*
X183967738Y-190211638D02*
X183586785Y-190211638D01*
X183586785Y-190211638D02*
X183408214Y-190116400D01*
X183408214Y-190116400D02*
X183336785Y-189925923D01*
X183336785Y-189925923D02*
X183432024Y-189164019D01*
X183432024Y-189164019D02*
X183551071Y-188973542D01*
X183551071Y-188973542D02*
X183753452Y-188878304D01*
X183753452Y-188878304D02*
X184134404Y-188878304D01*
X184134404Y-188878304D02*
X184312976Y-188973542D01*
X184312976Y-188973542D02*
X184384404Y-189164019D01*
X184384404Y-189164019D02*
X184360595Y-189354495D01*
X184360595Y-189354495D02*
X183384404Y-189544971D01*
X185134405Y-190021161D02*
X185217738Y-190116400D01*
X185217738Y-190116400D02*
X185110595Y-190211638D01*
X185110595Y-190211638D02*
X185027262Y-190116400D01*
X185027262Y-190116400D02*
X185134405Y-190021161D01*
X185134405Y-190021161D02*
X185110595Y-190211638D01*
X185265357Y-188973542D02*
X185348690Y-189068780D01*
X185348690Y-189068780D02*
X185241548Y-189164019D01*
X185241548Y-189164019D02*
X185158214Y-189068780D01*
X185158214Y-189068780D02*
X185265357Y-188973542D01*
X185265357Y-188973542D02*
X185241548Y-189164019D01*
X187551072Y-188211638D02*
X188693929Y-188211638D01*
X187872501Y-190211638D02*
X188122501Y-188211638D01*
X189396311Y-190211638D02*
X189217739Y-190116400D01*
X189217739Y-190116400D02*
X189134406Y-190021161D01*
X189134406Y-190021161D02*
X189062977Y-189830685D01*
X189062977Y-189830685D02*
X189134406Y-189259257D01*
X189134406Y-189259257D02*
X189253453Y-189068780D01*
X189253453Y-189068780D02*
X189360596Y-188973542D01*
X189360596Y-188973542D02*
X189562977Y-188878304D01*
X189562977Y-188878304D02*
X189848691Y-188878304D01*
X189848691Y-188878304D02*
X190027263Y-188973542D01*
X190027263Y-188973542D02*
X190110596Y-189068780D01*
X190110596Y-189068780D02*
X190182025Y-189259257D01*
X190182025Y-189259257D02*
X190110596Y-189830685D01*
X190110596Y-189830685D02*
X189991549Y-190021161D01*
X189991549Y-190021161D02*
X189884406Y-190116400D01*
X189884406Y-190116400D02*
X189682025Y-190211638D01*
X189682025Y-190211638D02*
X189396311Y-190211638D01*
X190729644Y-190211638D02*
X191943930Y-188878304D01*
X190896311Y-188878304D02*
X191777263Y-190211638D01*
X192539168Y-190211638D02*
X192705835Y-188878304D01*
X192789168Y-188211638D02*
X192682025Y-188306876D01*
X192682025Y-188306876D02*
X192765359Y-188402114D01*
X192765359Y-188402114D02*
X192872502Y-188306876D01*
X192872502Y-188306876D02*
X192789168Y-188211638D01*
X192789168Y-188211638D02*
X192765359Y-188402114D01*
X194360597Y-190116400D02*
X194158216Y-190211638D01*
X194158216Y-190211638D02*
X193777264Y-190211638D01*
X193777264Y-190211638D02*
X193598692Y-190116400D01*
X193598692Y-190116400D02*
X193515359Y-190021161D01*
X193515359Y-190021161D02*
X193443930Y-189830685D01*
X193443930Y-189830685D02*
X193515359Y-189259257D01*
X193515359Y-189259257D02*
X193634406Y-189068780D01*
X193634406Y-189068780D02*
X193741549Y-188973542D01*
X193741549Y-188973542D02*
X193943930Y-188878304D01*
X193943930Y-188878304D02*
X194324883Y-188878304D01*
X194324883Y-188878304D02*
X194503454Y-188973542D01*
X194705835Y-190402114D02*
X196229645Y-190402114D01*
X196729645Y-190211638D02*
X196979645Y-188211638D01*
X196979645Y-188211638D02*
X197455836Y-188211638D01*
X197455836Y-188211638D02*
X197729645Y-188306876D01*
X197729645Y-188306876D02*
X197896312Y-188497352D01*
X197896312Y-188497352D02*
X197967740Y-188687828D01*
X197967740Y-188687828D02*
X198015360Y-189068780D01*
X198015360Y-189068780D02*
X197979645Y-189354495D01*
X197979645Y-189354495D02*
X197836788Y-189735447D01*
X197836788Y-189735447D02*
X197717740Y-189925923D01*
X197717740Y-189925923D02*
X197503455Y-190116400D01*
X197503455Y-190116400D02*
X197205836Y-190211638D01*
X197205836Y-190211638D02*
X196729645Y-190211638D01*
X199503455Y-190116400D02*
X199301074Y-190211638D01*
X199301074Y-190211638D02*
X198920121Y-190211638D01*
X198920121Y-190211638D02*
X198741550Y-190116400D01*
X198741550Y-190116400D02*
X198670121Y-189925923D01*
X198670121Y-189925923D02*
X198765360Y-189164019D01*
X198765360Y-189164019D02*
X198884407Y-188973542D01*
X198884407Y-188973542D02*
X199086788Y-188878304D01*
X199086788Y-188878304D02*
X199467740Y-188878304D01*
X199467740Y-188878304D02*
X199646312Y-188973542D01*
X199646312Y-188973542D02*
X199717740Y-189164019D01*
X199717740Y-189164019D02*
X199693931Y-189354495D01*
X199693931Y-189354495D02*
X198717740Y-189544971D01*
X200324884Y-188878304D02*
X201086788Y-188878304D01*
X200693931Y-188211638D02*
X200479646Y-189925923D01*
X200479646Y-189925923D02*
X200551074Y-190116400D01*
X200551074Y-190116400D02*
X200729646Y-190211638D01*
X200729646Y-190211638D02*
X200920122Y-190211638D01*
X202360598Y-190116400D02*
X202158217Y-190211638D01*
X202158217Y-190211638D02*
X201777264Y-190211638D01*
X201777264Y-190211638D02*
X201598693Y-190116400D01*
X201598693Y-190116400D02*
X201527264Y-189925923D01*
X201527264Y-189925923D02*
X201622503Y-189164019D01*
X201622503Y-189164019D02*
X201741550Y-188973542D01*
X201741550Y-188973542D02*
X201943931Y-188878304D01*
X201943931Y-188878304D02*
X202324883Y-188878304D01*
X202324883Y-188878304D02*
X202503455Y-188973542D01*
X202503455Y-188973542D02*
X202574883Y-189164019D01*
X202574883Y-189164019D02*
X202551074Y-189354495D01*
X202551074Y-189354495D02*
X201574883Y-189544971D01*
X204170122Y-190116400D02*
X203967741Y-190211638D01*
X203967741Y-190211638D02*
X203586789Y-190211638D01*
X203586789Y-190211638D02*
X203408217Y-190116400D01*
X203408217Y-190116400D02*
X203324884Y-190021161D01*
X203324884Y-190021161D02*
X203253455Y-189830685D01*
X203253455Y-189830685D02*
X203324884Y-189259257D01*
X203324884Y-189259257D02*
X203443931Y-189068780D01*
X203443931Y-189068780D02*
X203551074Y-188973542D01*
X203551074Y-188973542D02*
X203753455Y-188878304D01*
X203753455Y-188878304D02*
X204134408Y-188878304D01*
X204134408Y-188878304D02*
X204312979Y-188973542D01*
X204896313Y-188878304D02*
X205658217Y-188878304D01*
X205265360Y-188211638D02*
X205051075Y-189925923D01*
X205051075Y-189925923D02*
X205122503Y-190116400D01*
X205122503Y-190116400D02*
X205301075Y-190211638D01*
X205301075Y-190211638D02*
X205491551Y-190211638D01*
X206158217Y-190211638D02*
X206324884Y-188878304D01*
X206408217Y-188211638D02*
X206301074Y-188306876D01*
X206301074Y-188306876D02*
X206384408Y-188402114D01*
X206384408Y-188402114D02*
X206491551Y-188306876D01*
X206491551Y-188306876D02*
X206408217Y-188211638D01*
X206408217Y-188211638D02*
X206384408Y-188402114D01*
X207396313Y-190211638D02*
X207217741Y-190116400D01*
X207217741Y-190116400D02*
X207134408Y-190021161D01*
X207134408Y-190021161D02*
X207062979Y-189830685D01*
X207062979Y-189830685D02*
X207134408Y-189259257D01*
X207134408Y-189259257D02*
X207253455Y-189068780D01*
X207253455Y-189068780D02*
X207360598Y-188973542D01*
X207360598Y-188973542D02*
X207562979Y-188878304D01*
X207562979Y-188878304D02*
X207848693Y-188878304D01*
X207848693Y-188878304D02*
X208027265Y-188973542D01*
X208027265Y-188973542D02*
X208110598Y-189068780D01*
X208110598Y-189068780D02*
X208182027Y-189259257D01*
X208182027Y-189259257D02*
X208110598Y-189830685D01*
X208110598Y-189830685D02*
X207991551Y-190021161D01*
X207991551Y-190021161D02*
X207884408Y-190116400D01*
X207884408Y-190116400D02*
X207682027Y-190211638D01*
X207682027Y-190211638D02*
X207396313Y-190211638D01*
X209086789Y-188878304D02*
X208920122Y-190211638D01*
X209062979Y-189068780D02*
X209170122Y-188973542D01*
X209170122Y-188973542D02*
X209372503Y-188878304D01*
X209372503Y-188878304D02*
X209658217Y-188878304D01*
X209658217Y-188878304D02*
X209836789Y-188973542D01*
X209836789Y-188973542D02*
X209908217Y-189164019D01*
X209908217Y-189164019D02*
X209777265Y-190211638D01*
X210229646Y-190402114D02*
X211753456Y-190402114D01*
X212253456Y-190211638D02*
X212503456Y-188211638D01*
X212503456Y-188211638D02*
X213265361Y-188211638D01*
X213265361Y-188211638D02*
X213443932Y-188306876D01*
X213443932Y-188306876D02*
X213527266Y-188402114D01*
X213527266Y-188402114D02*
X213598694Y-188592590D01*
X213598694Y-188592590D02*
X213562980Y-188878304D01*
X213562980Y-188878304D02*
X213443932Y-189068780D01*
X213443932Y-189068780D02*
X213336790Y-189164019D01*
X213336790Y-189164019D02*
X213134409Y-189259257D01*
X213134409Y-189259257D02*
X212372504Y-189259257D01*
X215420123Y-190021161D02*
X215312980Y-190116400D01*
X215312980Y-190116400D02*
X215015361Y-190211638D01*
X215015361Y-190211638D02*
X214824885Y-190211638D01*
X214824885Y-190211638D02*
X214551075Y-190116400D01*
X214551075Y-190116400D02*
X214384409Y-189925923D01*
X214384409Y-189925923D02*
X214312980Y-189735447D01*
X214312980Y-189735447D02*
X214265361Y-189354495D01*
X214265361Y-189354495D02*
X214301075Y-189068780D01*
X214301075Y-189068780D02*
X214443932Y-188687828D01*
X214443932Y-188687828D02*
X214562980Y-188497352D01*
X214562980Y-188497352D02*
X214777266Y-188306876D01*
X214777266Y-188306876D02*
X215074885Y-188211638D01*
X215074885Y-188211638D02*
X215265361Y-188211638D01*
X215265361Y-188211638D02*
X215539171Y-188306876D01*
X215539171Y-188306876D02*
X215622504Y-188402114D01*
X217051075Y-189164019D02*
X217324885Y-189259257D01*
X217324885Y-189259257D02*
X217408218Y-189354495D01*
X217408218Y-189354495D02*
X217479647Y-189544971D01*
X217479647Y-189544971D02*
X217443932Y-189830685D01*
X217443932Y-189830685D02*
X217324885Y-190021161D01*
X217324885Y-190021161D02*
X217217742Y-190116400D01*
X217217742Y-190116400D02*
X217015361Y-190211638D01*
X217015361Y-190211638D02*
X216253456Y-190211638D01*
X216253456Y-190211638D02*
X216503456Y-188211638D01*
X216503456Y-188211638D02*
X217170123Y-188211638D01*
X217170123Y-188211638D02*
X217348694Y-188306876D01*
X217348694Y-188306876D02*
X217432028Y-188402114D01*
X217432028Y-188402114D02*
X217503456Y-188592590D01*
X217503456Y-188592590D02*
X217479647Y-188783066D01*
X217479647Y-188783066D02*
X217360599Y-188973542D01*
X217360599Y-188973542D02*
X217253456Y-189068780D01*
X217253456Y-189068780D02*
X217051075Y-189164019D01*
X217051075Y-189164019D02*
X216384409Y-189164019D01*
D10*
D11*
X178958026Y-185607614D02*
X178458026Y-185607614D01*
X178458026Y-186393328D02*
X178458026Y-184893328D01*
X178458026Y-184893328D02*
X179172312Y-184893328D01*
X179743740Y-186393328D02*
X179743740Y-185393328D01*
X179743740Y-184893328D02*
X179672312Y-184964757D01*
X179672312Y-184964757D02*
X179743740Y-185036185D01*
X179743740Y-185036185D02*
X179815169Y-184964757D01*
X179815169Y-184964757D02*
X179743740Y-184893328D01*
X179743740Y-184893328D02*
X179743740Y-185036185D01*
X180672312Y-186393328D02*
X180529455Y-186321900D01*
X180529455Y-186321900D02*
X180458026Y-186179042D01*
X180458026Y-186179042D02*
X180458026Y-184893328D01*
X181815169Y-186321900D02*
X181672312Y-186393328D01*
X181672312Y-186393328D02*
X181386598Y-186393328D01*
X181386598Y-186393328D02*
X181243740Y-186321900D01*
X181243740Y-186321900D02*
X181172312Y-186179042D01*
X181172312Y-186179042D02*
X181172312Y-185607614D01*
X181172312Y-185607614D02*
X181243740Y-185464757D01*
X181243740Y-185464757D02*
X181386598Y-185393328D01*
X181386598Y-185393328D02*
X181672312Y-185393328D01*
X181672312Y-185393328D02*
X181815169Y-185464757D01*
X181815169Y-185464757D02*
X181886598Y-185607614D01*
X181886598Y-185607614D02*
X181886598Y-185750471D01*
X181886598Y-185750471D02*
X181172312Y-185893328D01*
X182529454Y-186250471D02*
X182600883Y-186321900D01*
X182600883Y-186321900D02*
X182529454Y-186393328D01*
X182529454Y-186393328D02*
X182458026Y-186321900D01*
X182458026Y-186321900D02*
X182529454Y-186250471D01*
X182529454Y-186250471D02*
X182529454Y-186393328D01*
X182529454Y-185464757D02*
X182600883Y-185536185D01*
X182600883Y-185536185D02*
X182529454Y-185607614D01*
X182529454Y-185607614D02*
X182458026Y-185536185D01*
X182458026Y-185536185D02*
X182529454Y-185464757D01*
X182529454Y-185464757D02*
X182529454Y-185607614D01*
X184172312Y-184893328D02*
X185029455Y-184893328D01*
X184600883Y-186393328D02*
X184600883Y-184893328D01*
X185743740Y-186393328D02*
X185600883Y-186321900D01*
X185600883Y-186321900D02*
X185529454Y-186250471D01*
X185529454Y-186250471D02*
X185458026Y-186107614D01*
X185458026Y-186107614D02*
X185458026Y-185679042D01*
X185458026Y-185679042D02*
X185529454Y-185536185D01*
X185529454Y-185536185D02*
X185600883Y-185464757D01*
X185600883Y-185464757D02*
X185743740Y-185393328D01*
X185743740Y-185393328D02*
X185958026Y-185393328D01*
X185958026Y-185393328D02*
X186100883Y-185464757D01*
X186100883Y-185464757D02*
X186172312Y-185536185D01*
X186172312Y-185536185D02*
X186243740Y-185679042D01*
X186243740Y-185679042D02*
X186243740Y-186107614D01*
X186243740Y-186107614D02*
X186172312Y-186250471D01*
X186172312Y-186250471D02*
X186100883Y-186321900D01*
X186100883Y-186321900D02*
X185958026Y-186393328D01*
X185958026Y-186393328D02*
X185743740Y-186393328D01*
X186743740Y-186393328D02*
X187529455Y-185393328D01*
X186743740Y-185393328D02*
X187529455Y-186393328D01*
X188100883Y-186393328D02*
X188100883Y-185393328D01*
X188100883Y-184893328D02*
X188029455Y-184964757D01*
X188029455Y-184964757D02*
X188100883Y-185036185D01*
X188100883Y-185036185D02*
X188172312Y-184964757D01*
X188172312Y-184964757D02*
X188100883Y-184893328D01*
X188100883Y-184893328D02*
X188100883Y-185036185D01*
X189458027Y-186321900D02*
X189315169Y-186393328D01*
X189315169Y-186393328D02*
X189029455Y-186393328D01*
X189029455Y-186393328D02*
X188886598Y-186321900D01*
X188886598Y-186321900D02*
X188815169Y-186250471D01*
X188815169Y-186250471D02*
X188743741Y-186107614D01*
X188743741Y-186107614D02*
X188743741Y-185679042D01*
X188743741Y-185679042D02*
X188815169Y-185536185D01*
X188815169Y-185536185D02*
X188886598Y-185464757D01*
X188886598Y-185464757D02*
X189029455Y-185393328D01*
X189029455Y-185393328D02*
X189315169Y-185393328D01*
X189315169Y-185393328D02*
X189458027Y-185464757D01*
X189743741Y-186536185D02*
X190886598Y-186536185D01*
X191243740Y-186393328D02*
X191243740Y-184893328D01*
X191243740Y-184893328D02*
X191600883Y-184893328D01*
X191600883Y-184893328D02*
X191815169Y-184964757D01*
X191815169Y-184964757D02*
X191958026Y-185107614D01*
X191958026Y-185107614D02*
X192029455Y-185250471D01*
X192029455Y-185250471D02*
X192100883Y-185536185D01*
X192100883Y-185536185D02*
X192100883Y-185750471D01*
X192100883Y-185750471D02*
X192029455Y-186036185D01*
X192029455Y-186036185D02*
X191958026Y-186179042D01*
X191958026Y-186179042D02*
X191815169Y-186321900D01*
X191815169Y-186321900D02*
X191600883Y-186393328D01*
X191600883Y-186393328D02*
X191243740Y-186393328D01*
X193315169Y-186321900D02*
X193172312Y-186393328D01*
X193172312Y-186393328D02*
X192886598Y-186393328D01*
X192886598Y-186393328D02*
X192743740Y-186321900D01*
X192743740Y-186321900D02*
X192672312Y-186179042D01*
X192672312Y-186179042D02*
X192672312Y-185607614D01*
X192672312Y-185607614D02*
X192743740Y-185464757D01*
X192743740Y-185464757D02*
X192886598Y-185393328D01*
X192886598Y-185393328D02*
X193172312Y-185393328D01*
X193172312Y-185393328D02*
X193315169Y-185464757D01*
X193315169Y-185464757D02*
X193386598Y-185607614D01*
X193386598Y-185607614D02*
X193386598Y-185750471D01*
X193386598Y-185750471D02*
X192672312Y-185893328D01*
X193815169Y-185393328D02*
X194386597Y-185393328D01*
X194029454Y-184893328D02*
X194029454Y-186179042D01*
X194029454Y-186179042D02*
X194100883Y-186321900D01*
X194100883Y-186321900D02*
X194243740Y-186393328D01*
X194243740Y-186393328D02*
X194386597Y-186393328D01*
X195458026Y-186321900D02*
X195315169Y-186393328D01*
X195315169Y-186393328D02*
X195029455Y-186393328D01*
X195029455Y-186393328D02*
X194886597Y-186321900D01*
X194886597Y-186321900D02*
X194815169Y-186179042D01*
X194815169Y-186179042D02*
X194815169Y-185607614D01*
X194815169Y-185607614D02*
X194886597Y-185464757D01*
X194886597Y-185464757D02*
X195029455Y-185393328D01*
X195029455Y-185393328D02*
X195315169Y-185393328D01*
X195315169Y-185393328D02*
X195458026Y-185464757D01*
X195458026Y-185464757D02*
X195529455Y-185607614D01*
X195529455Y-185607614D02*
X195529455Y-185750471D01*
X195529455Y-185750471D02*
X194815169Y-185893328D01*
X196815169Y-186321900D02*
X196672311Y-186393328D01*
X196672311Y-186393328D02*
X196386597Y-186393328D01*
X196386597Y-186393328D02*
X196243740Y-186321900D01*
X196243740Y-186321900D02*
X196172311Y-186250471D01*
X196172311Y-186250471D02*
X196100883Y-186107614D01*
X196100883Y-186107614D02*
X196100883Y-185679042D01*
X196100883Y-185679042D02*
X196172311Y-185536185D01*
X196172311Y-185536185D02*
X196243740Y-185464757D01*
X196243740Y-185464757D02*
X196386597Y-185393328D01*
X196386597Y-185393328D02*
X196672311Y-185393328D01*
X196672311Y-185393328D02*
X196815169Y-185464757D01*
X197243740Y-185393328D02*
X197815168Y-185393328D01*
X197458025Y-184893328D02*
X197458025Y-186179042D01*
X197458025Y-186179042D02*
X197529454Y-186321900D01*
X197529454Y-186321900D02*
X197672311Y-186393328D01*
X197672311Y-186393328D02*
X197815168Y-186393328D01*
X198315168Y-186393328D02*
X198315168Y-185393328D01*
X198315168Y-184893328D02*
X198243740Y-184964757D01*
X198243740Y-184964757D02*
X198315168Y-185036185D01*
X198315168Y-185036185D02*
X198386597Y-184964757D01*
X198386597Y-184964757D02*
X198315168Y-184893328D01*
X198315168Y-184893328D02*
X198315168Y-185036185D01*
X199243740Y-186393328D02*
X199100883Y-186321900D01*
X199100883Y-186321900D02*
X199029454Y-186250471D01*
X199029454Y-186250471D02*
X198958026Y-186107614D01*
X198958026Y-186107614D02*
X198958026Y-185679042D01*
X198958026Y-185679042D02*
X199029454Y-185536185D01*
X199029454Y-185536185D02*
X199100883Y-185464757D01*
X199100883Y-185464757D02*
X199243740Y-185393328D01*
X199243740Y-185393328D02*
X199458026Y-185393328D01*
X199458026Y-185393328D02*
X199600883Y-185464757D01*
X199600883Y-185464757D02*
X199672312Y-185536185D01*
X199672312Y-185536185D02*
X199743740Y-185679042D01*
X199743740Y-185679042D02*
X199743740Y-186107614D01*
X199743740Y-186107614D02*
X199672312Y-186250471D01*
X199672312Y-186250471D02*
X199600883Y-186321900D01*
X199600883Y-186321900D02*
X199458026Y-186393328D01*
X199458026Y-186393328D02*
X199243740Y-186393328D01*
X200386597Y-185393328D02*
X200386597Y-186393328D01*
X200386597Y-185536185D02*
X200458026Y-185464757D01*
X200458026Y-185464757D02*
X200600883Y-185393328D01*
X200600883Y-185393328D02*
X200815169Y-185393328D01*
X200815169Y-185393328D02*
X200958026Y-185464757D01*
X200958026Y-185464757D02*
X201029455Y-185607614D01*
X201029455Y-185607614D02*
X201029455Y-186393328D01*
X201386598Y-186536185D02*
X202529455Y-186536185D01*
X202743740Y-185393328D02*
X203100883Y-186393328D01*
X203100883Y-186393328D02*
X203458026Y-185393328D01*
X204672312Y-185393328D02*
X204672312Y-186393328D01*
X204315169Y-184821900D02*
X203958026Y-185893328D01*
X203958026Y-185893328D02*
X204886597Y-185893328D01*
X205458025Y-186250471D02*
X205529454Y-186321900D01*
X205529454Y-186321900D02*
X205458025Y-186393328D01*
X205458025Y-186393328D02*
X205386597Y-186321900D01*
X205386597Y-186321900D02*
X205458025Y-186250471D01*
X205458025Y-186250471D02*
X205458025Y-186393328D01*
X206458026Y-184893328D02*
X206600883Y-184893328D01*
X206600883Y-184893328D02*
X206743740Y-184964757D01*
X206743740Y-184964757D02*
X206815169Y-185036185D01*
X206815169Y-185036185D02*
X206886597Y-185179042D01*
X206886597Y-185179042D02*
X206958026Y-185464757D01*
X206958026Y-185464757D02*
X206958026Y-185821900D01*
X206958026Y-185821900D02*
X206886597Y-186107614D01*
X206886597Y-186107614D02*
X206815169Y-186250471D01*
X206815169Y-186250471D02*
X206743740Y-186321900D01*
X206743740Y-186321900D02*
X206600883Y-186393328D01*
X206600883Y-186393328D02*
X206458026Y-186393328D01*
X206458026Y-186393328D02*
X206315169Y-186321900D01*
X206315169Y-186321900D02*
X206243740Y-186250471D01*
X206243740Y-186250471D02*
X206172311Y-186107614D01*
X206172311Y-186107614D02*
X206100883Y-185821900D01*
X206100883Y-185821900D02*
X206100883Y-185464757D01*
X206100883Y-185464757D02*
X206172311Y-185179042D01*
X206172311Y-185179042D02*
X206243740Y-185036185D01*
X206243740Y-185036185D02*
X206315169Y-184964757D01*
X206315169Y-184964757D02*
X206458026Y-184893328D01*
X207600882Y-186250471D02*
X207672311Y-186321900D01*
X207672311Y-186321900D02*
X207600882Y-186393328D01*
X207600882Y-186393328D02*
X207529454Y-186321900D01*
X207529454Y-186321900D02*
X207600882Y-186250471D01*
X207600882Y-186250471D02*
X207600882Y-186393328D01*
X208315168Y-186393328D02*
X208315168Y-184893328D01*
X208458026Y-185821900D02*
X208886597Y-186393328D01*
X208886597Y-185393328D02*
X208315168Y-185964757D01*
X209529454Y-186393328D02*
X209529454Y-185393328D01*
X209529454Y-184893328D02*
X209458026Y-184964757D01*
X209458026Y-184964757D02*
X209529454Y-185036185D01*
X209529454Y-185036185D02*
X209600883Y-184964757D01*
X209600883Y-184964757D02*
X209529454Y-184893328D01*
X209529454Y-184893328D02*
X209529454Y-185036185D01*
X210886598Y-186321900D02*
X210743740Y-186393328D01*
X210743740Y-186393328D02*
X210458026Y-186393328D01*
X210458026Y-186393328D02*
X210315169Y-186321900D01*
X210315169Y-186321900D02*
X210243740Y-186250471D01*
X210243740Y-186250471D02*
X210172312Y-186107614D01*
X210172312Y-186107614D02*
X210172312Y-185679042D01*
X210172312Y-185679042D02*
X210243740Y-185536185D01*
X210243740Y-185536185D02*
X210315169Y-185464757D01*
X210315169Y-185464757D02*
X210458026Y-185393328D01*
X210458026Y-185393328D02*
X210743740Y-185393328D01*
X210743740Y-185393328D02*
X210886598Y-185464757D01*
X212172312Y-186393328D02*
X212172312Y-185607614D01*
X212172312Y-185607614D02*
X212100883Y-185464757D01*
X212100883Y-185464757D02*
X211958026Y-185393328D01*
X211958026Y-185393328D02*
X211672312Y-185393328D01*
X211672312Y-185393328D02*
X211529454Y-185464757D01*
X212172312Y-186321900D02*
X212029454Y-186393328D01*
X212029454Y-186393328D02*
X211672312Y-186393328D01*
X211672312Y-186393328D02*
X211529454Y-186321900D01*
X211529454Y-186321900D02*
X211458026Y-186179042D01*
X211458026Y-186179042D02*
X211458026Y-186036185D01*
X211458026Y-186036185D02*
X211529454Y-185893328D01*
X211529454Y-185893328D02*
X211672312Y-185821900D01*
X211672312Y-185821900D02*
X212029454Y-185821900D01*
X212029454Y-185821900D02*
X212172312Y-185750471D01*
X213529455Y-186393328D02*
X213529455Y-184893328D01*
X213529455Y-186321900D02*
X213386597Y-186393328D01*
X213386597Y-186393328D02*
X213100883Y-186393328D01*
X213100883Y-186393328D02*
X212958026Y-186321900D01*
X212958026Y-186321900D02*
X212886597Y-186250471D01*
X212886597Y-186250471D02*
X212815169Y-186107614D01*
X212815169Y-186107614D02*
X212815169Y-185679042D01*
X212815169Y-185679042D02*
X212886597Y-185536185D01*
X212886597Y-185536185D02*
X212958026Y-185464757D01*
X212958026Y-185464757D02*
X213100883Y-185393328D01*
X213100883Y-185393328D02*
X213386597Y-185393328D01*
X213386597Y-185393328D02*
X213529455Y-185464757D01*
X213886598Y-186536185D02*
X215029455Y-186536185D01*
X215386597Y-185393328D02*
X215386597Y-186893328D01*
X215386597Y-185464757D02*
X215529455Y-185393328D01*
X215529455Y-185393328D02*
X215815169Y-185393328D01*
X215815169Y-185393328D02*
X215958026Y-185464757D01*
X215958026Y-185464757D02*
X216029455Y-185536185D01*
X216029455Y-185536185D02*
X216100883Y-185679042D01*
X216100883Y-185679042D02*
X216100883Y-186107614D01*
X216100883Y-186107614D02*
X216029455Y-186250471D01*
X216029455Y-186250471D02*
X215958026Y-186321900D01*
X215958026Y-186321900D02*
X215815169Y-186393328D01*
X215815169Y-186393328D02*
X215529455Y-186393328D01*
X215529455Y-186393328D02*
X215386597Y-186321900D01*
X217386598Y-186321900D02*
X217243740Y-186393328D01*
X217243740Y-186393328D02*
X216958026Y-186393328D01*
X216958026Y-186393328D02*
X216815169Y-186321900D01*
X216815169Y-186321900D02*
X216743740Y-186250471D01*
X216743740Y-186250471D02*
X216672312Y-186107614D01*
X216672312Y-186107614D02*
X216672312Y-185679042D01*
X216672312Y-185679042D02*
X216743740Y-185536185D01*
X216743740Y-185536185D02*
X216815169Y-185464757D01*
X216815169Y-185464757D02*
X216958026Y-185393328D01*
X216958026Y-185393328D02*
X217243740Y-185393328D01*
X217243740Y-185393328D02*
X217386598Y-185464757D01*
X218029454Y-186393328D02*
X218029454Y-184893328D01*
X218029454Y-185464757D02*
X218172312Y-185393328D01*
X218172312Y-185393328D02*
X218458026Y-185393328D01*
X218458026Y-185393328D02*
X218600883Y-185464757D01*
X218600883Y-185464757D02*
X218672312Y-185536185D01*
X218672312Y-185536185D02*
X218743740Y-185679042D01*
X218743740Y-185679042D02*
X218743740Y-186107614D01*
X218743740Y-186107614D02*
X218672312Y-186250471D01*
X218672312Y-186250471D02*
X218600883Y-186321900D01*
X218600883Y-186321900D02*
X218458026Y-186393328D01*
X218458026Y-186393328D02*
X218172312Y-186393328D01*
X218172312Y-186393328D02*
X218029454Y-186321900D01*
D10*
D11*
X177002200Y-181507200D02*
X285002200Y-181507200D01*
D10*
D11*
X178386598Y-183621900D02*
X178600884Y-183693328D01*
X178600884Y-183693328D02*
X178958026Y-183693328D01*
X178958026Y-183693328D02*
X179100884Y-183621900D01*
X179100884Y-183621900D02*
X179172312Y-183550471D01*
X179172312Y-183550471D02*
X179243741Y-183407614D01*
X179243741Y-183407614D02*
X179243741Y-183264757D01*
X179243741Y-183264757D02*
X179172312Y-183121900D01*
X179172312Y-183121900D02*
X179100884Y-183050471D01*
X179100884Y-183050471D02*
X178958026Y-182979042D01*
X178958026Y-182979042D02*
X178672312Y-182907614D01*
X178672312Y-182907614D02*
X178529455Y-182836185D01*
X178529455Y-182836185D02*
X178458026Y-182764757D01*
X178458026Y-182764757D02*
X178386598Y-182621900D01*
X178386598Y-182621900D02*
X178386598Y-182479042D01*
X178386598Y-182479042D02*
X178458026Y-182336185D01*
X178458026Y-182336185D02*
X178529455Y-182264757D01*
X178529455Y-182264757D02*
X178672312Y-182193328D01*
X178672312Y-182193328D02*
X179029455Y-182193328D01*
X179029455Y-182193328D02*
X179243741Y-182264757D01*
X179886597Y-183693328D02*
X179886597Y-182193328D01*
X180529455Y-183693328D02*
X180529455Y-182907614D01*
X180529455Y-182907614D02*
X180458026Y-182764757D01*
X180458026Y-182764757D02*
X180315169Y-182693328D01*
X180315169Y-182693328D02*
X180100883Y-182693328D01*
X180100883Y-182693328D02*
X179958026Y-182764757D01*
X179958026Y-182764757D02*
X179886597Y-182836185D01*
X181815169Y-183621900D02*
X181672312Y-183693328D01*
X181672312Y-183693328D02*
X181386598Y-183693328D01*
X181386598Y-183693328D02*
X181243740Y-183621900D01*
X181243740Y-183621900D02*
X181172312Y-183479042D01*
X181172312Y-183479042D02*
X181172312Y-182907614D01*
X181172312Y-182907614D02*
X181243740Y-182764757D01*
X181243740Y-182764757D02*
X181386598Y-182693328D01*
X181386598Y-182693328D02*
X181672312Y-182693328D01*
X181672312Y-182693328D02*
X181815169Y-182764757D01*
X181815169Y-182764757D02*
X181886598Y-182907614D01*
X181886598Y-182907614D02*
X181886598Y-183050471D01*
X181886598Y-183050471D02*
X181172312Y-183193328D01*
X183100883Y-183621900D02*
X182958026Y-183693328D01*
X182958026Y-183693328D02*
X182672312Y-183693328D01*
X182672312Y-183693328D02*
X182529454Y-183621900D01*
X182529454Y-183621900D02*
X182458026Y-183479042D01*
X182458026Y-183479042D02*
X182458026Y-182907614D01*
X182458026Y-182907614D02*
X182529454Y-182764757D01*
X182529454Y-182764757D02*
X182672312Y-182693328D01*
X182672312Y-182693328D02*
X182958026Y-182693328D01*
X182958026Y-182693328D02*
X183100883Y-182764757D01*
X183100883Y-182764757D02*
X183172312Y-182907614D01*
X183172312Y-182907614D02*
X183172312Y-183050471D01*
X183172312Y-183050471D02*
X182458026Y-183193328D01*
X183600883Y-182693328D02*
X184172311Y-182693328D01*
X183815168Y-182193328D02*
X183815168Y-183479042D01*
X183815168Y-183479042D02*
X183886597Y-183621900D01*
X183886597Y-183621900D02*
X184029454Y-183693328D01*
X184029454Y-183693328D02*
X184172311Y-183693328D01*
X184672311Y-183550471D02*
X184743740Y-183621900D01*
X184743740Y-183621900D02*
X184672311Y-183693328D01*
X184672311Y-183693328D02*
X184600883Y-183621900D01*
X184600883Y-183621900D02*
X184672311Y-183550471D01*
X184672311Y-183550471D02*
X184672311Y-183693328D01*
X184672311Y-182764757D02*
X184743740Y-182836185D01*
X184743740Y-182836185D02*
X184672311Y-182907614D01*
X184672311Y-182907614D02*
X184600883Y-182836185D01*
X184600883Y-182836185D02*
X184672311Y-182764757D01*
X184672311Y-182764757D02*
X184672311Y-182907614D01*
D10*
D12*
X179270996Y-180685528D02*
X178556710Y-180685528D01*
X178556710Y-180685528D02*
X178556710Y-179185528D01*
X179770996Y-180685528D02*
X179770996Y-179185528D01*
X179770996Y-179185528D02*
X180628139Y-180685528D01*
X180628139Y-180685528D02*
X180628139Y-179185528D01*
X181342425Y-180685528D02*
X181342425Y-179185528D01*
X181985283Y-180614100D02*
X182199569Y-180685528D01*
X182199569Y-180685528D02*
X182556711Y-180685528D01*
X182556711Y-180685528D02*
X182699569Y-180614100D01*
X182699569Y-180614100D02*
X182770997Y-180542671D01*
X182770997Y-180542671D02*
X182842426Y-180399814D01*
X182842426Y-180399814D02*
X182842426Y-180256957D01*
X182842426Y-180256957D02*
X182770997Y-180114100D01*
X182770997Y-180114100D02*
X182699569Y-180042671D01*
X182699569Y-180042671D02*
X182556711Y-179971242D01*
X182556711Y-179971242D02*
X182270997Y-179899814D01*
X182270997Y-179899814D02*
X182128140Y-179828385D01*
X182128140Y-179828385D02*
X182056711Y-179756957D01*
X182056711Y-179756957D02*
X181985283Y-179614100D01*
X181985283Y-179614100D02*
X181985283Y-179471242D01*
X181985283Y-179471242D02*
X182056711Y-179328385D01*
X182056711Y-179328385D02*
X182128140Y-179256957D01*
X182128140Y-179256957D02*
X182270997Y-179185528D01*
X182270997Y-179185528D02*
X182628140Y-179185528D01*
X182628140Y-179185528D02*
X182842426Y-179256957D01*
D10*
D11*
X179315169Y-171693328D02*
X178815169Y-170979042D01*
X178458026Y-171693328D02*
X178458026Y-170193328D01*
X178458026Y-170193328D02*
X179029455Y-170193328D01*
X179029455Y-170193328D02*
X179172312Y-170264757D01*
X179172312Y-170264757D02*
X179243741Y-170336185D01*
X179243741Y-170336185D02*
X179315169Y-170479042D01*
X179315169Y-170479042D02*
X179315169Y-170693328D01*
X179315169Y-170693328D02*
X179243741Y-170836185D01*
X179243741Y-170836185D02*
X179172312Y-170907614D01*
X179172312Y-170907614D02*
X179029455Y-170979042D01*
X179029455Y-170979042D02*
X178458026Y-170979042D01*
X180529455Y-171621900D02*
X180386598Y-171693328D01*
X180386598Y-171693328D02*
X180100884Y-171693328D01*
X180100884Y-171693328D02*
X179958026Y-171621900D01*
X179958026Y-171621900D02*
X179886598Y-171479042D01*
X179886598Y-171479042D02*
X179886598Y-170907614D01*
X179886598Y-170907614D02*
X179958026Y-170764757D01*
X179958026Y-170764757D02*
X180100884Y-170693328D01*
X180100884Y-170693328D02*
X180386598Y-170693328D01*
X180386598Y-170693328D02*
X180529455Y-170764757D01*
X180529455Y-170764757D02*
X180600884Y-170907614D01*
X180600884Y-170907614D02*
X180600884Y-171050471D01*
X180600884Y-171050471D02*
X179886598Y-171193328D01*
X181100883Y-170693328D02*
X181458026Y-171693328D01*
X181458026Y-171693328D02*
X181815169Y-170693328D01*
X184172312Y-170693328D02*
X184172312Y-171693328D01*
X183815169Y-170121900D02*
X183458026Y-171193328D01*
X183458026Y-171193328D02*
X184386597Y-171193328D01*
X184958025Y-171550471D02*
X185029454Y-171621900D01*
X185029454Y-171621900D02*
X184958025Y-171693328D01*
X184958025Y-171693328D02*
X184886597Y-171621900D01*
X184886597Y-171621900D02*
X184958025Y-171550471D01*
X184958025Y-171550471D02*
X184958025Y-171693328D01*
X185958026Y-170193328D02*
X186100883Y-170193328D01*
X186100883Y-170193328D02*
X186243740Y-170264757D01*
X186243740Y-170264757D02*
X186315169Y-170336185D01*
X186315169Y-170336185D02*
X186386597Y-170479042D01*
X186386597Y-170479042D02*
X186458026Y-170764757D01*
X186458026Y-170764757D02*
X186458026Y-171121900D01*
X186458026Y-171121900D02*
X186386597Y-171407614D01*
X186386597Y-171407614D02*
X186315169Y-171550471D01*
X186315169Y-171550471D02*
X186243740Y-171621900D01*
X186243740Y-171621900D02*
X186100883Y-171693328D01*
X186100883Y-171693328D02*
X185958026Y-171693328D01*
X185958026Y-171693328D02*
X185815169Y-171621900D01*
X185815169Y-171621900D02*
X185743740Y-171550471D01*
X185743740Y-171550471D02*
X185672311Y-171407614D01*
X185672311Y-171407614D02*
X185600883Y-171121900D01*
X185600883Y-171121900D02*
X185600883Y-170764757D01*
X185600883Y-170764757D02*
X185672311Y-170479042D01*
X185672311Y-170479042D02*
X185743740Y-170336185D01*
X185743740Y-170336185D02*
X185815169Y-170264757D01*
X185815169Y-170264757D02*
X185958026Y-170193328D01*
X188672311Y-172264757D02*
X188600882Y-172193328D01*
X188600882Y-172193328D02*
X188458025Y-171979042D01*
X188458025Y-171979042D02*
X188386597Y-171836185D01*
X188386597Y-171836185D02*
X188315168Y-171621900D01*
X188315168Y-171621900D02*
X188243739Y-171264757D01*
X188243739Y-171264757D02*
X188243739Y-170979042D01*
X188243739Y-170979042D02*
X188315168Y-170621900D01*
X188315168Y-170621900D02*
X188386597Y-170407614D01*
X188386597Y-170407614D02*
X188458025Y-170264757D01*
X188458025Y-170264757D02*
X188600882Y-170050471D01*
X188600882Y-170050471D02*
X188672311Y-169979042D01*
X189743739Y-170907614D02*
X189243739Y-170907614D01*
X189243739Y-171693328D02*
X189243739Y-170193328D01*
X189243739Y-170193328D02*
X189958025Y-170193328D01*
X190529453Y-171693328D02*
X190529453Y-170693328D01*
X190529453Y-170193328D02*
X190458025Y-170264757D01*
X190458025Y-170264757D02*
X190529453Y-170336185D01*
X190529453Y-170336185D02*
X190600882Y-170264757D01*
X190600882Y-170264757D02*
X190529453Y-170193328D01*
X190529453Y-170193328D02*
X190529453Y-170336185D01*
X191243739Y-171693328D02*
X191243739Y-170693328D01*
X191243739Y-170979042D02*
X191315168Y-170836185D01*
X191315168Y-170836185D02*
X191386597Y-170764757D01*
X191386597Y-170764757D02*
X191529454Y-170693328D01*
X191529454Y-170693328D02*
X191672311Y-170693328D01*
X192100882Y-171621900D02*
X192243739Y-171693328D01*
X192243739Y-171693328D02*
X192529453Y-171693328D01*
X192529453Y-171693328D02*
X192672310Y-171621900D01*
X192672310Y-171621900D02*
X192743739Y-171479042D01*
X192743739Y-171479042D02*
X192743739Y-171407614D01*
X192743739Y-171407614D02*
X192672310Y-171264757D01*
X192672310Y-171264757D02*
X192529453Y-171193328D01*
X192529453Y-171193328D02*
X192315168Y-171193328D01*
X192315168Y-171193328D02*
X192172310Y-171121900D01*
X192172310Y-171121900D02*
X192100882Y-170979042D01*
X192100882Y-170979042D02*
X192100882Y-170907614D01*
X192100882Y-170907614D02*
X192172310Y-170764757D01*
X192172310Y-170764757D02*
X192315168Y-170693328D01*
X192315168Y-170693328D02*
X192529453Y-170693328D01*
X192529453Y-170693328D02*
X192672310Y-170764757D01*
X193172311Y-170693328D02*
X193743739Y-170693328D01*
X193386596Y-170193328D02*
X193386596Y-171479042D01*
X193386596Y-171479042D02*
X193458025Y-171621900D01*
X193458025Y-171621900D02*
X193600882Y-171693328D01*
X193600882Y-171693328D02*
X193743739Y-171693328D01*
X195600882Y-171693328D02*
X195458025Y-171621900D01*
X195458025Y-171621900D02*
X195386596Y-171479042D01*
X195386596Y-171479042D02*
X195386596Y-170193328D01*
X196815168Y-171693328D02*
X196815168Y-170907614D01*
X196815168Y-170907614D02*
X196743739Y-170764757D01*
X196743739Y-170764757D02*
X196600882Y-170693328D01*
X196600882Y-170693328D02*
X196315168Y-170693328D01*
X196315168Y-170693328D02*
X196172310Y-170764757D01*
X196815168Y-171621900D02*
X196672310Y-171693328D01*
X196672310Y-171693328D02*
X196315168Y-171693328D01*
X196315168Y-171693328D02*
X196172310Y-171621900D01*
X196172310Y-171621900D02*
X196100882Y-171479042D01*
X196100882Y-171479042D02*
X196100882Y-171336185D01*
X196100882Y-171336185D02*
X196172310Y-171193328D01*
X196172310Y-171193328D02*
X196315168Y-171121900D01*
X196315168Y-171121900D02*
X196672310Y-171121900D01*
X196672310Y-171121900D02*
X196815168Y-171050471D01*
X197386596Y-170693328D02*
X197743739Y-171693328D01*
X198100882Y-170693328D02*
X197743739Y-171693328D01*
X197743739Y-171693328D02*
X197600882Y-172050471D01*
X197600882Y-172050471D02*
X197529453Y-172121900D01*
X197529453Y-172121900D02*
X197386596Y-172193328D01*
X198886596Y-171693328D02*
X198743739Y-171621900D01*
X198743739Y-171621900D02*
X198672310Y-171550471D01*
X198672310Y-171550471D02*
X198600882Y-171407614D01*
X198600882Y-171407614D02*
X198600882Y-170979042D01*
X198600882Y-170979042D02*
X198672310Y-170836185D01*
X198672310Y-170836185D02*
X198743739Y-170764757D01*
X198743739Y-170764757D02*
X198886596Y-170693328D01*
X198886596Y-170693328D02*
X199100882Y-170693328D01*
X199100882Y-170693328D02*
X199243739Y-170764757D01*
X199243739Y-170764757D02*
X199315168Y-170836185D01*
X199315168Y-170836185D02*
X199386596Y-170979042D01*
X199386596Y-170979042D02*
X199386596Y-171407614D01*
X199386596Y-171407614D02*
X199315168Y-171550471D01*
X199315168Y-171550471D02*
X199243739Y-171621900D01*
X199243739Y-171621900D02*
X199100882Y-171693328D01*
X199100882Y-171693328D02*
X198886596Y-171693328D01*
X200672311Y-170693328D02*
X200672311Y-171693328D01*
X200029453Y-170693328D02*
X200029453Y-171479042D01*
X200029453Y-171479042D02*
X200100882Y-171621900D01*
X200100882Y-171621900D02*
X200243739Y-171693328D01*
X200243739Y-171693328D02*
X200458025Y-171693328D01*
X200458025Y-171693328D02*
X200600882Y-171621900D01*
X200600882Y-171621900D02*
X200672311Y-171550471D01*
X201172311Y-170693328D02*
X201743739Y-170693328D01*
X201386596Y-170193328D02*
X201386596Y-171479042D01*
X201386596Y-171479042D02*
X201458025Y-171621900D01*
X201458025Y-171621900D02*
X201600882Y-171693328D01*
X201600882Y-171693328D02*
X201743739Y-171693328D01*
X202100882Y-172264757D02*
X202172311Y-172193328D01*
X202172311Y-172193328D02*
X202315168Y-171979042D01*
X202315168Y-171979042D02*
X202386597Y-171836185D01*
X202386597Y-171836185D02*
X202458025Y-171621900D01*
X202458025Y-171621900D02*
X202529454Y-171264757D01*
X202529454Y-171264757D02*
X202529454Y-170979042D01*
X202529454Y-170979042D02*
X202458025Y-170621900D01*
X202458025Y-170621900D02*
X202386597Y-170407614D01*
X202386597Y-170407614D02*
X202315168Y-170264757D01*
X202315168Y-170264757D02*
X202172311Y-170050471D01*
X202172311Y-170050471D02*
X202100882Y-169979042D01*
X203315168Y-171621900D02*
X203315168Y-171693328D01*
X203315168Y-171693328D02*
X203243739Y-171836185D01*
X203243739Y-171836185D02*
X203172311Y-171907614D01*
X205958025Y-171693328D02*
X205458025Y-170979042D01*
X205100882Y-171693328D02*
X205100882Y-170193328D01*
X205100882Y-170193328D02*
X205672311Y-170193328D01*
X205672311Y-170193328D02*
X205815168Y-170264757D01*
X205815168Y-170264757D02*
X205886597Y-170336185D01*
X205886597Y-170336185D02*
X205958025Y-170479042D01*
X205958025Y-170479042D02*
X205958025Y-170693328D01*
X205958025Y-170693328D02*
X205886597Y-170836185D01*
X205886597Y-170836185D02*
X205815168Y-170907614D01*
X205815168Y-170907614D02*
X205672311Y-170979042D01*
X205672311Y-170979042D02*
X205100882Y-170979042D01*
X207172311Y-171621900D02*
X207029454Y-171693328D01*
X207029454Y-171693328D02*
X206743740Y-171693328D01*
X206743740Y-171693328D02*
X206600882Y-171621900D01*
X206600882Y-171621900D02*
X206529454Y-171479042D01*
X206529454Y-171479042D02*
X206529454Y-170907614D01*
X206529454Y-170907614D02*
X206600882Y-170764757D01*
X206600882Y-170764757D02*
X206743740Y-170693328D01*
X206743740Y-170693328D02*
X207029454Y-170693328D01*
X207029454Y-170693328D02*
X207172311Y-170764757D01*
X207172311Y-170764757D02*
X207243740Y-170907614D01*
X207243740Y-170907614D02*
X207243740Y-171050471D01*
X207243740Y-171050471D02*
X206529454Y-171193328D01*
X207743739Y-170693328D02*
X208100882Y-171693328D01*
X208100882Y-171693328D02*
X208458025Y-170693328D01*
X210815168Y-170693328D02*
X210815168Y-171693328D01*
X210458025Y-170121900D02*
X210100882Y-171193328D01*
X210100882Y-171193328D02*
X211029453Y-171193328D01*
X211600881Y-171550471D02*
X211672310Y-171621900D01*
X211672310Y-171621900D02*
X211600881Y-171693328D01*
X211600881Y-171693328D02*
X211529453Y-171621900D01*
X211529453Y-171621900D02*
X211600881Y-171550471D01*
X211600881Y-171550471D02*
X211600881Y-171693328D01*
X213100882Y-171693328D02*
X212243739Y-171693328D01*
X212672310Y-171693328D02*
X212672310Y-170193328D01*
X212672310Y-170193328D02*
X212529453Y-170407614D01*
X212529453Y-170407614D02*
X212386596Y-170550471D01*
X212386596Y-170550471D02*
X212243739Y-170621900D01*
X214172310Y-172264757D02*
X214100881Y-172193328D01*
X214100881Y-172193328D02*
X213958024Y-171979042D01*
X213958024Y-171979042D02*
X213886596Y-171836185D01*
X213886596Y-171836185D02*
X213815167Y-171621900D01*
X213815167Y-171621900D02*
X213743738Y-171264757D01*
X213743738Y-171264757D02*
X213743738Y-170979042D01*
X213743738Y-170979042D02*
X213815167Y-170621900D01*
X213815167Y-170621900D02*
X213886596Y-170407614D01*
X213886596Y-170407614D02*
X213958024Y-170264757D01*
X213958024Y-170264757D02*
X214100881Y-170050471D01*
X214100881Y-170050471D02*
X214172310Y-169979042D01*
X214743738Y-171693328D02*
X214743738Y-170193328D01*
X214743738Y-170193328D02*
X215315167Y-170193328D01*
X215315167Y-170193328D02*
X215458024Y-170264757D01*
X215458024Y-170264757D02*
X215529453Y-170336185D01*
X215529453Y-170336185D02*
X215600881Y-170479042D01*
X215600881Y-170479042D02*
X215600881Y-170693328D01*
X215600881Y-170693328D02*
X215529453Y-170836185D01*
X215529453Y-170836185D02*
X215458024Y-170907614D01*
X215458024Y-170907614D02*
X215315167Y-170979042D01*
X215315167Y-170979042D02*
X214743738Y-170979042D01*
X216458024Y-171693328D02*
X216315167Y-171621900D01*
X216315167Y-171621900D02*
X216243738Y-171550471D01*
X216243738Y-171550471D02*
X216172310Y-171407614D01*
X216172310Y-171407614D02*
X216172310Y-170979042D01*
X216172310Y-170979042D02*
X216243738Y-170836185D01*
X216243738Y-170836185D02*
X216315167Y-170764757D01*
X216315167Y-170764757D02*
X216458024Y-170693328D01*
X216458024Y-170693328D02*
X216672310Y-170693328D01*
X216672310Y-170693328D02*
X216815167Y-170764757D01*
X216815167Y-170764757D02*
X216886596Y-170836185D01*
X216886596Y-170836185D02*
X216958024Y-170979042D01*
X216958024Y-170979042D02*
X216958024Y-171407614D01*
X216958024Y-171407614D02*
X216886596Y-171550471D01*
X216886596Y-171550471D02*
X216815167Y-171621900D01*
X216815167Y-171621900D02*
X216672310Y-171693328D01*
X216672310Y-171693328D02*
X216458024Y-171693328D01*
X217529453Y-171621900D02*
X217672310Y-171693328D01*
X217672310Y-171693328D02*
X217958024Y-171693328D01*
X217958024Y-171693328D02*
X218100881Y-171621900D01*
X218100881Y-171621900D02*
X218172310Y-171479042D01*
X218172310Y-171479042D02*
X218172310Y-171407614D01*
X218172310Y-171407614D02*
X218100881Y-171264757D01*
X218100881Y-171264757D02*
X217958024Y-171193328D01*
X217958024Y-171193328D02*
X217743739Y-171193328D01*
X217743739Y-171193328D02*
X217600881Y-171121900D01*
X217600881Y-171121900D02*
X217529453Y-170979042D01*
X217529453Y-170979042D02*
X217529453Y-170907614D01*
X217529453Y-170907614D02*
X217600881Y-170764757D01*
X217600881Y-170764757D02*
X217743739Y-170693328D01*
X217743739Y-170693328D02*
X217958024Y-170693328D01*
X217958024Y-170693328D02*
X218100881Y-170764757D01*
X218600882Y-170693328D02*
X219172310Y-170693328D01*
X218815167Y-170193328D02*
X218815167Y-171479042D01*
X218815167Y-171479042D02*
X218886596Y-171621900D01*
X218886596Y-171621900D02*
X219029453Y-171693328D01*
X219029453Y-171693328D02*
X219172310Y-171693328D01*
X220815167Y-171693328D02*
X220815167Y-170193328D01*
X220815167Y-170193328D02*
X221386596Y-170193328D01*
X221386596Y-170193328D02*
X221529453Y-170264757D01*
X221529453Y-170264757D02*
X221600882Y-170336185D01*
X221600882Y-170336185D02*
X221672310Y-170479042D01*
X221672310Y-170479042D02*
X221672310Y-170693328D01*
X221672310Y-170693328D02*
X221600882Y-170836185D01*
X221600882Y-170836185D02*
X221529453Y-170907614D01*
X221529453Y-170907614D02*
X221386596Y-170979042D01*
X221386596Y-170979042D02*
X220815167Y-170979042D01*
X222315167Y-170907614D02*
X222815167Y-170907614D01*
X223029453Y-171693328D02*
X222315167Y-171693328D01*
X222315167Y-171693328D02*
X222315167Y-170193328D01*
X222315167Y-170193328D02*
X223029453Y-170193328D01*
X223743739Y-170193328D02*
X223600882Y-170479042D01*
X224315168Y-171621900D02*
X224458025Y-171693328D01*
X224458025Y-171693328D02*
X224743739Y-171693328D01*
X224743739Y-171693328D02*
X224886596Y-171621900D01*
X224886596Y-171621900D02*
X224958025Y-171479042D01*
X224958025Y-171479042D02*
X224958025Y-171407614D01*
X224958025Y-171407614D02*
X224886596Y-171264757D01*
X224886596Y-171264757D02*
X224743739Y-171193328D01*
X224743739Y-171193328D02*
X224529454Y-171193328D01*
X224529454Y-171193328D02*
X224386596Y-171121900D01*
X224386596Y-171121900D02*
X224315168Y-170979042D01*
X224315168Y-170979042D02*
X224315168Y-170907614D01*
X224315168Y-170907614D02*
X224386596Y-170764757D01*
X224386596Y-170764757D02*
X224529454Y-170693328D01*
X224529454Y-170693328D02*
X224743739Y-170693328D01*
X224743739Y-170693328D02*
X224886596Y-170764757D01*
X226743739Y-171693328D02*
X226743739Y-170693328D01*
X226743739Y-170979042D02*
X226815168Y-170836185D01*
X226815168Y-170836185D02*
X226886597Y-170764757D01*
X226886597Y-170764757D02*
X227029454Y-170693328D01*
X227029454Y-170693328D02*
X227172311Y-170693328D01*
X228243739Y-171621900D02*
X228100882Y-171693328D01*
X228100882Y-171693328D02*
X227815168Y-171693328D01*
X227815168Y-171693328D02*
X227672310Y-171621900D01*
X227672310Y-171621900D02*
X227600882Y-171479042D01*
X227600882Y-171479042D02*
X227600882Y-170907614D01*
X227600882Y-170907614D02*
X227672310Y-170764757D01*
X227672310Y-170764757D02*
X227815168Y-170693328D01*
X227815168Y-170693328D02*
X228100882Y-170693328D01*
X228100882Y-170693328D02*
X228243739Y-170764757D01*
X228243739Y-170764757D02*
X228315168Y-170907614D01*
X228315168Y-170907614D02*
X228315168Y-171050471D01*
X228315168Y-171050471D02*
X227600882Y-171193328D01*
X228815167Y-170693328D02*
X229172310Y-171693328D01*
X229172310Y-171693328D02*
X229529453Y-170693328D01*
X230100881Y-171693328D02*
X230100881Y-170693328D01*
X230100881Y-170193328D02*
X230029453Y-170264757D01*
X230029453Y-170264757D02*
X230100881Y-170336185D01*
X230100881Y-170336185D02*
X230172310Y-170264757D01*
X230172310Y-170264757D02*
X230100881Y-170193328D01*
X230100881Y-170193328D02*
X230100881Y-170336185D01*
X231386596Y-171621900D02*
X231243739Y-171693328D01*
X231243739Y-171693328D02*
X230958025Y-171693328D01*
X230958025Y-171693328D02*
X230815167Y-171621900D01*
X230815167Y-171621900D02*
X230743739Y-171479042D01*
X230743739Y-171479042D02*
X230743739Y-170907614D01*
X230743739Y-170907614D02*
X230815167Y-170764757D01*
X230815167Y-170764757D02*
X230958025Y-170693328D01*
X230958025Y-170693328D02*
X231243739Y-170693328D01*
X231243739Y-170693328D02*
X231386596Y-170764757D01*
X231386596Y-170764757D02*
X231458025Y-170907614D01*
X231458025Y-170907614D02*
X231458025Y-171050471D01*
X231458025Y-171050471D02*
X230743739Y-171193328D01*
X231958024Y-170693328D02*
X232243739Y-171693328D01*
X232243739Y-171693328D02*
X232529453Y-170979042D01*
X232529453Y-170979042D02*
X232815167Y-171693328D01*
X232815167Y-171693328D02*
X233100881Y-170693328D01*
X233529453Y-172264757D02*
X233600882Y-172193328D01*
X233600882Y-172193328D02*
X233743739Y-171979042D01*
X233743739Y-171979042D02*
X233815168Y-171836185D01*
X233815168Y-171836185D02*
X233886596Y-171621900D01*
X233886596Y-171621900D02*
X233958025Y-171264757D01*
X233958025Y-171264757D02*
X233958025Y-170979042D01*
X233958025Y-170979042D02*
X233886596Y-170621900D01*
X233886596Y-170621900D02*
X233815168Y-170407614D01*
X233815168Y-170407614D02*
X233743739Y-170264757D01*
X233743739Y-170264757D02*
X233600882Y-170050471D01*
X233600882Y-170050471D02*
X233529453Y-169979042D01*
X234743739Y-171621900D02*
X234743739Y-171693328D01*
X234743739Y-171693328D02*
X234672310Y-171836185D01*
X234672310Y-171836185D02*
X234600882Y-171907614D01*
X237386596Y-171693328D02*
X236886596Y-170979042D01*
X236529453Y-171693328D02*
X236529453Y-170193328D01*
X236529453Y-170193328D02*
X237100882Y-170193328D01*
X237100882Y-170193328D02*
X237243739Y-170264757D01*
X237243739Y-170264757D02*
X237315168Y-170336185D01*
X237315168Y-170336185D02*
X237386596Y-170479042D01*
X237386596Y-170479042D02*
X237386596Y-170693328D01*
X237386596Y-170693328D02*
X237315168Y-170836185D01*
X237315168Y-170836185D02*
X237243739Y-170907614D01*
X237243739Y-170907614D02*
X237100882Y-170979042D01*
X237100882Y-170979042D02*
X236529453Y-170979042D01*
X238600882Y-171621900D02*
X238458025Y-171693328D01*
X238458025Y-171693328D02*
X238172311Y-171693328D01*
X238172311Y-171693328D02*
X238029453Y-171621900D01*
X238029453Y-171621900D02*
X237958025Y-171479042D01*
X237958025Y-171479042D02*
X237958025Y-170907614D01*
X237958025Y-170907614D02*
X238029453Y-170764757D01*
X238029453Y-170764757D02*
X238172311Y-170693328D01*
X238172311Y-170693328D02*
X238458025Y-170693328D01*
X238458025Y-170693328D02*
X238600882Y-170764757D01*
X238600882Y-170764757D02*
X238672311Y-170907614D01*
X238672311Y-170907614D02*
X238672311Y-171050471D01*
X238672311Y-171050471D02*
X237958025Y-171193328D01*
X239172310Y-170693328D02*
X239529453Y-171693328D01*
X239529453Y-171693328D02*
X239886596Y-170693328D01*
X242243739Y-170693328D02*
X242243739Y-171693328D01*
X241886596Y-170121900D02*
X241529453Y-171193328D01*
X241529453Y-171193328D02*
X242458024Y-171193328D01*
X243029452Y-171550471D02*
X243100881Y-171621900D01*
X243100881Y-171621900D02*
X243029452Y-171693328D01*
X243029452Y-171693328D02*
X242958024Y-171621900D01*
X242958024Y-171621900D02*
X243029452Y-171550471D01*
X243029452Y-171550471D02*
X243029452Y-171693328D01*
X243672310Y-170336185D02*
X243743738Y-170264757D01*
X243743738Y-170264757D02*
X243886596Y-170193328D01*
X243886596Y-170193328D02*
X244243738Y-170193328D01*
X244243738Y-170193328D02*
X244386596Y-170264757D01*
X244386596Y-170264757D02*
X244458024Y-170336185D01*
X244458024Y-170336185D02*
X244529453Y-170479042D01*
X244529453Y-170479042D02*
X244529453Y-170621900D01*
X244529453Y-170621900D02*
X244458024Y-170836185D01*
X244458024Y-170836185D02*
X243600881Y-171693328D01*
X243600881Y-171693328D02*
X244529453Y-171693328D01*
X246743738Y-172264757D02*
X246672309Y-172193328D01*
X246672309Y-172193328D02*
X246529452Y-171979042D01*
X246529452Y-171979042D02*
X246458024Y-171836185D01*
X246458024Y-171836185D02*
X246386595Y-171621900D01*
X246386595Y-171621900D02*
X246315166Y-171264757D01*
X246315166Y-171264757D02*
X246315166Y-170979042D01*
X246315166Y-170979042D02*
X246386595Y-170621900D01*
X246386595Y-170621900D02*
X246458024Y-170407614D01*
X246458024Y-170407614D02*
X246529452Y-170264757D01*
X246529452Y-170264757D02*
X246672309Y-170050471D01*
X246672309Y-170050471D02*
X246743738Y-169979042D01*
X247315166Y-171693328D02*
X247315166Y-170193328D01*
X247315166Y-170193328D02*
X247886595Y-170193328D01*
X247886595Y-170193328D02*
X248029452Y-170264757D01*
X248029452Y-170264757D02*
X248100881Y-170336185D01*
X248100881Y-170336185D02*
X248172309Y-170479042D01*
X248172309Y-170479042D02*
X248172309Y-170693328D01*
X248172309Y-170693328D02*
X248100881Y-170836185D01*
X248100881Y-170836185D02*
X248029452Y-170907614D01*
X248029452Y-170907614D02*
X247886595Y-170979042D01*
X247886595Y-170979042D02*
X247315166Y-170979042D01*
X249029452Y-171693328D02*
X248886595Y-171621900D01*
X248886595Y-171621900D02*
X248815166Y-171550471D01*
X248815166Y-171550471D02*
X248743738Y-171407614D01*
X248743738Y-171407614D02*
X248743738Y-170979042D01*
X248743738Y-170979042D02*
X248815166Y-170836185D01*
X248815166Y-170836185D02*
X248886595Y-170764757D01*
X248886595Y-170764757D02*
X249029452Y-170693328D01*
X249029452Y-170693328D02*
X249243738Y-170693328D01*
X249243738Y-170693328D02*
X249386595Y-170764757D01*
X249386595Y-170764757D02*
X249458024Y-170836185D01*
X249458024Y-170836185D02*
X249529452Y-170979042D01*
X249529452Y-170979042D02*
X249529452Y-171407614D01*
X249529452Y-171407614D02*
X249458024Y-171550471D01*
X249458024Y-171550471D02*
X249386595Y-171621900D01*
X249386595Y-171621900D02*
X249243738Y-171693328D01*
X249243738Y-171693328D02*
X249029452Y-171693328D01*
X250100881Y-171621900D02*
X250243738Y-171693328D01*
X250243738Y-171693328D02*
X250529452Y-171693328D01*
X250529452Y-171693328D02*
X250672309Y-171621900D01*
X250672309Y-171621900D02*
X250743738Y-171479042D01*
X250743738Y-171479042D02*
X250743738Y-171407614D01*
X250743738Y-171407614D02*
X250672309Y-171264757D01*
X250672309Y-171264757D02*
X250529452Y-171193328D01*
X250529452Y-171193328D02*
X250315167Y-171193328D01*
X250315167Y-171193328D02*
X250172309Y-171121900D01*
X250172309Y-171121900D02*
X250100881Y-170979042D01*
X250100881Y-170979042D02*
X250100881Y-170907614D01*
X250100881Y-170907614D02*
X250172309Y-170764757D01*
X250172309Y-170764757D02*
X250315167Y-170693328D01*
X250315167Y-170693328D02*
X250529452Y-170693328D01*
X250529452Y-170693328D02*
X250672309Y-170764757D01*
X251172310Y-170693328D02*
X251743738Y-170693328D01*
X251386595Y-170193328D02*
X251386595Y-171479042D01*
X251386595Y-171479042D02*
X251458024Y-171621900D01*
X251458024Y-171621900D02*
X251600881Y-171693328D01*
X251600881Y-171693328D02*
X251743738Y-171693328D01*
X253386595Y-171693328D02*
X253386595Y-170693328D01*
X253386595Y-170979042D02*
X253458024Y-170836185D01*
X253458024Y-170836185D02*
X253529453Y-170764757D01*
X253529453Y-170764757D02*
X253672310Y-170693328D01*
X253672310Y-170693328D02*
X253815167Y-170693328D01*
X254886595Y-171621900D02*
X254743738Y-171693328D01*
X254743738Y-171693328D02*
X254458024Y-171693328D01*
X254458024Y-171693328D02*
X254315166Y-171621900D01*
X254315166Y-171621900D02*
X254243738Y-171479042D01*
X254243738Y-171479042D02*
X254243738Y-170907614D01*
X254243738Y-170907614D02*
X254315166Y-170764757D01*
X254315166Y-170764757D02*
X254458024Y-170693328D01*
X254458024Y-170693328D02*
X254743738Y-170693328D01*
X254743738Y-170693328D02*
X254886595Y-170764757D01*
X254886595Y-170764757D02*
X254958024Y-170907614D01*
X254958024Y-170907614D02*
X254958024Y-171050471D01*
X254958024Y-171050471D02*
X254243738Y-171193328D01*
X255458023Y-170693328D02*
X255815166Y-171693328D01*
X255815166Y-171693328D02*
X256172309Y-170693328D01*
X256743737Y-171693328D02*
X256743737Y-170693328D01*
X256743737Y-170193328D02*
X256672309Y-170264757D01*
X256672309Y-170264757D02*
X256743737Y-170336185D01*
X256743737Y-170336185D02*
X256815166Y-170264757D01*
X256815166Y-170264757D02*
X256743737Y-170193328D01*
X256743737Y-170193328D02*
X256743737Y-170336185D01*
X258029452Y-171621900D02*
X257886595Y-171693328D01*
X257886595Y-171693328D02*
X257600881Y-171693328D01*
X257600881Y-171693328D02*
X257458023Y-171621900D01*
X257458023Y-171621900D02*
X257386595Y-171479042D01*
X257386595Y-171479042D02*
X257386595Y-170907614D01*
X257386595Y-170907614D02*
X257458023Y-170764757D01*
X257458023Y-170764757D02*
X257600881Y-170693328D01*
X257600881Y-170693328D02*
X257886595Y-170693328D01*
X257886595Y-170693328D02*
X258029452Y-170764757D01*
X258029452Y-170764757D02*
X258100881Y-170907614D01*
X258100881Y-170907614D02*
X258100881Y-171050471D01*
X258100881Y-171050471D02*
X257386595Y-171193328D01*
X258600880Y-170693328D02*
X258886595Y-171693328D01*
X258886595Y-171693328D02*
X259172309Y-170979042D01*
X259172309Y-170979042D02*
X259458023Y-171693328D01*
X259458023Y-171693328D02*
X259743737Y-170693328D01*
X260172309Y-172264757D02*
X260243738Y-172193328D01*
X260243738Y-172193328D02*
X260386595Y-171979042D01*
X260386595Y-171979042D02*
X260458024Y-171836185D01*
X260458024Y-171836185D02*
X260529452Y-171621900D01*
X260529452Y-171621900D02*
X260600881Y-171264757D01*
X260600881Y-171264757D02*
X260600881Y-170979042D01*
X260600881Y-170979042D02*
X260529452Y-170621900D01*
X260529452Y-170621900D02*
X260458024Y-170407614D01*
X260458024Y-170407614D02*
X260386595Y-170264757D01*
X260386595Y-170264757D02*
X260243738Y-170050471D01*
X260243738Y-170050471D02*
X260172309Y-169979042D01*
D10*
D11*
X178386598Y-168264757D02*
X179100884Y-168264757D01*
X178243741Y-168693328D02*
X178743741Y-167193328D01*
X178743741Y-167193328D02*
X179243741Y-168693328D01*
X180386598Y-167693328D02*
X180386598Y-168693328D01*
X179743740Y-167693328D02*
X179743740Y-168479042D01*
X179743740Y-168479042D02*
X179815169Y-168621900D01*
X179815169Y-168621900D02*
X179958026Y-168693328D01*
X179958026Y-168693328D02*
X180172312Y-168693328D01*
X180172312Y-168693328D02*
X180315169Y-168621900D01*
X180315169Y-168621900D02*
X180386598Y-168550471D01*
X180886598Y-167693328D02*
X181458026Y-167693328D01*
X181100883Y-167193328D02*
X181100883Y-168479042D01*
X181100883Y-168479042D02*
X181172312Y-168621900D01*
X181172312Y-168621900D02*
X181315169Y-168693328D01*
X181315169Y-168693328D02*
X181458026Y-168693328D01*
X181958026Y-168693328D02*
X181958026Y-167193328D01*
X182600884Y-168693328D02*
X182600884Y-167907614D01*
X182600884Y-167907614D02*
X182529455Y-167764757D01*
X182529455Y-167764757D02*
X182386598Y-167693328D01*
X182386598Y-167693328D02*
X182172312Y-167693328D01*
X182172312Y-167693328D02*
X182029455Y-167764757D01*
X182029455Y-167764757D02*
X181958026Y-167836185D01*
X183529455Y-168693328D02*
X183386598Y-168621900D01*
X183386598Y-168621900D02*
X183315169Y-168550471D01*
X183315169Y-168550471D02*
X183243741Y-168407614D01*
X183243741Y-168407614D02*
X183243741Y-167979042D01*
X183243741Y-167979042D02*
X183315169Y-167836185D01*
X183315169Y-167836185D02*
X183386598Y-167764757D01*
X183386598Y-167764757D02*
X183529455Y-167693328D01*
X183529455Y-167693328D02*
X183743741Y-167693328D01*
X183743741Y-167693328D02*
X183886598Y-167764757D01*
X183886598Y-167764757D02*
X183958027Y-167836185D01*
X183958027Y-167836185D02*
X184029455Y-167979042D01*
X184029455Y-167979042D02*
X184029455Y-168407614D01*
X184029455Y-168407614D02*
X183958027Y-168550471D01*
X183958027Y-168550471D02*
X183886598Y-168621900D01*
X183886598Y-168621900D02*
X183743741Y-168693328D01*
X183743741Y-168693328D02*
X183529455Y-168693328D01*
X184672312Y-168693328D02*
X184672312Y-167693328D01*
X184672312Y-167979042D02*
X184743741Y-167836185D01*
X184743741Y-167836185D02*
X184815170Y-167764757D01*
X184815170Y-167764757D02*
X184958027Y-167693328D01*
X184958027Y-167693328D02*
X185100884Y-167693328D01*
X185600883Y-168550471D02*
X185672312Y-168621900D01*
X185672312Y-168621900D02*
X185600883Y-168693328D01*
X185600883Y-168693328D02*
X185529455Y-168621900D01*
X185529455Y-168621900D02*
X185600883Y-168550471D01*
X185600883Y-168550471D02*
X185600883Y-168693328D01*
X185600883Y-167764757D02*
X185672312Y-167836185D01*
X185672312Y-167836185D02*
X185600883Y-167907614D01*
X185600883Y-167907614D02*
X185529455Y-167836185D01*
X185529455Y-167836185D02*
X185600883Y-167764757D01*
X185600883Y-167764757D02*
X185600883Y-167907614D01*
X187458026Y-168693328D02*
X187458026Y-167193328D01*
X187458026Y-167193328D02*
X188029455Y-167193328D01*
X188029455Y-167193328D02*
X188172312Y-167264757D01*
X188172312Y-167264757D02*
X188243741Y-167336185D01*
X188243741Y-167336185D02*
X188315169Y-167479042D01*
X188315169Y-167479042D02*
X188315169Y-167693328D01*
X188315169Y-167693328D02*
X188243741Y-167836185D01*
X188243741Y-167836185D02*
X188172312Y-167907614D01*
X188172312Y-167907614D02*
X188029455Y-167979042D01*
X188029455Y-167979042D02*
X187458026Y-167979042D01*
X189600884Y-168693328D02*
X189600884Y-167907614D01*
X189600884Y-167907614D02*
X189529455Y-167764757D01*
X189529455Y-167764757D02*
X189386598Y-167693328D01*
X189386598Y-167693328D02*
X189100884Y-167693328D01*
X189100884Y-167693328D02*
X188958026Y-167764757D01*
X189600884Y-168621900D02*
X189458026Y-168693328D01*
X189458026Y-168693328D02*
X189100884Y-168693328D01*
X189100884Y-168693328D02*
X188958026Y-168621900D01*
X188958026Y-168621900D02*
X188886598Y-168479042D01*
X188886598Y-168479042D02*
X188886598Y-168336185D01*
X188886598Y-168336185D02*
X188958026Y-168193328D01*
X188958026Y-168193328D02*
X189100884Y-168121900D01*
X189100884Y-168121900D02*
X189458026Y-168121900D01*
X189458026Y-168121900D02*
X189600884Y-168050471D01*
X190958027Y-167693328D02*
X190958027Y-168693328D01*
X190315169Y-167693328D02*
X190315169Y-168479042D01*
X190315169Y-168479042D02*
X190386598Y-168621900D01*
X190386598Y-168621900D02*
X190529455Y-168693328D01*
X190529455Y-168693328D02*
X190743741Y-168693328D01*
X190743741Y-168693328D02*
X190886598Y-168621900D01*
X190886598Y-168621900D02*
X190958027Y-168550471D01*
X191886598Y-168693328D02*
X191743741Y-168621900D01*
X191743741Y-168621900D02*
X191672312Y-168479042D01*
X191672312Y-168479042D02*
X191672312Y-167193328D01*
X194458026Y-168550471D02*
X194386598Y-168621900D01*
X194386598Y-168621900D02*
X194172312Y-168693328D01*
X194172312Y-168693328D02*
X194029455Y-168693328D01*
X194029455Y-168693328D02*
X193815169Y-168621900D01*
X193815169Y-168621900D02*
X193672312Y-168479042D01*
X193672312Y-168479042D02*
X193600883Y-168336185D01*
X193600883Y-168336185D02*
X193529455Y-168050471D01*
X193529455Y-168050471D02*
X193529455Y-167836185D01*
X193529455Y-167836185D02*
X193600883Y-167550471D01*
X193600883Y-167550471D02*
X193672312Y-167407614D01*
X193672312Y-167407614D02*
X193815169Y-167264757D01*
X193815169Y-167264757D02*
X194029455Y-167193328D01*
X194029455Y-167193328D02*
X194172312Y-167193328D01*
X194172312Y-167193328D02*
X194386598Y-167264757D01*
X194386598Y-167264757D02*
X194458026Y-167336185D01*
X195743741Y-168693328D02*
X195743741Y-167907614D01*
X195743741Y-167907614D02*
X195672312Y-167764757D01*
X195672312Y-167764757D02*
X195529455Y-167693328D01*
X195529455Y-167693328D02*
X195243741Y-167693328D01*
X195243741Y-167693328D02*
X195100883Y-167764757D01*
X195743741Y-168621900D02*
X195600883Y-168693328D01*
X195600883Y-168693328D02*
X195243741Y-168693328D01*
X195243741Y-168693328D02*
X195100883Y-168621900D01*
X195100883Y-168621900D02*
X195029455Y-168479042D01*
X195029455Y-168479042D02*
X195029455Y-168336185D01*
X195029455Y-168336185D02*
X195100883Y-168193328D01*
X195100883Y-168193328D02*
X195243741Y-168121900D01*
X195243741Y-168121900D02*
X195600883Y-168121900D01*
X195600883Y-168121900D02*
X195743741Y-168050471D01*
X196458026Y-167693328D02*
X196458026Y-169193328D01*
X196458026Y-167764757D02*
X196600884Y-167693328D01*
X196600884Y-167693328D02*
X196886598Y-167693328D01*
X196886598Y-167693328D02*
X197029455Y-167764757D01*
X197029455Y-167764757D02*
X197100884Y-167836185D01*
X197100884Y-167836185D02*
X197172312Y-167979042D01*
X197172312Y-167979042D02*
X197172312Y-168407614D01*
X197172312Y-168407614D02*
X197100884Y-168550471D01*
X197100884Y-168550471D02*
X197029455Y-168621900D01*
X197029455Y-168621900D02*
X196886598Y-168693328D01*
X196886598Y-168693328D02*
X196600884Y-168693328D01*
X196600884Y-168693328D02*
X196458026Y-168621900D01*
X198458027Y-167693328D02*
X198458027Y-168907614D01*
X198458027Y-168907614D02*
X198386598Y-169050471D01*
X198386598Y-169050471D02*
X198315169Y-169121900D01*
X198315169Y-169121900D02*
X198172312Y-169193328D01*
X198172312Y-169193328D02*
X197958027Y-169193328D01*
X197958027Y-169193328D02*
X197815169Y-169121900D01*
X198458027Y-168621900D02*
X198315169Y-168693328D01*
X198315169Y-168693328D02*
X198029455Y-168693328D01*
X198029455Y-168693328D02*
X197886598Y-168621900D01*
X197886598Y-168621900D02*
X197815169Y-168550471D01*
X197815169Y-168550471D02*
X197743741Y-168407614D01*
X197743741Y-168407614D02*
X197743741Y-167979042D01*
X197743741Y-167979042D02*
X197815169Y-167836185D01*
X197815169Y-167836185D02*
X197886598Y-167764757D01*
X197886598Y-167764757D02*
X198029455Y-167693328D01*
X198029455Y-167693328D02*
X198315169Y-167693328D01*
X198315169Y-167693328D02*
X198458027Y-167764757D01*
X199172312Y-168693328D02*
X199172312Y-167693328D01*
X199172312Y-167979042D02*
X199243741Y-167836185D01*
X199243741Y-167836185D02*
X199315170Y-167764757D01*
X199315170Y-167764757D02*
X199458027Y-167693328D01*
X199458027Y-167693328D02*
X199600884Y-167693328D01*
X200743741Y-168693328D02*
X200743741Y-167907614D01*
X200743741Y-167907614D02*
X200672312Y-167764757D01*
X200672312Y-167764757D02*
X200529455Y-167693328D01*
X200529455Y-167693328D02*
X200243741Y-167693328D01*
X200243741Y-167693328D02*
X200100883Y-167764757D01*
X200743741Y-168621900D02*
X200600883Y-168693328D01*
X200600883Y-168693328D02*
X200243741Y-168693328D01*
X200243741Y-168693328D02*
X200100883Y-168621900D01*
X200100883Y-168621900D02*
X200029455Y-168479042D01*
X200029455Y-168479042D02*
X200029455Y-168336185D01*
X200029455Y-168336185D02*
X200100883Y-168193328D01*
X200100883Y-168193328D02*
X200243741Y-168121900D01*
X200243741Y-168121900D02*
X200600883Y-168121900D01*
X200600883Y-168121900D02*
X200743741Y-168050471D01*
X201386598Y-168621900D02*
X201529455Y-168693328D01*
X201529455Y-168693328D02*
X201815169Y-168693328D01*
X201815169Y-168693328D02*
X201958026Y-168621900D01*
X201958026Y-168621900D02*
X202029455Y-168479042D01*
X202029455Y-168479042D02*
X202029455Y-168407614D01*
X202029455Y-168407614D02*
X201958026Y-168264757D01*
X201958026Y-168264757D02*
X201815169Y-168193328D01*
X201815169Y-168193328D02*
X201600884Y-168193328D01*
X201600884Y-168193328D02*
X201458026Y-168121900D01*
X201458026Y-168121900D02*
X201386598Y-167979042D01*
X201386598Y-167979042D02*
X201386598Y-167907614D01*
X201386598Y-167907614D02*
X201458026Y-167764757D01*
X201458026Y-167764757D02*
X201600884Y-167693328D01*
X201600884Y-167693328D02*
X201815169Y-167693328D01*
X201815169Y-167693328D02*
X201958026Y-167764757D01*
D10*
D11*
X197002200Y-191507200D02*
X197002200Y-194507200D01*
D10*
D11*
X261002200Y-191507200D02*
X261002200Y-198007200D01*
D14*
%TO.C,C68*%
X65512500Y-125150000D03*
X67587500Y-125150000D03*
%TD*%
D15*
%TO.C,R28*%
X77225000Y-95987500D03*
X77225000Y-97987500D03*
%TD*%
D16*
%TO.C,IC4*%
X73374000Y-101700000D03*
X73374000Y-102350000D03*
X73374000Y-103000000D03*
X73374000Y-103650000D03*
X73374000Y-104300000D03*
X73374000Y-104950000D03*
X73374000Y-105600000D03*
X73374000Y-106250000D03*
X79250000Y-106250000D03*
X79250000Y-105600000D03*
X79250000Y-104950000D03*
X79250000Y-104300000D03*
X79250000Y-103650000D03*
X79250000Y-103000000D03*
X79250000Y-102350000D03*
X79250000Y-101700000D03*
%TD*%
D17*
%TO.C,D1*%
X167300000Y-105000000D03*
D18*
X169000000Y-105000000D03*
X169000000Y-103000000D03*
X167100000Y-103000000D03*
%TD*%
D19*
%TO.C,R24*%
X83000000Y-91000000D03*
X81000000Y-91000000D03*
%TD*%
D20*
%TO.C,R55*%
X71150000Y-137400000D03*
X73150000Y-137400000D03*
%TD*%
D21*
%TO.C,C28*%
X131537500Y-94825000D03*
X129462500Y-94825000D03*
%TD*%
D15*
%TO.C,R33*%
X145250000Y-109250000D03*
X145250000Y-111250000D03*
%TD*%
D14*
%TO.C,C35*%
X124425000Y-125750000D03*
X126500000Y-125750000D03*
%TD*%
D22*
%TO.C,C12*%
X119500000Y-117250000D03*
X119500000Y-119325000D03*
%TD*%
D14*
%TO.C,C73*%
X75112500Y-127100000D03*
X77187500Y-127100000D03*
%TD*%
%TO.C,C61*%
X65475000Y-110564286D03*
X67550000Y-110564286D03*
%TD*%
%TO.C,C56*%
X65475000Y-100135714D03*
X67550000Y-100135714D03*
%TD*%
D22*
%TO.C,C8*%
X123500000Y-117250000D03*
X123500000Y-119325000D03*
%TD*%
D14*
%TO.C,C69*%
X65512500Y-127250000D03*
X67587500Y-127250000D03*
%TD*%
%TO.C,C74*%
X75145000Y-129240000D03*
X77220000Y-129240000D03*
%TD*%
D20*
%TO.C,R37*%
X61700000Y-107550000D03*
X63700000Y-107550000D03*
%TD*%
D23*
%TO.C,D6*%
X160300000Y-126812500D03*
X160300000Y-128712500D03*
%TD*%
D24*
%TO.C,R8*%
X108575000Y-77250000D03*
X108575000Y-75250000D03*
%TD*%
D21*
%TO.C,C34*%
X96912500Y-108825000D03*
X94837500Y-108825000D03*
%TD*%
D15*
%TO.C,R48*%
X83000000Y-124000000D03*
X83000000Y-126000000D03*
%TD*%
D25*
%TO.C,IC2*%
X104337500Y-111825000D03*
X104837500Y-111825000D03*
X105337500Y-111825000D03*
X105837500Y-111825000D03*
X106337500Y-111825000D03*
X106837500Y-111825000D03*
X107337500Y-111825000D03*
X107837500Y-111825000D03*
X108337500Y-111825000D03*
X108837500Y-111825000D03*
X109337500Y-111825000D03*
X109837500Y-111825000D03*
X110337500Y-111825000D03*
X110837500Y-111825000D03*
X111337500Y-111825000D03*
X111837500Y-111825000D03*
X112337500Y-111825000D03*
X112837500Y-111825000D03*
X113337500Y-111825000D03*
X113837500Y-111825000D03*
X114337500Y-111825000D03*
X114837500Y-111825000D03*
X115337500Y-111825000D03*
X115837500Y-111825000D03*
X116337500Y-111825000D03*
X116837500Y-111825000D03*
X117337500Y-111825000D03*
X117837500Y-111825000D03*
X118337500Y-111825000D03*
X118837500Y-111825000D03*
X119337500Y-111825000D03*
X119837500Y-111825000D03*
X120337500Y-111825000D03*
X120837500Y-111825000D03*
X121337500Y-111825000D03*
X121837500Y-111825000D03*
D26*
X123750000Y-109912500D03*
X123750000Y-109412500D03*
X123750000Y-108912500D03*
X123750000Y-108412500D03*
X123750000Y-107912500D03*
X123750000Y-107412500D03*
X123750000Y-106912500D03*
X123750000Y-106412500D03*
X123750000Y-105912500D03*
X123750000Y-105412500D03*
X123750000Y-104912500D03*
X123750000Y-104412500D03*
X123750000Y-103912500D03*
X123750000Y-103412500D03*
X123750000Y-102912500D03*
X123750000Y-102412500D03*
X123750000Y-101912500D03*
X123750000Y-101412500D03*
X123750000Y-100912500D03*
X123750000Y-100412500D03*
X123750000Y-99912500D03*
X123750000Y-99412500D03*
X123750000Y-98912500D03*
X123750000Y-98412500D03*
X123750000Y-97912500D03*
X123750000Y-97412500D03*
X123750000Y-96912500D03*
X123750000Y-96412500D03*
X123750000Y-95912500D03*
X123750000Y-95412500D03*
X123750000Y-94912500D03*
X123750000Y-94412500D03*
X123750000Y-93912500D03*
X123750000Y-93412500D03*
X123750000Y-92912500D03*
X123750000Y-92412500D03*
D25*
X121837500Y-90500000D03*
X121337500Y-90500000D03*
X120837500Y-90500000D03*
X120337500Y-90500000D03*
X119837500Y-90500000D03*
X119337500Y-90500000D03*
X118837500Y-90500000D03*
X118337500Y-90500000D03*
X117837500Y-90500000D03*
X117337500Y-90500000D03*
X116837500Y-90500000D03*
X116337500Y-90500000D03*
X115837500Y-90500000D03*
X115337500Y-90500000D03*
X114837500Y-90500000D03*
X114337500Y-90500000D03*
X113837500Y-90500000D03*
X113337500Y-90500000D03*
X112837500Y-90500000D03*
X112337500Y-90500000D03*
X111837500Y-90500000D03*
X111337500Y-90500000D03*
X110837500Y-90500000D03*
X110337500Y-90500000D03*
X109837500Y-90500000D03*
X109337500Y-90500000D03*
X108837500Y-90500000D03*
X108337500Y-90500000D03*
X107837500Y-90500000D03*
X107337500Y-90500000D03*
X106837500Y-90500000D03*
X106337500Y-90500000D03*
X105837500Y-90500000D03*
X105337500Y-90500000D03*
X104837500Y-90500000D03*
X104337500Y-90500000D03*
D26*
X102425000Y-92412500D03*
X102425000Y-92912500D03*
X102425000Y-93412500D03*
X102425000Y-93912500D03*
X102425000Y-94412500D03*
X102425000Y-94912500D03*
X102425000Y-95412500D03*
X102425000Y-95912500D03*
X102425000Y-96412500D03*
X102425000Y-96912500D03*
X102425000Y-97412500D03*
X102425000Y-97912500D03*
X102425000Y-98412500D03*
X102425000Y-98912500D03*
X102425000Y-99412500D03*
X102425000Y-99912500D03*
X102425000Y-100412500D03*
X102425000Y-100912500D03*
X102425000Y-101412500D03*
X102425000Y-101912500D03*
X102425000Y-102412500D03*
X102425000Y-102912500D03*
X102425000Y-103412500D03*
X102425000Y-103912500D03*
X102425000Y-104412500D03*
X102425000Y-104912500D03*
X102425000Y-105412500D03*
X102425000Y-105912500D03*
X102425000Y-106412500D03*
X102425000Y-106912500D03*
X102425000Y-107412500D03*
X102425000Y-107912500D03*
X102425000Y-108412500D03*
X102425000Y-108912500D03*
X102425000Y-109412500D03*
X102425000Y-109912500D03*
%TD*%
D22*
%TO.C,C40*%
X81000000Y-118800000D03*
X81000000Y-120875000D03*
%TD*%
D14*
%TO.C,C26*%
X124425000Y-132500000D03*
X126500000Y-132500000D03*
%TD*%
D23*
%TO.C,D8*%
X147750000Y-109300000D03*
X147750000Y-111200000D03*
%TD*%
D21*
%TO.C,C14*%
X96912500Y-111325000D03*
X94837500Y-111325000D03*
%TD*%
%TO.C,C16*%
X96912500Y-102325000D03*
X94837500Y-102325000D03*
%TD*%
D22*
%TO.C,C72*%
X80900000Y-127762500D03*
X80900000Y-129837500D03*
%TD*%
D15*
%TO.C,R29*%
X162550000Y-126762500D03*
X162550000Y-128762500D03*
%TD*%
D24*
%TO.C,R12*%
X105250000Y-128500000D03*
X105250000Y-126500000D03*
%TD*%
D14*
%TO.C,C15*%
X129337500Y-108250000D03*
X131412500Y-108250000D03*
%TD*%
D19*
%TO.C,R18*%
X87250000Y-86500000D03*
X85250000Y-86500000D03*
%TD*%
D22*
%TO.C,C5*%
X103500000Y-117212500D03*
X103500000Y-119287500D03*
%TD*%
D20*
%TO.C,R41*%
X61700000Y-114600000D03*
X63700000Y-114600000D03*
%TD*%
D16*
%TO.C,IC5*%
X73062000Y-118525000D03*
X73062000Y-119175000D03*
X73062000Y-119825000D03*
X73062000Y-120475000D03*
X73062000Y-121125000D03*
X73062000Y-121775000D03*
X73062000Y-122425000D03*
X73062000Y-123075000D03*
X78938000Y-123075000D03*
X78938000Y-122425000D03*
X78938000Y-121775000D03*
X78938000Y-121125000D03*
X78938000Y-120475000D03*
X78938000Y-119825000D03*
X78938000Y-119175000D03*
X78938000Y-118525000D03*
%TD*%
D27*
%TO.C,C52*%
X86387000Y-123472500D03*
X86387000Y-121397500D03*
%TD*%
D14*
%TO.C,C75*%
X75125000Y-131300000D03*
X77200000Y-131300000D03*
%TD*%
D27*
%TO.C,C19*%
X113087500Y-85112500D03*
X113087500Y-83037500D03*
%TD*%
D28*
%TO.C,IC1*%
X166260000Y-82250000D03*
X164990000Y-82250000D03*
X163720000Y-82250000D03*
X162450000Y-82250000D03*
X161180000Y-82250000D03*
X159910000Y-82250000D03*
X158640000Y-82250000D03*
X157370000Y-82250000D03*
X156100000Y-82250000D03*
X154830000Y-82250000D03*
X153560000Y-82250000D03*
X152290000Y-82250000D03*
X151020000Y-82250000D03*
X149750000Y-82250000D03*
D29*
X148500000Y-85285000D03*
X148500000Y-86555000D03*
X148500000Y-87825000D03*
X148500000Y-89095000D03*
X148500000Y-90365000D03*
X148500000Y-91635000D03*
X148500000Y-92905000D03*
X148500000Y-94175000D03*
X148500000Y-95445000D03*
X148500000Y-96715000D03*
D28*
X149750000Y-99750000D03*
X151020000Y-99750000D03*
X152290000Y-99750000D03*
X153560000Y-99750000D03*
X154830000Y-99750000D03*
X156100000Y-99750000D03*
X157370000Y-99750000D03*
X158640000Y-99750000D03*
X159910000Y-99750000D03*
X161180000Y-99750000D03*
X162450000Y-99750000D03*
X163720000Y-99750000D03*
X164990000Y-99750000D03*
X166260000Y-99750000D03*
D30*
X158540000Y-89500000D03*
X159940000Y-89500000D03*
X159940000Y-88100000D03*
X158540000Y-88100000D03*
X157140000Y-88100000D03*
X157140000Y-89500000D03*
X157140000Y-90900000D03*
X158540000Y-90900000D03*
X159940000Y-90900000D03*
%TD*%
D31*
%TO.C,Q2*%
X77250000Y-116455000D03*
X77250000Y-114545000D03*
X75150000Y-115500000D03*
%TD*%
D14*
%TO.C,C59*%
X65475000Y-106392857D03*
X67550000Y-106392857D03*
%TD*%
D17*
%TO.C,D2*%
X115010000Y-75500000D03*
D18*
X113310000Y-75500000D03*
X113310000Y-77500000D03*
X115210000Y-77500000D03*
%TD*%
D24*
%TO.C,R13*%
X108500000Y-128500000D03*
X108500000Y-126500000D03*
%TD*%
D27*
%TO.C,C54*%
X88437000Y-119472500D03*
X88437000Y-117397500D03*
%TD*%
D14*
%TO.C,C76*%
X75125000Y-133400000D03*
X77200000Y-133400000D03*
%TD*%
D20*
%TO.C,R34*%
X61700000Y-101850000D03*
X63700000Y-101850000D03*
%TD*%
%TO.C,R50*%
X71250000Y-127400000D03*
X73250000Y-127400000D03*
%TD*%
D14*
%TO.C,C67*%
X65512500Y-123050000D03*
X67587500Y-123050000D03*
%TD*%
D27*
%TO.C,C47*%
X98200000Y-130637500D03*
X98200000Y-128562500D03*
%TD*%
D22*
%TO.C,C6*%
X109000000Y-117250000D03*
X109000000Y-119325000D03*
%TD*%
D14*
%TO.C,C37*%
X76975000Y-124650000D03*
X79050000Y-124650000D03*
%TD*%
D32*
%TO.C,L1*%
X102350000Y-77400000D03*
X102350000Y-75100000D03*
%TD*%
D19*
%TO.C,R19*%
X83000000Y-86500000D03*
X81000000Y-86500000D03*
%TD*%
D22*
%TO.C,C44*%
X79225000Y-95950000D03*
X79225000Y-98025000D03*
%TD*%
D14*
%TO.C,C65*%
X65512500Y-118850000D03*
X67587500Y-118850000D03*
%TD*%
%TO.C,C48*%
X65475000Y-98050000D03*
X67550000Y-98050000D03*
%TD*%
D27*
%TO.C,C3*%
X164462500Y-78750000D03*
X164462500Y-76675000D03*
%TD*%
D20*
%TO.C,R43*%
X61700000Y-120300000D03*
X63700000Y-120300000D03*
%TD*%
%TO.C,R31*%
X61700000Y-98050000D03*
X63700000Y-98050000D03*
%TD*%
%TO.C,R36*%
X61700000Y-105650000D03*
X63700000Y-105650000D03*
%TD*%
D33*
%TO.C,IC8*%
X164350000Y-136500000D03*
D34*
X157500000Y-134200000D03*
D33*
X164350000Y-131900000D03*
%TD*%
D14*
%TO.C,C58*%
X65475000Y-104307143D03*
X67550000Y-104307143D03*
%TD*%
D35*
%TO.C,Y2*%
X106500000Y-122800000D03*
X106500000Y-124000000D03*
%TD*%
D17*
%TO.C,D3*%
X162300000Y-122500000D03*
D18*
X160600000Y-122500000D03*
X160600000Y-124500000D03*
X162500000Y-124500000D03*
%TD*%
D22*
%TO.C,C50*%
X86387000Y-125397500D03*
X86387000Y-127472500D03*
%TD*%
%TO.C,C23*%
X111250000Y-117250000D03*
X111250000Y-119325000D03*
%TD*%
D27*
%TO.C,C51*%
X88437000Y-123470000D03*
X88437000Y-121395000D03*
%TD*%
D36*
%TO.C,J11*%
X168250000Y-127050000D03*
X168250000Y-126250000D03*
D37*
X168250000Y-125100000D03*
X168250000Y-124100000D03*
X168250000Y-123600000D03*
X168250000Y-122600000D03*
D36*
X168250000Y-121450000D03*
X168250000Y-120650000D03*
X168250000Y-120650000D03*
X168250000Y-121450000D03*
D37*
X168250000Y-122100000D03*
X168250000Y-123100000D03*
X168250000Y-124600000D03*
X168250000Y-125600000D03*
D36*
X168250000Y-126250000D03*
X168250000Y-127050000D03*
D38*
X168825000Y-128170000D03*
D39*
X173005000Y-128170000D03*
D38*
X168825000Y-119530000D03*
D39*
X173005000Y-119530000D03*
%TD*%
D19*
%TO.C,R2*%
X92375000Y-111325000D03*
X90375000Y-111325000D03*
%TD*%
D31*
%TO.C,Q1*%
X77250000Y-112855000D03*
X77250000Y-110945000D03*
X75150000Y-111900000D03*
%TD*%
D20*
%TO.C,R35*%
X61700000Y-103750000D03*
X63700000Y-103750000D03*
%TD*%
D24*
%TO.C,R5*%
X108650000Y-81162500D03*
X108650000Y-79162500D03*
%TD*%
%TO.C,R1*%
X165750000Y-112000000D03*
X165750000Y-110000000D03*
%TD*%
D22*
%TO.C,C21*%
X111587500Y-121462500D03*
X111587500Y-123537500D03*
%TD*%
D19*
%TO.C,R25*%
X171500000Y-130250000D03*
X169500000Y-130250000D03*
%TD*%
D22*
%TO.C,C32*%
X117500000Y-117250000D03*
X117500000Y-119325000D03*
%TD*%
D20*
%TO.C,R40*%
X61700000Y-116500000D03*
X63700000Y-116500000D03*
%TD*%
%TO.C,R9*%
X94925000Y-105412500D03*
X96925000Y-105412500D03*
%TD*%
%TO.C,R53*%
X71200000Y-133300000D03*
X73200000Y-133300000D03*
%TD*%
D14*
%TO.C,C66*%
X65512500Y-120950000D03*
X67587500Y-120950000D03*
%TD*%
D40*
%TO.C,IC9*%
X95949000Y-126545000D03*
X95949000Y-125275000D03*
X95949000Y-124005000D03*
X95949000Y-122735000D03*
X95949000Y-121465000D03*
X95949000Y-120195000D03*
X95949000Y-118925000D03*
X95949000Y-117655000D03*
X90525000Y-117655000D03*
X90525000Y-118925000D03*
X90525000Y-120195000D03*
X90525000Y-121465000D03*
X90525000Y-122735000D03*
X90525000Y-124005000D03*
X90525000Y-125275000D03*
X90525000Y-126545000D03*
%TD*%
D15*
%TO.C,R16*%
X73100000Y-110900000D03*
X73100000Y-112900000D03*
%TD*%
%TO.C,R27*%
X75500000Y-81250000D03*
X75500000Y-83250000D03*
%TD*%
D20*
%TO.C,R46*%
X61700000Y-126000000D03*
X63700000Y-126000000D03*
%TD*%
D21*
%TO.C,C18*%
X96912500Y-97325000D03*
X94837500Y-97325000D03*
%TD*%
D14*
%TO.C,C70*%
X72925000Y-124600000D03*
X75000000Y-124600000D03*
%TD*%
D24*
%TO.C,R22*%
X165500000Y-122500000D03*
X165500000Y-120500000D03*
%TD*%
D41*
%TO.C,Y1*%
X124337500Y-129750000D03*
X126587500Y-129750000D03*
X126587500Y-128450000D03*
X124337500Y-128450000D03*
%TD*%
D24*
%TO.C,R7*%
X109750000Y-132750000D03*
X109750000Y-130750000D03*
%TD*%
%TO.C,R26*%
X75155000Y-94750000D03*
X75155000Y-92750000D03*
%TD*%
D20*
%TO.C,R42*%
X61700000Y-118400000D03*
X63700000Y-118400000D03*
%TD*%
D22*
%TO.C,C25*%
X111770000Y-125386500D03*
X111770000Y-127461500D03*
%TD*%
D14*
%TO.C,C55*%
X129425000Y-90500000D03*
X131500000Y-90500000D03*
%TD*%
D20*
%TO.C,R32*%
X61700000Y-99950000D03*
X63700000Y-99950000D03*
%TD*%
D42*
%TO.C,J21*%
X94000000Y-77500000D03*
X94000000Y-81570000D03*
X92730000Y-77500000D03*
X92730000Y-81570000D03*
X91460000Y-77500000D03*
X91460000Y-81570000D03*
X90190000Y-77500000D03*
X90190000Y-81570000D03*
X88920000Y-77500000D03*
X88920000Y-81570000D03*
%TD*%
D20*
%TO.C,R54*%
X71200000Y-135350000D03*
X73200000Y-135350000D03*
%TD*%
D14*
%TO.C,C78*%
X75125000Y-137500000D03*
X77200000Y-137500000D03*
%TD*%
D24*
%TO.C,R17*%
X73100000Y-116600000D03*
X73100000Y-114600000D03*
%TD*%
D22*
%TO.C,C49*%
X88437000Y-125397500D03*
X88437000Y-127472500D03*
%TD*%
D24*
%TO.C,R15*%
X79300000Y-116700000D03*
X79300000Y-114700000D03*
%TD*%
D20*
%TO.C,R51*%
X71250000Y-129350000D03*
X73250000Y-129350000D03*
%TD*%
D21*
%TO.C,C39*%
X79375000Y-100100000D03*
X77300000Y-100100000D03*
%TD*%
D24*
%TO.C,R14*%
X79300000Y-112900000D03*
X79300000Y-110900000D03*
%TD*%
D43*
%TO.C,J12*%
X71600000Y-91275000D03*
X71600000Y-90175000D03*
X71600000Y-89075000D03*
X71600000Y-87975000D03*
X71600000Y-86875000D03*
X71600000Y-85775000D03*
X71600000Y-84675000D03*
X71600000Y-83575000D03*
D44*
X71600000Y-92825000D03*
D43*
X71600000Y-82625000D03*
D44*
X67300000Y-81675000D03*
D45*
X61101000Y-81675000D03*
D46*
X56951000Y-81675000D03*
D47*
X56500000Y-95175000D03*
%TD*%
D48*
%TO.C,ANT1*%
X133150000Y-122450000D03*
X133150000Y-124350000D03*
X133150000Y-126250000D03*
X133150000Y-128150000D03*
X133150000Y-130050000D03*
D49*
X137200000Y-134100000D03*
X139100000Y-134100000D03*
X141000000Y-134100000D03*
X142900000Y-134100000D03*
X144800000Y-134100000D03*
D48*
X148850000Y-130050000D03*
X148850000Y-128150000D03*
X148850000Y-126250000D03*
X148850000Y-124350000D03*
X148850000Y-122450000D03*
D49*
X144800000Y-118400000D03*
X142900000Y-118400000D03*
D50*
X141000001Y-118400000D03*
D49*
X139100000Y-118400000D03*
X137200000Y-118400000D03*
%TD*%
D20*
%TO.C,R39*%
X61700000Y-111350000D03*
X63700000Y-111350000D03*
%TD*%
D15*
%TO.C,R11*%
X104500000Y-79162500D03*
X104500000Y-81162500D03*
%TD*%
%TO.C,R6*%
X106575000Y-79162500D03*
X106575000Y-81162500D03*
%TD*%
D27*
%TO.C,C53*%
X86387000Y-119472500D03*
X86387000Y-117397500D03*
%TD*%
D22*
%TO.C,C42*%
X167600000Y-131675000D03*
X167600000Y-133750000D03*
%TD*%
D19*
%TO.C,R30*%
X92462500Y-114000000D03*
X90462500Y-114000000D03*
%TD*%
D14*
%TO.C,C36*%
X77362500Y-107850000D03*
X79437500Y-107850000D03*
%TD*%
D22*
%TO.C,C10*%
X98125000Y-124457500D03*
X98125000Y-126532500D03*
%TD*%
D51*
%TO.C,F1*%
X157300000Y-121825000D03*
X157300000Y-124800000D03*
%TD*%
D27*
%TO.C,C2*%
X166962500Y-78750000D03*
X166962500Y-76675000D03*
%TD*%
D22*
%TO.C,C71*%
X82950000Y-127762500D03*
X82950000Y-129837500D03*
%TD*%
D14*
%TO.C,C77*%
X75125000Y-135450000D03*
X77200000Y-135450000D03*
%TD*%
D52*
%TO.C,D7*%
X94800000Y-114000000D03*
X96700000Y-114000000D03*
%TD*%
D19*
%TO.C,R20*%
X83000000Y-88750000D03*
X81000000Y-88750000D03*
%TD*%
D53*
%TO.C,IC7*%
X75095000Y-90674000D03*
X76365000Y-90674000D03*
X77635000Y-90674000D03*
X78905000Y-90674000D03*
X78905000Y-85250000D03*
X77635000Y-85250000D03*
X76365000Y-85250000D03*
X75095000Y-85250000D03*
%TD*%
D14*
%TO.C,C60*%
X65475000Y-108478571D03*
X67550000Y-108478571D03*
%TD*%
D54*
%TO.C,D5*%
X159950000Y-120000000D03*
X163250000Y-120000000D03*
%TD*%
D20*
%TO.C,R3*%
X90375000Y-108825000D03*
X92375000Y-108825000D03*
%TD*%
D27*
%TO.C,C45*%
X96200000Y-130637500D03*
X96200000Y-128562500D03*
%TD*%
%TO.C,C1*%
X162000000Y-78750000D03*
X162000000Y-76675000D03*
%TD*%
%TO.C,C22*%
X104425000Y-77287500D03*
X104425000Y-75212500D03*
%TD*%
%TO.C,C31*%
X105337500Y-85112500D03*
X105337500Y-83037500D03*
%TD*%
D14*
%TO.C,C64*%
X65512500Y-114650000D03*
X67587500Y-114650000D03*
%TD*%
D21*
%TO.C,C29*%
X103750000Y-122000000D03*
X101675000Y-122000000D03*
%TD*%
D20*
%TO.C,R38*%
X61700000Y-109450000D03*
X63700000Y-109450000D03*
%TD*%
D22*
%TO.C,C11*%
X113500000Y-117250000D03*
X113500000Y-119325000D03*
%TD*%
D14*
%TO.C,C62*%
X72962500Y-107800000D03*
X75037500Y-107800000D03*
%TD*%
D20*
%TO.C,R44*%
X61700000Y-122200000D03*
X63700000Y-122200000D03*
%TD*%
D24*
%TO.C,R4*%
X106500000Y-77250000D03*
X106500000Y-75250000D03*
%TD*%
D15*
%TO.C,R21*%
X165500000Y-124500000D03*
X165500000Y-126500000D03*
%TD*%
D16*
%TO.C,IC6*%
X80924000Y-131250000D03*
X80924000Y-131900000D03*
X80924000Y-132550000D03*
X80924000Y-133200000D03*
X80924000Y-133850000D03*
X80924000Y-134500000D03*
X80924000Y-135150000D03*
X80924000Y-135800000D03*
X86800000Y-135800000D03*
X86800000Y-135150000D03*
X86800000Y-134500000D03*
X86800000Y-133850000D03*
X86800000Y-133200000D03*
X86800000Y-132550000D03*
X86800000Y-131900000D03*
X86800000Y-131250000D03*
%TD*%
D19*
%TO.C,R23*%
X171500000Y-117500000D03*
X169500000Y-117500000D03*
%TD*%
D22*
%TO.C,C9*%
X121500000Y-117250000D03*
X121500000Y-119325000D03*
%TD*%
D15*
%TO.C,R10*%
X102425000Y-79162500D03*
X102425000Y-81162500D03*
%TD*%
D14*
%TO.C,C38*%
X84662500Y-137400000D03*
X86737500Y-137400000D03*
%TD*%
D22*
%TO.C,C7*%
X105500000Y-117250000D03*
X105500000Y-119325000D03*
%TD*%
D14*
%TO.C,C43*%
X96112500Y-136750000D03*
X98187500Y-136750000D03*
%TD*%
D55*
%TO.C,PS1*%
X96100000Y-134900000D03*
X97050000Y-134900000D03*
X98000000Y-134900000D03*
X98000000Y-132400000D03*
X96100000Y-132400000D03*
%TD*%
D21*
%TO.C,C41*%
X86949500Y-129675000D03*
X84874500Y-129675000D03*
%TD*%
D14*
%TO.C,C27*%
X129462500Y-92575000D03*
X131537500Y-92575000D03*
%TD*%
D20*
%TO.C,R47*%
X61700000Y-127900000D03*
X63700000Y-127900000D03*
%TD*%
D54*
%TO.C,D4*%
X159950000Y-117700000D03*
X163250000Y-117700000D03*
%TD*%
D22*
%TO.C,C33*%
X107587500Y-83037500D03*
X107587500Y-85112500D03*
%TD*%
%TO.C,C46*%
X152000000Y-135362500D03*
X152000000Y-137437500D03*
%TD*%
D20*
%TO.C,R45*%
X61700000Y-124100000D03*
X63700000Y-124100000D03*
%TD*%
D14*
%TO.C,C4*%
X142925000Y-115093750D03*
X145000000Y-115093750D03*
%TD*%
D27*
%TO.C,C20*%
X118000000Y-85112500D03*
X118000000Y-83037500D03*
%TD*%
D20*
%TO.C,R52*%
X71250000Y-131350000D03*
X73250000Y-131350000D03*
%TD*%
D15*
%TO.C,R49*%
X80950000Y-124000000D03*
X80950000Y-126000000D03*
%TD*%
D14*
%TO.C,C63*%
X65512500Y-116750000D03*
X67587500Y-116750000D03*
%TD*%
D22*
%TO.C,C24*%
X109337500Y-121462500D03*
X109337500Y-123537500D03*
%TD*%
D21*
%TO.C,C30*%
X103750000Y-124250000D03*
X101675000Y-124250000D03*
%TD*%
D53*
%TO.C,IC3*%
X113750000Y-130924000D03*
X115020000Y-130924000D03*
X116290000Y-130924000D03*
X117560000Y-130924000D03*
X117560000Y-125500000D03*
X116290000Y-125500000D03*
X115020000Y-125500000D03*
X113750000Y-125500000D03*
%TD*%
D27*
%TO.C,C13*%
X103000000Y-85075000D03*
X103000000Y-83000000D03*
%TD*%
D14*
%TO.C,C57*%
X65475000Y-102221429D03*
X67550000Y-102221429D03*
%TD*%
%TO.C,C17*%
X129337500Y-100825000D03*
X131412500Y-100825000D03*
%TD*%
D10*
X174500000Y-136000000D02*
G75*
G02*
X168500000Y-136000000I-3000000J0D01*
G01*
X168500000Y-136000000D02*
G75*
G02*
X174500000Y-136000000I3000000J0D01*
G01*
X95000000Y-127500000D02*
X99400000Y-127500000D01*
X99400000Y-137850000D01*
X95000000Y-137850000D01*
X95000000Y-127500000D01*
X69750000Y-109900000D02*
X82750000Y-109900000D01*
X82750000Y-117650000D01*
X69750000Y-117650000D01*
X69750000Y-109900000D01*
X54655000Y-79937500D02*
X84405000Y-79937500D01*
X84405000Y-97000000D01*
X54655000Y-97000000D01*
X54655000Y-79937500D01*
X174500000Y-77000000D02*
G75*
G02*
X168500000Y-77000000I-3000000J0D01*
G01*
X168500000Y-77000000D02*
G75*
G02*
X174500000Y-77000000I3000000J0D01*
G01*
X60500000Y-136000000D02*
G75*
G02*
X54500000Y-136000000I-3000000J0D01*
G01*
X54500000Y-136000000D02*
G75*
G02*
X60500000Y-136000000I3000000J0D01*
G01*
X155330000Y-116250000D02*
X174080000Y-116250000D01*
X174080000Y-131500000D01*
X155330000Y-131500000D01*
X155330000Y-116250000D01*
X60500000Y-77000000D02*
G75*
G02*
X54500000Y-77000000I-3000000J0D01*
G01*
X54500000Y-77000000D02*
G75*
G02*
X60500000Y-77000000I3000000J0D01*
G01*
X97837500Y-85912500D02*
X128337500Y-85912500D01*
X128337500Y-116412500D01*
X97837500Y-116412500D01*
X97837500Y-85912500D01*
X128250000Y-113500000D02*
X153750000Y-113500000D01*
X153750000Y-139000000D01*
X128250000Y-139000000D01*
X128250000Y-113500000D01*
D11*
X183804819Y-106785714D02*
X183804819Y-106976190D01*
X183804819Y-106976190D02*
X183852438Y-107071428D01*
X183852438Y-107071428D02*
X183900057Y-107119047D01*
X183900057Y-107119047D02*
X184042914Y-107214285D01*
X184042914Y-107214285D02*
X184233390Y-107261904D01*
X184233390Y-107261904D02*
X184614342Y-107261904D01*
X184614342Y-107261904D02*
X184709580Y-107214285D01*
X184709580Y-107214285D02*
X184757200Y-107166666D01*
X184757200Y-107166666D02*
X184804819Y-107071428D01*
X184804819Y-107071428D02*
X184804819Y-106880952D01*
X184804819Y-106880952D02*
X184757200Y-106785714D01*
X184757200Y-106785714D02*
X184709580Y-106738095D01*
X184709580Y-106738095D02*
X184614342Y-106690476D01*
X184614342Y-106690476D02*
X184376247Y-106690476D01*
X184376247Y-106690476D02*
X184281009Y-106738095D01*
X184281009Y-106738095D02*
X184233390Y-106785714D01*
X184233390Y-106785714D02*
X184185771Y-106880952D01*
X184185771Y-106880952D02*
X184185771Y-107071428D01*
X184185771Y-107071428D02*
X184233390Y-107166666D01*
X184233390Y-107166666D02*
X184281009Y-107214285D01*
X184281009Y-107214285D02*
X184376247Y-107261904D01*
X183804819Y-105785714D02*
X183804819Y-106261904D01*
X183804819Y-106261904D02*
X184281009Y-106309523D01*
X184281009Y-106309523D02*
X184233390Y-106261904D01*
X184233390Y-106261904D02*
X184185771Y-106166666D01*
X184185771Y-106166666D02*
X184185771Y-105928571D01*
X184185771Y-105928571D02*
X184233390Y-105833333D01*
X184233390Y-105833333D02*
X184281009Y-105785714D01*
X184281009Y-105785714D02*
X184376247Y-105738095D01*
X184376247Y-105738095D02*
X184614342Y-105738095D01*
X184614342Y-105738095D02*
X184709580Y-105785714D01*
X184709580Y-105785714D02*
X184757200Y-105833333D01*
X184757200Y-105833333D02*
X184804819Y-105928571D01*
X184804819Y-105928571D02*
X184804819Y-106166666D01*
X184804819Y-106166666D02*
X184757200Y-106261904D01*
X184757200Y-106261904D02*
X184709580Y-106309523D01*
D10*
X175000000Y-139000000D02*
X186086420Y-139000000D01*
X186086420Y-74000000D02*
X175000000Y-74000000D01*
X185500000Y-139000000D02*
X185500000Y-74000000D01*
X185500000Y-139000000D02*
X184913579Y-137873496D01*
X185500000Y-139000000D02*
X186086421Y-137873496D01*
X185500000Y-74000000D02*
X186086421Y-75126504D01*
X185500000Y-74000000D02*
X184913579Y-75126504D01*
D11*
X113833333Y-144304819D02*
X113261905Y-144304819D01*
X113547619Y-144304819D02*
X113547619Y-143304819D01*
X113547619Y-143304819D02*
X113452381Y-143447676D01*
X113452381Y-143447676D02*
X113357143Y-143542914D01*
X113357143Y-143542914D02*
X113261905Y-143590533D01*
X114214286Y-143400057D02*
X114261905Y-143352438D01*
X114261905Y-143352438D02*
X114357143Y-143304819D01*
X114357143Y-143304819D02*
X114595238Y-143304819D01*
X114595238Y-143304819D02*
X114690476Y-143352438D01*
X114690476Y-143352438D02*
X114738095Y-143400057D01*
X114738095Y-143400057D02*
X114785714Y-143495295D01*
X114785714Y-143495295D02*
X114785714Y-143590533D01*
X114785714Y-143590533D02*
X114738095Y-143733390D01*
X114738095Y-143733390D02*
X114166667Y-144304819D01*
X114166667Y-144304819D02*
X114785714Y-144304819D01*
X115404762Y-143304819D02*
X115500000Y-143304819D01*
X115500000Y-143304819D02*
X115595238Y-143352438D01*
X115595238Y-143352438D02*
X115642857Y-143400057D01*
X115642857Y-143400057D02*
X115690476Y-143495295D01*
X115690476Y-143495295D02*
X115738095Y-143685771D01*
X115738095Y-143685771D02*
X115738095Y-143923866D01*
X115738095Y-143923866D02*
X115690476Y-144114342D01*
X115690476Y-144114342D02*
X115642857Y-144209580D01*
X115642857Y-144209580D02*
X115595238Y-144257200D01*
X115595238Y-144257200D02*
X115500000Y-144304819D01*
X115500000Y-144304819D02*
X115404762Y-144304819D01*
X115404762Y-144304819D02*
X115309524Y-144257200D01*
X115309524Y-144257200D02*
X115261905Y-144209580D01*
X115261905Y-144209580D02*
X115214286Y-144114342D01*
X115214286Y-144114342D02*
X115166667Y-143923866D01*
X115166667Y-143923866D02*
X115166667Y-143685771D01*
X115166667Y-143685771D02*
X115214286Y-143495295D01*
X115214286Y-143495295D02*
X115261905Y-143400057D01*
X115261905Y-143400057D02*
X115309524Y-143352438D01*
X115309524Y-143352438D02*
X115404762Y-143304819D01*
D10*
X174500000Y-139500000D02*
X174500000Y-145586420D01*
X54500000Y-145586420D02*
X54500000Y-139500000D01*
X174500000Y-145000000D02*
X54500000Y-145000000D01*
X174500000Y-145000000D02*
X173373496Y-145586421D01*
X174500000Y-145000000D02*
X173373496Y-144413579D01*
X54500000Y-145000000D02*
X55626504Y-144413579D01*
X54500000Y-145000000D02*
X55626504Y-145586421D01*
D56*
X59250000Y-136000000D02*
G75*
G02*
X55750000Y-136000000I-1750000J0D01*
G01*
X55750000Y-136000000D02*
G75*
G02*
X59250000Y-136000000I1750000J0D01*
G01*
X59250000Y-77000000D02*
G75*
G02*
X55750000Y-77000000I-1750000J0D01*
G01*
X55750000Y-77000000D02*
G75*
G02*
X59250000Y-77000000I1750000J0D01*
G01*
X54500000Y-74000000D02*
X174500000Y-74000000D01*
X174500000Y-139000000D01*
X54500000Y-139000000D01*
X54500000Y-74000000D01*
X173250000Y-136000000D02*
G75*
G02*
X169750000Y-136000000I-1750000J0D01*
G01*
X169750000Y-136000000D02*
G75*
G02*
X173250000Y-136000000I1750000J0D01*
G01*
X173250000Y-77000000D02*
G75*
G02*
X169750000Y-77000000I-1750000J0D01*
G01*
X169750000Y-77000000D02*
G75*
G02*
X173250000Y-77000000I1750000J0D01*
G01*
M02*
