M48
; DRILL file {KiCad 9.0.7} date 2026-03-17T11:15:16-0600
; FORMAT={-:-/ absolute / metric / decimal}
; #@! TF.CreationDate,2026-03-17T11:15:16-06:00
; #@! TF.GenerationSoftware,Kicad,Pcbnew,9.0.7
; #@! TF.FileFunction,Plated,1,4,PTH
FMAT,2
METRIC
; #@! TA.AperFunction,Plated,PTH,ViaDrill
T1C0.300
; #@! TA.AperFunction,Plated,PTH,ComponentDrill
T2C0.600
; #@! TA.AperFunction,Plated,PTH,ComponentDrill
T3C0.710
; #@! TA.AperFunction,Plated,PTH,ComponentDrill
T4C1.000
; #@! TA.AperFunction,Plated,PTH,ComponentDrill
T5C1.100
%
G90
G05
T1
X56.125Y-97.925
X56.5Y-93.5
X56.5Y-113.825
X57.0Y-83.5
X57.0Y-88.75
X59.4Y-97.8
X59.475Y-96.225
X59.475Y-113.025
X61.0Y-83.5
X61.0Y-88.5
X63.45Y-93.0
X63.5Y-75.75
X63.5Y-78.5
X63.925Y-113.025
X65.25Y-96.25
X65.5Y-88.5
X67.25Y-83.5
X67.55Y-98.05
X67.55Y-102.221
X67.55Y-104.307
X67.55Y-106.393
X67.55Y-108.55
X67.55Y-110.564
X67.587Y-114.65
X67.587Y-116.75
X67.587Y-118.85
X67.587Y-120.95
X67.587Y-123.05
X67.587Y-125.15
X67.587Y-127.25
X67.59Y-100.096
X68.5Y-96.25
X69.75Y-85.75
X69.75Y-88.0
X70.0Y-82.75
X70.225Y-100.95
X70.25Y-98.025
X70.975Y-111.075
X71.5Y-88.0
X71.725Y-115.85
X72.575Y-97.95
X72.75Y-96.25
X73.1Y-110.9
X73.1Y-112.9
X73.1Y-114.6
X73.1Y-116.6
X74.625Y-121.45
X74.826Y-124.609
X74.925Y-97.9
X75.037Y-107.8
X75.155Y-94.75
X75.475Y-119.825
X75.5Y-81.25
X75.6Y-102.675
X76.325Y-119.15
X76.975Y-123.35
X77.0Y-85.25
X77.134Y-127.153
X77.2Y-120.625
X77.2Y-131.3
X77.2Y-133.4
X77.2Y-135.45
X77.2Y-137.5
X77.22Y-129.24
X77.225Y-95.987
X77.225Y-97.987
X77.3Y-100.1
X77.362Y-107.85
X77.375Y-118.025
X77.75Y-82.25
X79.05Y-124.65
X79.225Y-95.95
X79.225Y-98.025
X79.325Y-112.925
X79.325Y-116.7
X79.375Y-100.1
X79.438Y-107.85
X80.75Y-82.25
X80.925Y-129.9
X81.0Y-118.8
X81.0Y-120.875
X81.6Y-137.575
X82.275Y-121.125
X82.7Y-132.45
X82.95Y-129.838
X83.0Y-86.5
X83.0Y-88.75
X83.0Y-91.0
X83.75Y-75.75
X83.75Y-78.5
X83.864Y-131.751
X84.175Y-118.7
X84.662Y-137.4
X84.786Y-129.675
X85.1Y-113.075
X85.75Y-78.25
X85.75Y-81.25
X86.387Y-117.397
X86.387Y-121.397
X86.387Y-123.472
X86.387Y-125.397
X86.4Y-119.5
X86.425Y-127.575
X86.737Y-137.4
X86.95Y-129.675
X87.25Y-86.5
X87.25Y-89.0
X87.25Y-93.552
X88.0Y-109.0
X88.25Y-105.5
X88.4Y-121.425
X88.437Y-117.397
X88.437Y-127.472
X88.92Y-77.5
X89.25Y-85.5
X89.25Y-88.9
X89.25Y-95.0
X90.375Y-108.825
X90.375Y-111.325
X90.462Y-114.0
X91.0Y-88.9
X91.0Y-92.0
X91.46Y-77.5
X91.5Y-85.5
X92.3Y-117.3
X92.5Y-88.9
X92.5Y-92.75
X92.6Y-122.925
X92.73Y-77.5
X92.875Y-126.525
X93.5Y-101.111
X93.5Y-106.0
X94.0Y-77.5
X94.2Y-117.325
X94.25Y-84.0
X94.837Y-97.325
X94.837Y-102.325
X94.837Y-108.825
X95.25Y-87.5
X95.949Y-124.005
X95.975Y-107.149
X96.0Y-88.25
X96.0Y-90.0
X96.2Y-128.562
X96.25Y-86.5
X96.912Y-97.325
X96.912Y-102.325
X96.912Y-111.325
X97.5Y-77.5
X97.5Y-81.75
X97.75Y-91.0
X98.074Y-104.762
X98.074Y-115.2
X98.1Y-121.475
X98.125Y-124.457
X98.125Y-126.532
X98.188Y-136.75
X98.2Y-128.562
X98.75Y-101.761
X99.05Y-104.275
X99.05Y-115.925
X99.5Y-79.75
X99.75Y-106.748
X99.75Y-118.9
X100.25Y-102.962
X100.625Y-106.062
X101.206Y-85.779
X101.25Y-84.0
X101.5Y-120.5
X101.74Y-122.0
X101.74Y-124.25
X102.0Y-90.5
X102.25Y-111.25
X102.25Y-112.75
X102.425Y-79.162
X102.5Y-132.0
X102.75Y-114.0
X103.0Y-83.0
X103.0Y-85.075
X103.5Y-117.25
X103.5Y-119.25
X103.75Y-96.75
X103.75Y-98.5
X103.75Y-101.5
X103.75Y-104.75
X104.0Y-94.5
X104.0Y-107.0
X104.0Y-108.75
X104.335Y-113.75
X104.425Y-75.212
X105.0Y-114.5
X105.25Y-132.0
X105.337Y-83.037
X105.462Y-117.212
X105.5Y-119.25
X105.5Y-128.5
X105.625Y-109.375
X105.837Y-91.758
X106.0Y-110.25
X106.147Y-114.328
X106.5Y-113.5
X106.75Y-107.75
X106.832Y-94.395
X106.863Y-91.864
X107.25Y-110.0
X107.487Y-86.5
X107.587Y-83.037
X107.604Y-92.535
X107.75Y-106.5
X108.188Y-113.63
X108.473Y-86.464
X108.5Y-110.0
X108.575Y-75.25
X108.75Y-92.55
X108.75Y-106.15
X108.9Y-128.5
X109.0Y-117.25
X109.0Y-119.325
X109.337Y-123.537
X109.338Y-130.75
X109.75Y-110.25
X109.75Y-132.75
X110.0Y-96.25
X110.0Y-98.75
X110.0Y-101.5
X110.0Y-104.75
X110.25Y-92.25
X110.428Y-87.484
X110.9Y-88.25
X111.15Y-95.5
X111.25Y-75.5
X111.25Y-119.325
X111.337Y-110.337
X111.587Y-123.537
X111.77Y-125.386
X111.77Y-127.462
X111.9Y-109.099
X112.25Y-79.75
X112.25Y-81.75
X112.65Y-113.25
X112.73Y-95.4
X113.087Y-83.037
X113.087Y-85.112
X113.146Y-110.035
X113.5Y-88.5
X113.5Y-117.25
X113.5Y-119.325
X113.75Y-92.0
X113.75Y-133.0
X114.1Y-128.0
X114.188Y-110.018
X114.5Y-79.0
X114.5Y-96.25
X114.5Y-98.75
X114.5Y-101.5
X114.5Y-104.75
X114.75Y-129.611
X114.85Y-83.5
X114.85Y-84.419
X114.857Y-107.75
X115.0Y-75.5
X115.02Y-130.924
X115.301Y-122.75
X115.5Y-81.0
X115.75Y-86.5
X115.757Y-109.5
X116.15Y-85.431
X116.602Y-127.75
X116.75Y-86.75
X116.75Y-109.5
X117.5Y-119.325
X118.0Y-82.25
X118.0Y-86.5
X118.0Y-87.5
X118.01Y-88.41
X118.25Y-96.25
X118.25Y-98.75
X118.25Y-101.5
X118.25Y-104.75
X118.25Y-110.0
X118.25Y-113.75
X118.5Y-92.0
X119.0Y-131.0
X119.25Y-110.0
X119.487Y-88.391
X119.5Y-86.5
X119.5Y-117.25
X119.5Y-119.325
X119.5Y-87.491
X120.0Y-93.9
X120.25Y-110.0
X120.5Y-113.75
X120.5Y-114.75
X120.75Y-92.0
X121.5Y-102.912
X121.5Y-117.25
X121.5Y-119.325
X121.5Y-131.0
X122.0Y-104.75
X122.0Y-108.0
X122.176Y-93.909
X122.25Y-97.25
X122.5Y-101.0
X123.5Y-117.25
X123.5Y-119.325
X124.25Y-114.75
X124.425Y-125.75
X124.5Y-122.0
X124.612Y-128.45
X125.49Y-85.736
X126.25Y-118.25
X126.312Y-129.75
X126.5Y-132.5
X127.209Y-84.991
X127.25Y-122.0
X128.5Y-135.5
X129.0Y-123.25
X129.25Y-124.75
X129.338Y-100.825
X129.338Y-108.25
X129.425Y-90.5
X130.0Y-76.0
X130.015Y-122.811
X131.0Y-132.25
X131.412Y-100.825
X131.412Y-108.25
X131.5Y-90.5
X131.5Y-119.25
X131.537Y-92.575
X131.537Y-94.825
X133.15Y-122.45
X133.15Y-124.674
X133.15Y-128.15
X133.15Y-130.05
X133.25Y-92.5
X134.0Y-91.0
X134.0Y-108.25
X134.0Y-111.5
X134.25Y-135.25
X134.5Y-104.25
X136.0Y-124.75
X136.5Y-104.5
X137.2Y-118.9
X137.2Y-134.1
X138.5Y-126.0
X138.5Y-129.25
X139.46Y-125.027
X139.75Y-108.25
X139.75Y-111.5
X142.0Y-122.25
X142.0Y-129.25
X142.25Y-126.25
X142.9Y-118.9
X143.812Y-115.25
X144.8Y-118.9
X144.8Y-127.3
X144.8Y-134.1
X145.0Y-89.75
X145.0Y-115.094
X145.25Y-91.5
X145.25Y-94.25
X145.25Y-102.5
X145.25Y-111.25
X145.25Y-129.25
X145.5Y-97.25
X145.5Y-122.25
X147.75Y-78.897
X148.0Y-102.5
X148.5Y-86.555
X148.5Y-98.558
X148.6Y-122.45
X148.6Y-130.05
X148.6Y-137.4
X148.75Y-84.0
X148.85Y-124.724
X148.85Y-126.25
X149.75Y-99.75
X150.0Y-98.0
X150.0Y-113.5
X150.75Y-95.75
X150.95Y-102.2
X151.0Y-111.25
X151.75Y-78.897
X151.75Y-94.75
X152.0Y-133.3
X152.0Y-135.362
X152.0Y-137.438
X152.25Y-116.5
X152.5Y-120.25
X153.5Y-85.25
X153.5Y-88.25
X153.5Y-91.75
X153.5Y-97.0
X153.5Y-107.75
X153.5Y-109.75
X153.5Y-111.75
X154.83Y-99.75
X155.4Y-132.1
X155.4Y-136.5
X156.1Y-98.5
X157.14Y-88.1
X157.14Y-89.5
X157.14Y-90.9
X157.37Y-97.25
X157.5Y-134.2
X159.3Y-136.2
X159.6Y-123.5
X159.6Y-132.1
X159.94Y-88.1
X159.94Y-90.9
X160.0Y-85.0
X160.0Y-89.5
X160.0Y-93.25
X160.0Y-97.25
X160.0Y-102.75
X160.0Y-106.0
X160.0Y-109.0
X160.0Y-112.0
X161.5Y-83.75
X161.5Y-86.0
X161.5Y-88.25
X161.5Y-91.0
X161.5Y-93.25
X161.5Y-95.5
X161.5Y-98.25
X161.6Y-123.6
X162.0Y-76.675
X162.0Y-78.75
X162.3Y-122.5
X162.5Y-134.2
X162.55Y-128.762
X163.25Y-117.7
X163.5Y-104.5
X163.8Y-124.5
X164.35Y-136.5
X164.4Y-134.2
X164.463Y-76.675
X164.463Y-78.75
X164.5Y-130.0
X164.99Y-99.75
X165.5Y-105.0
X165.75Y-108.25
X165.75Y-112.0
X165.75Y-128.75
X166.0Y-115.0
X166.25Y-99.75
X166.25Y-101.25
X166.26Y-82.25
X166.75Y-102.5
X166.963Y-78.75
X167.0Y-76.75
X167.0Y-80.0
X167.0Y-121.5
X167.0Y-126.25
X167.5Y-136.8
X167.6Y-133.75
X168.0Y-102.5
X169.5Y-130.3
X170.5Y-102.5
X171.2Y-132.6
X171.25Y-122.0
X171.25Y-124.75
X173.0Y-117.25
X173.0Y-130.5
T3
X56.65Y-101.0
X56.65Y-103.0
X56.65Y-105.0
X56.65Y-107.0
X56.65Y-109.0
X56.65Y-111.0
X56.65Y-117.35
X56.65Y-119.35
X56.65Y-121.35
X56.65Y-123.35
X56.65Y-125.35
X56.65Y-127.35
X58.65Y-101.0
X58.65Y-103.0
X58.65Y-105.0
X58.65Y-107.0
X58.65Y-109.0
X58.65Y-111.0
X58.65Y-117.35
X58.65Y-119.35
X58.65Y-121.35
X58.65Y-123.35
X58.65Y-125.35
X58.65Y-127.35
T4
X62.56Y-132.16
X62.56Y-134.7
X62.56Y-137.24
X65.1Y-132.16
X65.1Y-134.7
X65.1Y-137.24
X82.46Y-94.3
X82.46Y-96.84
X82.46Y-99.38
X82.46Y-101.92
X82.46Y-104.46
X82.46Y-107.0
X82.46Y-109.54
X85.0Y-94.3
X85.0Y-96.84
X85.0Y-99.38
X85.0Y-101.92
X85.0Y-104.46
X85.0Y-107.0
X85.0Y-109.54
X89.7Y-130.96
X89.7Y-133.5
X89.7Y-136.04
X91.425Y-100.123
X91.425Y-102.662
X91.425Y-105.203
X93.3Y-129.8
X93.3Y-133.46
X93.3Y-136.0
X101.09Y-135.75
X103.63Y-135.75
X106.17Y-135.75
X108.71Y-135.75
X111.25Y-135.75
X113.79Y-135.75
X116.33Y-135.75
X118.87Y-135.75
X118.96Y-76.0
X120.93Y-79.71
X120.93Y-82.25
X121.41Y-135.75
X121.5Y-76.0
X123.47Y-79.71
X123.47Y-82.25
X123.95Y-135.75
X124.04Y-76.0
X126.01Y-79.71
X126.01Y-82.25
X126.58Y-76.0
X128.55Y-79.71
X128.55Y-82.25
X131.09Y-79.71
X131.09Y-82.25
X133.63Y-79.71
X133.63Y-82.25
X133.68Y-76.0
X136.17Y-79.71
X136.17Y-82.25
X136.22Y-76.0
X138.71Y-79.71
X138.71Y-82.25
X138.76Y-76.0
X139.46Y-85.84
X139.46Y-88.38
X139.46Y-90.92
X139.46Y-93.46
X139.46Y-96.0
X139.46Y-98.54
X139.46Y-101.08
X139.46Y-103.62
X141.25Y-79.71
X141.25Y-82.25
X141.3Y-76.0
X142.0Y-85.84
X142.0Y-88.38
X142.0Y-90.92
X142.0Y-93.46
X142.0Y-96.0
X142.0Y-98.54
X142.0Y-101.08
X142.0Y-103.62
X143.84Y-76.0
X145.0Y-82.0
X146.38Y-76.0
X148.92Y-76.0
X151.46Y-76.0
X153.5Y-127.9
X154.0Y-76.0
X156.54Y-76.0
X157.3Y-127.812
X159.08Y-76.0
X168.75Y-108.92
X168.75Y-111.46
X168.75Y-114.0
X172.5Y-103.46
X172.5Y-106.0
X172.5Y-108.54
X172.5Y-111.08
T5
X156.5Y-103.0
X156.5Y-107.5
X156.5Y-110.5
X156.5Y-115.0
X163.0Y-103.0
X163.0Y-107.5
X163.0Y-110.5
X163.0Y-115.0
T2
G00X168.275Y-119.53
M15
G01X169.375Y-119.53
M16
G05
G00X168.275Y-128.17
M15
G01X169.375Y-128.17
M16
G05
G00X172.605Y-119.53
M15
G01X173.405Y-119.53
M16
G05
G00X172.605Y-128.17
M15
G01X173.405Y-128.17
M16
G05
M30
