M48
; DRILL file {KiCad 9.0.7} date 2026-03-18T10:32:31-0600
; FORMAT={-:-/ absolute / metric / decimal}
; #@! TF.CreationDate,2026-03-18T10:32:31-06:00
; #@! TF.GenerationSoftware,Kicad,Pcbnew,9.0.7
; #@! TF.FileFunction,Plated,1,4,PTH
FMAT,2
METRIC
; #@! TA.AperFunction,Plated,PTH,ViaDrill
T1C0.300
; #@! TA.AperFunction,Plated,PTH,ComponentDrill
T2C0.600
; #@! TA.AperFunction,Plated,PTH,ComponentDrill
T3C0.710
; #@! TA.AperFunction,Plated,PTH,ComponentDrill
T4C1.000
; #@! TA.AperFunction,Plated,PTH,ComponentDrill
T5C1.100
%
G90
G05
T1
X56.125Y-97.925
X56.5Y-93.5
X56.5Y-113.825
X57.0Y-83.5
X57.0Y-88.75
X59.4Y-97.8
X59.475Y-96.225
X59.475Y-113.025
X61.0Y-83.5
X61.0Y-88.5
X63.45Y-93.0
X63.5Y-75.75
X63.5Y-78.5
X63.925Y-113.025
X65.25Y-96.25
X65.5Y-88.5
X66.612Y-104.3
X66.612Y-108.465
X66.612Y-110.556
X67.25Y-83.5
X68.457Y-102.35
X68.5Y-96.25
X68.55Y-120.95
X68.6Y-100.096
X68.625Y-98.025
X68.625Y-105.9
X68.625Y-123.05
X68.644Y-115.026
X68.65Y-116.75
X68.675Y-118.85
X68.675Y-124.975
X68.725Y-127.275
X69.75Y-85.75
X69.75Y-88.0
X70.0Y-82.75
X70.225Y-100.95
X70.25Y-98.025
X70.9Y-114.7
X70.975Y-111.075
X71.0Y-112.7
X71.725Y-115.85
X71.95Y-109.8
X72.575Y-97.95
X72.75Y-96.25
X73.75Y-94.75
X74.475Y-116.9
X74.625Y-121.45
X74.825Y-123.25
X74.925Y-97.9
X74.975Y-109.2
X75.475Y-119.825
X75.6Y-102.675
X76.0Y-98.475
X76.125Y-100.05
X76.25Y-127.1
X76.263Y-131.3
X76.325Y-119.15
X76.975Y-81.175
X76.975Y-123.35
X77.05Y-84.1
X77.2Y-120.625
X77.3Y-94.975
X77.362Y-106.45
X77.375Y-118.025
X77.75Y-82.25
X77.775Y-104.55
X78.025Y-115.6
X78.225Y-135.425
X78.275Y-133.675
X78.35Y-129.75
X78.425Y-137.325
X78.438Y-100.05
X79.05Y-125.95
X79.275Y-94.85
X79.438Y-109.3
X80.75Y-82.25
X80.75Y-112.925
X81.05Y-122.15
X81.6Y-137.575
X81.925Y-128.85
X82.125Y-119.625
X82.275Y-121.125
X82.7Y-132.45
X83.4Y-137.475
X83.75Y-75.75
X83.75Y-78.5
X83.864Y-131.751
X84.0Y-91.025
X84.025Y-88.775
X84.075Y-86.45
X84.175Y-118.7
X84.725Y-127.575
X85.05Y-117.3
X85.05Y-119.5
X85.05Y-121.3
X85.05Y-123.55
X85.1Y-113.075
X85.75Y-78.25
X85.75Y-81.25
X87.25Y-89.0
X87.25Y-93.552
X87.55Y-126.3
X88.075Y-137.45
X88.25Y-105.5
X88.325Y-87.45
X88.55Y-129.675
X88.9Y-75.525
X89.025Y-108.85
X89.15Y-111.325
X89.175Y-114.0
X89.25Y-85.5
X89.25Y-88.9
X89.25Y-95.0
X89.775Y-127.875
X91.0Y-88.9
X91.0Y-92.0
X91.475Y-75.525
X91.5Y-85.5
X92.3Y-117.3
X92.5Y-88.9
X92.5Y-92.75
X92.6Y-122.925
X92.75Y-75.5
X93.5Y-101.111
X93.5Y-106.0
X93.7Y-109.125
X93.754Y-96.921
X94.2Y-117.325
X94.25Y-84.0
X94.425Y-126.525
X94.525Y-75.45
X94.7Y-103.6
X94.825Y-128.55
X95.25Y-87.5
X95.975Y-102.35
X95.975Y-107.149
X96.0Y-88.25
X96.0Y-90.0
X96.25Y-86.5
X96.975Y-112.525
X97.175Y-123.385
X97.5Y-77.5
X97.5Y-81.75
X97.75Y-91.0
X98.074Y-104.762
X98.074Y-115.2
X98.1Y-121.475
X98.225Y-97.262
X98.375Y-123.385
X98.75Y-101.761
X99.05Y-104.275
X99.05Y-115.925
X99.2Y-135.3
X99.5Y-79.75
X99.75Y-106.748
X99.75Y-118.9
X100.25Y-102.962
X100.625Y-106.062
X101.15Y-79.175
X101.206Y-85.779
X101.25Y-84.0
X101.425Y-125.65
X101.5Y-120.5
X101.675Y-123.125
X101.725Y-82.9
X102.0Y-90.5
X102.25Y-111.25
X102.25Y-112.75
X102.5Y-132.0
X102.75Y-114.0
X103.0Y-85.075
X103.4Y-120.5
X103.5Y-116.0
X103.75Y-96.75
X103.75Y-98.5
X103.75Y-101.5
X103.75Y-104.75
X104.0Y-94.5
X104.0Y-107.0
X104.0Y-108.75
X104.335Y-113.75
X104.45Y-76.15
X105.0Y-114.5
X105.25Y-129.65
X105.25Y-132.0
X105.4Y-120.55
X105.5Y-116.125
X105.625Y-109.375
X105.719Y-83.975
X105.837Y-91.758
X106.0Y-110.25
X106.147Y-114.328
X106.5Y-113.5
X106.75Y-107.75
X106.832Y-94.395
X106.863Y-91.864
X107.25Y-110.0
X107.487Y-86.5
X107.604Y-92.535
X107.75Y-106.5
X108.188Y-113.63
X108.4Y-120.35
X108.473Y-86.464
X108.5Y-110.0
X108.65Y-131.85
X108.75Y-92.55
X108.75Y-106.15
X108.925Y-83.025
X109.0Y-129.75
X109.25Y-124.75
X109.26Y-115.91
X109.338Y-127.625
X109.8Y-75.275
X109.837Y-110.337
X110.0Y-96.25
X110.0Y-98.75
X110.0Y-101.5
X110.0Y-104.75
X110.25Y-92.25
X110.428Y-87.484
X110.638Y-128.35
X110.675Y-126.3
X110.9Y-88.25
X111.15Y-95.5
X111.203Y-120.325
X111.25Y-75.5
X111.337Y-110.337
X111.65Y-122.6
X111.9Y-109.099
X112.25Y-79.75
X112.25Y-81.75
X112.65Y-113.25
X112.73Y-95.4
X113.087Y-86.625
X113.146Y-110.035
X113.225Y-81.1
X113.375Y-115.625
X113.475Y-120.475
X113.5Y-88.5
X113.75Y-92.0
X113.75Y-133.0
X114.1Y-128.0
X114.188Y-110.018
X114.5Y-79.0
X114.5Y-96.25
X114.5Y-98.75
X114.5Y-101.5
X114.5Y-104.75
X114.75Y-129.611
X114.85Y-83.5
X114.85Y-84.419
X114.857Y-107.75
X114.975Y-76.3
X115.02Y-132.075
X115.301Y-122.75
X115.5Y-81.0
X115.75Y-86.5
X115.757Y-109.5
X116.15Y-85.431
X116.602Y-127.75
X116.75Y-86.75
X116.75Y-109.5
X116.85Y-82.85
X117.5Y-118.387
X118.0Y-86.5
X118.0Y-87.5
X118.01Y-88.41
X118.25Y-96.25
X118.25Y-98.75
X118.25Y-101.5
X118.25Y-104.75
X118.25Y-110.0
X118.25Y-113.75
X118.5Y-92.0
X119.0Y-131.0
X119.25Y-110.0
X119.425Y-120.525
X119.487Y-88.391
X119.5Y-86.5
X119.5Y-116.175
X119.5Y-87.491
X120.0Y-93.9
X120.25Y-110.0
X120.5Y-113.75
X120.5Y-114.75
X120.75Y-92.0
X121.4Y-120.575
X121.5Y-102.912
X121.5Y-116.175
X121.5Y-131.0
X122.0Y-104.75
X122.0Y-108.0
X122.176Y-93.909
X122.25Y-97.25
X122.5Y-101.0
X122.925Y-127.575
X123.2Y-125.325
X123.425Y-115.975
X123.55Y-120.725
X124.25Y-114.75
X124.5Y-122.0
X125.49Y-85.736
X125.54Y-111.86
X126.25Y-118.25
X126.5Y-131.125
X127.209Y-84.991
X127.25Y-122.0
X127.875Y-107.562
X128.325Y-100.75
X128.5Y-135.5
X129.0Y-123.25
X129.25Y-124.75
X130.0Y-76.0
X130.015Y-122.811
X130.203Y-113.872
X130.362Y-90.5
X131.0Y-132.25
X131.375Y-109.65
X131.5Y-119.25
X132.5Y-100.425
X132.734Y-94.309
X133.15Y-120.975
X133.25Y-92.5
X134.0Y-91.0
X134.0Y-108.25
X134.0Y-111.5
X134.25Y-135.25
X134.5Y-104.25
X135.475Y-116.825
X135.85Y-128.125
X135.85Y-130.05
X136.0Y-124.75
X136.5Y-104.5
X137.2Y-134.1
X137.525Y-121.25
X138.5Y-126.0
X138.5Y-129.25
X139.46Y-125.027
X139.75Y-108.25
X139.75Y-111.5
X141.9Y-115.0
X142.0Y-122.25
X142.0Y-129.25
X142.25Y-126.25
X143.9Y-111.2
X144.8Y-127.3
X144.8Y-131.4
X145.0Y-89.75
X145.25Y-91.5
X145.25Y-94.25
X145.25Y-102.5
X145.5Y-97.25
X145.5Y-122.25
X145.875Y-130.1
X146.125Y-126.25
X146.15Y-115.075
X146.25Y-124.724
X147.14Y-86.665
X147.75Y-78.897
X148.0Y-102.5
X148.5Y-98.558
X148.6Y-137.4
X148.75Y-84.0
X149.75Y-101.1
X150.0Y-98.0
X150.0Y-113.5
X150.675Y-137.475
X150.75Y-95.75
X150.95Y-102.2
X151.0Y-111.25
X151.75Y-78.897
X151.75Y-94.75
X152.0Y-133.3
X152.25Y-116.5
X152.5Y-120.25
X153.4Y-135.362
X153.475Y-133.65
X153.5Y-85.25
X153.5Y-88.25
X153.5Y-91.75
X153.5Y-97.0
X153.5Y-107.75
X153.5Y-109.75
X153.5Y-111.75
X153.55Y-131.975
X154.8Y-98.475
X155.35Y-138.1
X156.0Y-89.525
X156.0Y-90.925
X156.05Y-88.025
X156.1Y-98.5
X156.875Y-130.275
X157.37Y-97.25
X157.475Y-138.125
X159.15Y-130.25
X159.3Y-138.075
X159.6Y-123.5
X159.9Y-91.925
X159.925Y-87.075
X160.0Y-85.0
X160.0Y-93.25
X160.0Y-97.25
X160.0Y-102.75
X160.0Y-106.0
X160.0Y-109.0
X160.0Y-112.0
X160.925Y-89.475
X161.5Y-83.75
X161.5Y-86.0
X161.5Y-88.25
X161.5Y-91.0
X161.5Y-93.25
X161.5Y-95.5
X161.5Y-98.25
X161.55Y-135.5
X161.6Y-123.6
X161.675Y-132.275
X161.95Y-75.325
X162.05Y-79.9
X162.275Y-116.675
X162.5Y-134.2
X162.525Y-136.6
X162.975Y-130.0
X163.25Y-122.499
X163.5Y-104.5
X163.8Y-124.5
X164.2Y-112.55
X164.4Y-134.2
X164.5Y-75.325
X164.5Y-130.0
X164.99Y-80.0
X164.99Y-98.425
X165.5Y-105.0
X165.75Y-108.25
X165.75Y-128.75
X165.775Y-78.775
X166.0Y-115.0
X166.225Y-80.85
X166.25Y-101.25
X166.5Y-102.3
X166.975Y-75.425
X167.0Y-80.0
X167.0Y-121.5
X167.0Y-126.25
X167.5Y-136.8
X167.575Y-135.0
X168.0Y-102.5
X168.325Y-130.2
X169.675Y-132.2
X170.5Y-102.5
X171.25Y-122.0
X171.25Y-124.75
X173.0Y-117.25
X173.0Y-130.5
T3
X56.65Y-101.0
X56.65Y-103.0
X56.65Y-105.0
X56.65Y-107.0
X56.65Y-109.0
X56.65Y-111.0
X56.65Y-117.35
X56.65Y-119.35
X56.65Y-121.35
X56.65Y-123.35
X56.65Y-125.35
X56.65Y-127.35
X58.65Y-101.0
X58.65Y-103.0
X58.65Y-105.0
X58.65Y-107.0
X58.65Y-109.0
X58.65Y-111.0
X58.65Y-117.35
X58.65Y-119.35
X58.65Y-121.35
X58.65Y-123.35
X58.65Y-125.35
X58.65Y-127.35
T4
X62.56Y-132.16
X62.56Y-134.7
X62.56Y-137.24
X65.1Y-132.16
X65.1Y-134.7
X65.1Y-137.24
X82.46Y-94.3
X82.46Y-96.84
X82.46Y-99.38
X82.46Y-101.92
X82.46Y-104.46
X82.46Y-107.0
X82.46Y-109.54
X85.0Y-94.3
X85.0Y-96.84
X85.0Y-99.38
X85.0Y-101.92
X85.0Y-104.46
X85.0Y-107.0
X85.0Y-109.54
X89.7Y-130.96
X89.7Y-133.5
X89.7Y-136.04
X91.425Y-100.123
X91.425Y-102.662
X91.425Y-105.203
X93.3Y-129.8
X93.3Y-133.46
X93.3Y-136.0
X101.09Y-135.75
X103.63Y-135.75
X106.17Y-135.75
X108.71Y-135.75
X111.25Y-135.75
X113.79Y-135.75
X116.33Y-135.75
X118.87Y-135.75
X118.96Y-76.0
X120.93Y-79.71
X120.93Y-82.25
X121.41Y-135.75
X121.5Y-76.0
X123.47Y-79.71
X123.47Y-82.25
X123.95Y-135.75
X124.04Y-76.0
X126.01Y-79.71
X126.01Y-82.25
X126.58Y-76.0
X128.55Y-79.71
X128.55Y-82.25
X131.09Y-79.71
X131.09Y-82.25
X133.63Y-79.71
X133.63Y-82.25
X133.68Y-76.0
X136.17Y-79.71
X136.17Y-82.25
X136.22Y-76.0
X138.71Y-79.71
X138.71Y-82.25
X138.76Y-76.0
X139.46Y-85.84
X139.46Y-88.38
X139.46Y-90.92
X139.46Y-93.46
X139.46Y-96.0
X139.46Y-98.54
X139.46Y-101.08
X139.46Y-103.62
X141.25Y-79.71
X141.25Y-82.25
X141.3Y-76.0
X142.0Y-85.84
X142.0Y-88.38
X142.0Y-90.92
X142.0Y-93.46
X142.0Y-96.0
X142.0Y-98.54
X142.0Y-101.08
X142.0Y-103.62
X143.84Y-76.0
X145.0Y-82.0
X146.38Y-76.0
X148.92Y-76.0
X151.46Y-76.0
X153.5Y-127.9
X154.0Y-76.0
X156.54Y-76.0
X157.3Y-127.812
X159.08Y-76.0
X168.75Y-108.92
X168.75Y-111.46
X168.75Y-114.0
X172.5Y-103.46
X172.5Y-106.0
X172.5Y-108.54
X172.5Y-111.08
T5
X156.5Y-103.0
X156.5Y-107.5
X156.5Y-110.5
X156.5Y-115.0
X163.0Y-103.0
X163.0Y-107.5
X163.0Y-110.5
X163.0Y-115.0
T2
G00X168.275Y-119.53
M15
G01X169.375Y-119.53
M16
G05
G00X168.275Y-128.17
M15
G01X169.375Y-128.17
M16
G05
G00X172.605Y-119.53
M15
G01X173.405Y-119.53
M16
G05
G00X172.605Y-128.17
M15
G01X173.405Y-128.17
M16
G05
M30
